<mxfile host="Electron" agent="Mozilla/5.0 (Windows NT 10.0; Win64; x64) AppleWebKit/537.36 (KHTML, like Gecko) draw.io/24.7.17 Chrome/128.0.6613.36 Electron/32.0.1 Safari/537.36" version="24.7.17" pages="2">
  <diagram name="Versiones" id="_EImqQ2EvvY1O87WJJJp">
    <mxGraphModel dx="1588" dy="1114" grid="1" gridSize="10" guides="1" tooltips="1" connect="1" arrows="1" fold="1" page="1" pageScale="1" pageWidth="827" pageHeight="1169" math="0" shadow="0">
      <root>
        <mxCell id="0" />
        <mxCell id="1" parent="0" />
        <mxCell id="En0_kcKdgU2avTnqjoZP-1" value="" style="shape=table;startSize=0;container=1;collapsible=0;childLayout=tableLayout;fontFamily=Roboto;fontSource=https://fonts.googleapis.com/css?family=Roboto;fontSize=16;strokeWidth=1;align=left;" parent="1" vertex="1">
          <mxGeometry y="51" width="1040" height="200" as="geometry" />
        </mxCell>
        <mxCell id="En0_kcKdgU2avTnqjoZP-2" value="" style="shape=partialRectangle;collapsible=0;dropTarget=0;pointerEvents=0;fillColor=none;top=0;left=0;bottom=0;right=0;points=[[0,0.5],[1,0.5]];portConstraint=eastwest;fontFamily=Roboto;fontSource=https://fonts.googleapis.com/css?family=Roboto;fontSize=16;strokeWidth=1;" parent="En0_kcKdgU2avTnqjoZP-1" vertex="1">
          <mxGeometry width="1040" height="40" as="geometry" />
        </mxCell>
        <mxCell id="En0_kcKdgU2avTnqjoZP-3" value="NOMBRE" style="shape=partialRectangle;html=1;whiteSpace=wrap;connectable=0;overflow=hidden;fillColor=none;top=0;left=0;bottom=0;right=0;pointerEvents=1;fontFamily=Roboto;fontSource=https://fonts.googleapis.com/css?family=Roboto;fontSize=16;strokeWidth=1;" parent="En0_kcKdgU2avTnqjoZP-2" vertex="1">
          <mxGeometry width="367" height="40" as="geometry">
            <mxRectangle width="367" height="40" as="alternateBounds" />
          </mxGeometry>
        </mxCell>
        <mxCell id="En0_kcKdgU2avTnqjoZP-4" value="FECHA" style="shape=partialRectangle;html=1;whiteSpace=wrap;connectable=0;overflow=hidden;fillColor=none;top=0;left=0;bottom=0;right=0;pointerEvents=1;fontFamily=Roboto;fontSource=https://fonts.googleapis.com/css?family=Roboto;fontSize=16;strokeWidth=1;" parent="En0_kcKdgU2avTnqjoZP-2" vertex="1">
          <mxGeometry x="367" width="112" height="40" as="geometry">
            <mxRectangle width="112" height="40" as="alternateBounds" />
          </mxGeometry>
        </mxCell>
        <mxCell id="En0_kcKdgU2avTnqjoZP-5" value="VERSION" style="shape=partialRectangle;html=1;whiteSpace=wrap;connectable=0;overflow=hidden;fillColor=none;top=0;left=0;bottom=0;right=0;pointerEvents=1;fontFamily=Roboto;fontSource=https://fonts.googleapis.com/css?family=Roboto;fontSize=16;strokeWidth=1;" parent="En0_kcKdgU2avTnqjoZP-2" vertex="1">
          <mxGeometry x="479" width="82" height="40" as="geometry">
            <mxRectangle width="82" height="40" as="alternateBounds" />
          </mxGeometry>
        </mxCell>
        <mxCell id="En0_kcKdgU2avTnqjoZP-6" value="COMENTARIO" style="shape=partialRectangle;html=1;whiteSpace=wrap;connectable=0;overflow=hidden;fillColor=none;top=0;left=0;bottom=0;right=0;pointerEvents=1;fontFamily=Roboto;fontSource=https://fonts.googleapis.com/css?family=Roboto;fontSize=16;strokeWidth=1;" parent="En0_kcKdgU2avTnqjoZP-2" vertex="1">
          <mxGeometry x="561" width="479" height="40" as="geometry">
            <mxRectangle width="479" height="40" as="alternateBounds" />
          </mxGeometry>
        </mxCell>
        <mxCell id="En0_kcKdgU2avTnqjoZP-7" value="" style="shape=partialRectangle;collapsible=0;dropTarget=0;pointerEvents=0;fillColor=none;top=0;left=0;bottom=0;right=0;points=[[0,0.5],[1,0.5]];portConstraint=eastwest;fontFamily=Roboto;fontSource=https://fonts.googleapis.com/css?family=Roboto;fontSize=16;strokeWidth=1;" parent="En0_kcKdgU2avTnqjoZP-1" vertex="1">
          <mxGeometry y="40" width="1040" height="40" as="geometry" />
        </mxCell>
        <mxCell id="En0_kcKdgU2avTnqjoZP-8" value="Mayra Rodríguez García" style="shape=partialRectangle;html=1;whiteSpace=wrap;connectable=0;overflow=hidden;fillColor=none;top=0;left=0;bottom=0;right=0;pointerEvents=1;fontFamily=Roboto;fontSource=https://fonts.googleapis.com/css?family=Roboto;fontSize=16;strokeWidth=1;" parent="En0_kcKdgU2avTnqjoZP-7" vertex="1">
          <mxGeometry width="367" height="40" as="geometry">
            <mxRectangle width="367" height="40" as="alternateBounds" />
          </mxGeometry>
        </mxCell>
        <mxCell id="En0_kcKdgU2avTnqjoZP-9" value="21/11/2024" style="shape=partialRectangle;html=1;whiteSpace=wrap;connectable=0;overflow=hidden;fillColor=none;top=0;left=0;bottom=0;right=0;pointerEvents=1;fontFamily=Roboto;fontSource=https://fonts.googleapis.com/css?family=Roboto;fontSize=16;strokeWidth=1;" parent="En0_kcKdgU2avTnqjoZP-7" vertex="1">
          <mxGeometry x="367" width="112" height="40" as="geometry">
            <mxRectangle width="112" height="40" as="alternateBounds" />
          </mxGeometry>
        </mxCell>
        <mxCell id="En0_kcKdgU2avTnqjoZP-10" value="1.0" style="shape=partialRectangle;html=1;whiteSpace=wrap;connectable=0;overflow=hidden;fillColor=none;top=0;left=0;bottom=0;right=0;pointerEvents=1;fontFamily=Roboto;fontSource=https://fonts.googleapis.com/css?family=Roboto;fontSize=16;strokeWidth=1;" parent="En0_kcKdgU2avTnqjoZP-7" vertex="1">
          <mxGeometry x="479" width="82" height="40" as="geometry">
            <mxRectangle width="82" height="40" as="alternateBounds" />
          </mxGeometry>
        </mxCell>
        <mxCell id="En0_kcKdgU2avTnqjoZP-11" value="Creación del Documento" style="shape=partialRectangle;html=1;whiteSpace=wrap;connectable=0;overflow=hidden;fillColor=none;top=0;left=0;bottom=0;right=0;pointerEvents=1;fontFamily=Roboto;fontSource=https://fonts.googleapis.com/css?family=Roboto;fontSize=16;strokeWidth=1;align=left;" parent="En0_kcKdgU2avTnqjoZP-7" vertex="1">
          <mxGeometry x="561" width="479" height="40" as="geometry">
            <mxRectangle width="479" height="40" as="alternateBounds" />
          </mxGeometry>
        </mxCell>
        <mxCell id="En0_kcKdgU2avTnqjoZP-12" value="" style="shape=partialRectangle;collapsible=0;dropTarget=0;pointerEvents=0;fillColor=none;top=0;left=0;bottom=0;right=0;points=[[0,0.5],[1,0.5]];portConstraint=eastwest;fontFamily=Roboto;fontSource=https://fonts.googleapis.com/css?family=Roboto;fontSize=16;strokeWidth=1;" parent="En0_kcKdgU2avTnqjoZP-1" vertex="1">
          <mxGeometry y="80" width="1040" height="40" as="geometry" />
        </mxCell>
        <mxCell id="En0_kcKdgU2avTnqjoZP-13" value="Mayra Rodríguez García" style="shape=partialRectangle;html=1;whiteSpace=wrap;connectable=0;overflow=hidden;fillColor=none;top=0;left=0;bottom=0;right=0;pointerEvents=1;fontFamily=Roboto;fontSource=https://fonts.googleapis.com/css?family=Roboto;fontSize=16;strokeWidth=1;" parent="En0_kcKdgU2avTnqjoZP-12" vertex="1">
          <mxGeometry width="367" height="40" as="geometry">
            <mxRectangle width="367" height="40" as="alternateBounds" />
          </mxGeometry>
        </mxCell>
        <mxCell id="En0_kcKdgU2avTnqjoZP-14" value="25/11/2024" style="shape=partialRectangle;html=1;whiteSpace=wrap;connectable=0;overflow=hidden;fillColor=none;top=0;left=0;bottom=0;right=0;pointerEvents=1;fontFamily=Roboto;fontSource=https://fonts.googleapis.com/css?family=Roboto;fontSize=16;strokeWidth=1;" parent="En0_kcKdgU2avTnqjoZP-12" vertex="1">
          <mxGeometry x="367" width="112" height="40" as="geometry">
            <mxRectangle width="112" height="40" as="alternateBounds" />
          </mxGeometry>
        </mxCell>
        <mxCell id="En0_kcKdgU2avTnqjoZP-15" value="1.1" style="shape=partialRectangle;html=1;whiteSpace=wrap;connectable=0;overflow=hidden;fillColor=none;top=0;left=0;bottom=0;right=0;pointerEvents=1;fontFamily=Roboto;fontSource=https://fonts.googleapis.com/css?family=Roboto;fontSize=16;strokeWidth=1;" parent="En0_kcKdgU2avTnqjoZP-12" vertex="1">
          <mxGeometry x="479" width="82" height="40" as="geometry">
            <mxRectangle width="82" height="40" as="alternateBounds" />
          </mxGeometry>
        </mxCell>
        <mxCell id="En0_kcKdgU2avTnqjoZP-16" value="Diagrama Depósitos para Sucursar con Terminal Financiero" style="shape=partialRectangle;html=1;whiteSpace=wrap;connectable=0;overflow=hidden;fillColor=none;top=0;left=0;bottom=0;right=0;pointerEvents=1;fontFamily=Roboto;fontSource=https://fonts.googleapis.com/css?family=Roboto;fontSize=16;strokeWidth=1;align=left;" parent="En0_kcKdgU2avTnqjoZP-12" vertex="1">
          <mxGeometry x="561" width="479" height="40" as="geometry">
            <mxRectangle width="479" height="40" as="alternateBounds" />
          </mxGeometry>
        </mxCell>
        <mxCell id="En0_kcKdgU2avTnqjoZP-17" style="shape=partialRectangle;collapsible=0;dropTarget=0;pointerEvents=0;fillColor=none;top=0;left=0;bottom=0;right=0;points=[[0,0.5],[1,0.5]];portConstraint=eastwest;fontFamily=Roboto;fontSource=https://fonts.googleapis.com/css?family=Roboto;fontSize=16;strokeWidth=1;" parent="En0_kcKdgU2avTnqjoZP-1" vertex="1">
          <mxGeometry y="120" width="1040" height="40" as="geometry" />
        </mxCell>
        <mxCell id="En0_kcKdgU2avTnqjoZP-18" value="" style="shape=partialRectangle;html=1;whiteSpace=wrap;connectable=0;overflow=hidden;fillColor=none;top=0;left=0;bottom=0;right=0;pointerEvents=1;fontFamily=Roboto;fontSource=https://fonts.googleapis.com/css?family=Roboto;fontSize=16;strokeWidth=1;" parent="En0_kcKdgU2avTnqjoZP-17" vertex="1">
          <mxGeometry width="367" height="40" as="geometry">
            <mxRectangle width="367" height="40" as="alternateBounds" />
          </mxGeometry>
        </mxCell>
        <mxCell id="En0_kcKdgU2avTnqjoZP-19" value="" style="shape=partialRectangle;html=1;whiteSpace=wrap;connectable=0;overflow=hidden;fillColor=none;top=0;left=0;bottom=0;right=0;pointerEvents=1;fontFamily=Roboto;fontSource=https://fonts.googleapis.com/css?family=Roboto;fontSize=16;strokeWidth=1;" parent="En0_kcKdgU2avTnqjoZP-17" vertex="1">
          <mxGeometry x="367" width="112" height="40" as="geometry">
            <mxRectangle width="112" height="40" as="alternateBounds" />
          </mxGeometry>
        </mxCell>
        <mxCell id="En0_kcKdgU2avTnqjoZP-20" value="" style="shape=partialRectangle;html=1;whiteSpace=wrap;connectable=0;overflow=hidden;fillColor=none;top=0;left=0;bottom=0;right=0;pointerEvents=1;fontFamily=Roboto;fontSource=https://fonts.googleapis.com/css?family=Roboto;fontSize=16;strokeWidth=1;" parent="En0_kcKdgU2avTnqjoZP-17" vertex="1">
          <mxGeometry x="479" width="82" height="40" as="geometry">
            <mxRectangle width="82" height="40" as="alternateBounds" />
          </mxGeometry>
        </mxCell>
        <mxCell id="En0_kcKdgU2avTnqjoZP-21" value="" style="shape=partialRectangle;html=1;whiteSpace=wrap;connectable=0;overflow=hidden;fillColor=none;top=0;left=0;bottom=0;right=0;pointerEvents=1;fontFamily=Roboto;fontSource=https://fonts.googleapis.com/css?family=Roboto;fontSize=16;strokeWidth=1;align=left;" parent="En0_kcKdgU2avTnqjoZP-17" vertex="1">
          <mxGeometry x="561" width="479" height="40" as="geometry">
            <mxRectangle width="479" height="40" as="alternateBounds" />
          </mxGeometry>
        </mxCell>
        <mxCell id="En0_kcKdgU2avTnqjoZP-22" style="shape=partialRectangle;collapsible=0;dropTarget=0;pointerEvents=0;fillColor=none;top=0;left=0;bottom=0;right=0;points=[[0,0.5],[1,0.5]];portConstraint=eastwest;fontFamily=Roboto;fontSource=https://fonts.googleapis.com/css?family=Roboto;fontSize=16;strokeWidth=1;" parent="En0_kcKdgU2avTnqjoZP-1" vertex="1">
          <mxGeometry y="160" width="1040" height="40" as="geometry" />
        </mxCell>
        <mxCell id="En0_kcKdgU2avTnqjoZP-23" style="shape=partialRectangle;html=1;whiteSpace=wrap;connectable=0;overflow=hidden;fillColor=none;top=0;left=0;bottom=0;right=0;pointerEvents=1;fontFamily=Roboto;fontSource=https://fonts.googleapis.com/css?family=Roboto;fontSize=16;strokeWidth=1;" parent="En0_kcKdgU2avTnqjoZP-22" vertex="1">
          <mxGeometry width="367" height="40" as="geometry">
            <mxRectangle width="367" height="40" as="alternateBounds" />
          </mxGeometry>
        </mxCell>
        <mxCell id="En0_kcKdgU2avTnqjoZP-24" style="shape=partialRectangle;html=1;whiteSpace=wrap;connectable=0;overflow=hidden;fillColor=none;top=0;left=0;bottom=0;right=0;pointerEvents=1;fontFamily=Roboto;fontSource=https://fonts.googleapis.com/css?family=Roboto;fontSize=16;strokeWidth=1;" parent="En0_kcKdgU2avTnqjoZP-22" vertex="1">
          <mxGeometry x="367" width="112" height="40" as="geometry">
            <mxRectangle width="112" height="40" as="alternateBounds" />
          </mxGeometry>
        </mxCell>
        <mxCell id="En0_kcKdgU2avTnqjoZP-25" style="shape=partialRectangle;html=1;whiteSpace=wrap;connectable=0;overflow=hidden;fillColor=none;top=0;left=0;bottom=0;right=0;pointerEvents=1;fontFamily=Roboto;fontSource=https://fonts.googleapis.com/css?family=Roboto;fontSize=16;strokeWidth=1;" parent="En0_kcKdgU2avTnqjoZP-22" vertex="1">
          <mxGeometry x="479" width="82" height="40" as="geometry">
            <mxRectangle width="82" height="40" as="alternateBounds" />
          </mxGeometry>
        </mxCell>
        <mxCell id="En0_kcKdgU2avTnqjoZP-26" style="shape=partialRectangle;html=1;whiteSpace=wrap;connectable=0;overflow=hidden;fillColor=none;top=0;left=0;bottom=0;right=0;pointerEvents=1;fontFamily=Roboto;fontSource=https://fonts.googleapis.com/css?family=Roboto;fontSize=16;strokeWidth=1;align=left;" parent="En0_kcKdgU2avTnqjoZP-22" vertex="1">
          <mxGeometry x="561" width="479" height="40" as="geometry">
            <mxRectangle width="479" height="40" as="alternateBounds" />
          </mxGeometry>
        </mxCell>
        <mxCell id="En0_kcKdgU2avTnqjoZP-27" value="&lt;font style=&quot;font-size: 20px;&quot;&gt;CONTROL DE VERSIONES&lt;/font&gt;" style="rounded=0;whiteSpace=wrap;html=1;fontColor=#FFFFFF;labelBackgroundColor=none;fillColor=#36393D;fontSize=20;align=left;" parent="1" vertex="1">
          <mxGeometry width="1040" height="41" as="geometry" />
        </mxCell>
      </root>
    </mxGraphModel>
  </diagram>
  <diagram id="Odz66fGfVXUa73Z1G_IH" name="SUC-TF-Depósitos">
    <mxGraphModel dx="2588" dy="2993" grid="1" gridSize="10" guides="1" tooltips="1" connect="1" arrows="1" fold="1" page="1" pageScale="1" pageWidth="827" pageHeight="1169" math="0" shadow="0">
      <root>
        <mxCell id="0" />
        <mxCell id="1" parent="0" />
        <mxCell id="0QJzmTSBUrrNXlWIrxS7-1" value="&lt;span style=&quot;font-size: 16px; text-align: left;&quot;&gt;PLARD Sucursal - Terminal Financiero/ Ventanilla &quot;Depósitos&quot;&lt;/span&gt;" style="shape=umlFrame;whiteSpace=wrap;html=1;pointerEvents=0;recursiveResize=0;container=1;collapsible=0;width=491;height=53;fontStyle=1;fontSize=13;verticalAlign=middle;align=center;" parent="1" vertex="1">
          <mxGeometry x="-1081" y="-673" width="2561" height="1993" as="geometry" />
        </mxCell>
        <mxCell id="0QJzmTSBUrrNXlWIrxS7-2" value="Cliente Sucursal Santander" style="shape=umlLifeline;perimeter=lifelinePerimeter;whiteSpace=wrap;html=1;container=1;dropTarget=0;collapsible=0;recursiveResize=0;outlineConnect=0;portConstraint=eastwest;newEdgeStyle={&quot;edgeStyle&quot;:&quot;elbowEdgeStyle&quot;,&quot;elbow&quot;:&quot;vertical&quot;,&quot;curved&quot;:0,&quot;rounded&quot;:0};align=center;movable=1;resizable=1;rotatable=1;deletable=1;editable=1;locked=0;connectable=1;fontStyle=1" parent="0QJzmTSBUrrNXlWIrxS7-1" vertex="1">
          <mxGeometry x="25" y="90.25" width="170" height="1899.75" as="geometry" />
        </mxCell>
        <mxCell id="0QJzmTSBUrrNXlWIrxS7-3" value="" style="html=1;points=[[0,0,0,0,5],[0,1,0,0,-5],[1,0,0,0,5],[1,1,0,0,-5]];perimeter=orthogonalPerimeter;outlineConnect=0;targetShapes=umlLifeline;portConstraint=eastwest;newEdgeStyle={&quot;curved&quot;:0,&quot;rounded&quot;:0};" parent="0QJzmTSBUrrNXlWIrxS7-2" vertex="1">
          <mxGeometry x="80" y="110" width="10" height="1610" as="geometry" />
        </mxCell>
        <mxCell id="0QJzmTSBUrrNXlWIrxS7-6" value="Cliente solicita en ventanilla un depósito a una cuenta&amp;nbsp;" style="text;html=1;align=left;verticalAlign=top;whiteSpace=wrap;rounded=0;fontSize=9;" parent="0QJzmTSBUrrNXlWIrxS7-1" vertex="1">
          <mxGeometry x="122" y="175" width="142.75" height="23" as="geometry" />
        </mxCell>
        <mxCell id="0QJzmTSBUrrNXlWIrxS7-31" value="" style="html=1;verticalAlign=bottom;labelBackgroundColor=none;endArrow=block;endFill=1;endSize=6;align=left;rounded=0;" parent="0QJzmTSBUrrNXlWIrxS7-1" edge="1">
          <mxGeometry x="-1" relative="1" as="geometry">
            <mxPoint x="115" y="206" as="sourcePoint" />
            <mxPoint x="313.5" y="206" as="targetPoint" />
            <mxPoint as="offset" />
          </mxGeometry>
        </mxCell>
        <mxCell id="0QJzmTSBUrrNXlWIrxS7-266" value="&amp;lt;&amp;lt;Canal&amp;gt;&amp;gt;&lt;div&gt;TF / Ventanilla&lt;/div&gt;" style="shape=umlLifeline;perimeter=lifelinePerimeter;whiteSpace=wrap;html=1;container=1;dropTarget=0;collapsible=0;recursiveResize=0;outlineConnect=0;portConstraint=eastwest;newEdgeStyle={&quot;edgeStyle&quot;:&quot;elbowEdgeStyle&quot;,&quot;elbow&quot;:&quot;vertical&quot;,&quot;curved&quot;:0,&quot;rounded&quot;:0};align=center;movable=1;resizable=1;rotatable=1;deletable=1;editable=1;locked=0;connectable=1;fontStyle=1" parent="0QJzmTSBUrrNXlWIrxS7-1" vertex="1">
          <mxGeometry x="451" y="89" width="170" height="1901" as="geometry" />
        </mxCell>
        <mxCell id="0QJzmTSBUrrNXlWIrxS7-267" value="" style="html=1;points=[[0,0,0,0,5],[0,1,0,0,-5],[1,0,0,0,5],[1,1,0,0,-5]];perimeter=orthogonalPerimeter;outlineConnect=0;targetShapes=umlLifeline;portConstraint=eastwest;newEdgeStyle={&quot;curved&quot;:0,&quot;rounded&quot;:0};" parent="0QJzmTSBUrrNXlWIrxS7-266" vertex="1">
          <mxGeometry x="80" y="140" width="10" height="1550" as="geometry" />
        </mxCell>
        <mxCell id="0QJzmTSBUrrNXlWIrxS7-268" value="Ejecutivo Sucursal" style="shape=umlLifeline;perimeter=lifelinePerimeter;whiteSpace=wrap;html=1;container=1;dropTarget=0;collapsible=0;recursiveResize=0;outlineConnect=0;portConstraint=eastwest;newEdgeStyle={&quot;edgeStyle&quot;:&quot;elbowEdgeStyle&quot;,&quot;elbow&quot;:&quot;vertical&quot;,&quot;curved&quot;:0,&quot;rounded&quot;:0};align=center;movable=1;resizable=1;rotatable=1;deletable=1;editable=1;locked=0;connectable=1;fontStyle=1" parent="0QJzmTSBUrrNXlWIrxS7-1" vertex="1">
          <mxGeometry x="233" y="89" width="170" height="1901" as="geometry" />
        </mxCell>
        <mxCell id="0QJzmTSBUrrNXlWIrxS7-269" value="" style="html=1;points=[[0,0,0,0,5],[0,1,0,0,-5],[1,0,0,0,5],[1,1,0,0,-5]];perimeter=orthogonalPerimeter;outlineConnect=0;targetShapes=umlLifeline;portConstraint=eastwest;newEdgeStyle={&quot;curved&quot;:0,&quot;rounded&quot;:0};" parent="0QJzmTSBUrrNXlWIrxS7-268" vertex="1">
          <mxGeometry x="80" y="109" width="10" height="1601" as="geometry" />
        </mxCell>
        <mxCell id="0QJzmTSBUrrNXlWIrxS7-289" value="Ejecutivo ingresa al sistema de TF,&amp;nbsp; módulo de cuentas y selecciona la opción depósitos&lt;br&gt;&lt;p style=&quot;margin-left: 20.6pt; text-indent: -0.25in; font-size: 10px;&quot; class=&quot;TableText&quot;&gt;&lt;i&gt;&lt;span style=&quot;&quot; lang=&quot;ES&quot;&gt;&lt;font style=&quot;font-size: 10px;&quot;&gt;&lt;/font&gt;&lt;/span&gt;&lt;/i&gt;&lt;/p&gt;" style="text;html=1;align=left;verticalAlign=top;whiteSpace=wrap;rounded=0;fontSize=9;" parent="0QJzmTSBUrrNXlWIrxS7-1" vertex="1">
          <mxGeometry x="329" y="206" width="179" height="36" as="geometry" />
        </mxCell>
        <mxCell id="0QJzmTSBUrrNXlWIrxS7-290" value="" style="html=1;align=left;spacingLeft=2;endArrow=block;rounded=0;edgeStyle=orthogonalEdgeStyle;curved=0;rounded=0;" parent="0QJzmTSBUrrNXlWIrxS7-1" edge="1">
          <mxGeometry x="-0.2922" y="20" relative="1" as="geometry">
            <mxPoint x="541" y="513.0200000000004" as="sourcePoint" />
            <Array as="points">
              <mxPoint x="571" y="513.0800000000004" />
              <mxPoint x="571" y="543.0800000000004" />
            </Array>
            <mxPoint x="541" y="543.0800000000004" as="targetPoint" />
            <mxPoint as="offset" />
          </mxGeometry>
        </mxCell>
        <mxCell id="0QJzmTSBUrrNXlWIrxS7-291" value="Cliente otorga número de tarjeta de débito para realizar depósito&amp;nbsp;&lt;br&gt;&lt;p style=&quot;margin-left: 20.6pt; text-indent: -0.25in; font-size: 10px;&quot; class=&quot;TableText&quot;&gt;&lt;i&gt;&lt;span style=&quot;&quot; lang=&quot;ES&quot;&gt;&lt;font style=&quot;font-size: 10px;&quot;&gt;&lt;/font&gt;&lt;/span&gt;&lt;/i&gt;&lt;/p&gt;" style="text;html=1;align=left;verticalAlign=top;whiteSpace=wrap;rounded=0;fontSize=9;" parent="0QJzmTSBUrrNXlWIrxS7-1" vertex="1">
          <mxGeometry x="122" y="292" width="145.5" height="29" as="geometry" />
        </mxCell>
        <mxCell id="0QJzmTSBUrrNXlWIrxS7-294" value="" style="html=1;verticalAlign=bottom;labelBackgroundColor=none;endArrow=none;endFill=0;endSize=6;align=left;rounded=0;startArrow=block;startFill=1;dashed=1;" parent="0QJzmTSBUrrNXlWIrxS7-1" edge="1">
          <mxGeometry x="-1" relative="1" as="geometry">
            <mxPoint x="116" y="271" as="sourcePoint" />
            <mxPoint x="312" y="271" as="targetPoint" />
            <mxPoint as="offset" />
          </mxGeometry>
        </mxCell>
        <mxCell id="0QJzmTSBUrrNXlWIrxS7-292" value="Ejecutivo solicita número de cuenta o numero de tarjeta para el Depósito" style="text;html=1;align=left;verticalAlign=top;whiteSpace=wrap;rounded=0;fontSize=9;" parent="0QJzmTSBUrrNXlWIrxS7-1" vertex="1">
          <mxGeometry x="156.25" y="239" width="156" height="36" as="geometry" />
        </mxCell>
        <mxCell id="0QJzmTSBUrrNXlWIrxS7-296" value="" style="html=1;verticalAlign=bottom;labelBackgroundColor=none;endArrow=block;endFill=1;endSize=6;align=left;rounded=0;" parent="0QJzmTSBUrrNXlWIrxS7-1" edge="1">
          <mxGeometry x="-1" relative="1" as="geometry">
            <mxPoint x="323" y="239" as="sourcePoint" />
            <mxPoint x="531" y="239" as="targetPoint" />
            <mxPoint as="offset" />
          </mxGeometry>
        </mxCell>
        <mxCell id="0QJzmTSBUrrNXlWIrxS7-305" value="Cliente indica&amp;nbsp;medio de depósito:&lt;div&gt;&amp;nbsp;- Efectivo&lt;/div&gt;&lt;div&gt;&amp;nbsp;- Documento (Cheque)&lt;/div&gt;" style="text;html=1;align=left;verticalAlign=top;whiteSpace=wrap;rounded=0;fontSize=9;" parent="0QJzmTSBUrrNXlWIrxS7-1" vertex="1">
          <mxGeometry x="122" y="417" width="156" height="36" as="geometry" />
        </mxCell>
        <mxCell id="0QJzmTSBUrrNXlWIrxS7-272" value="&lt;div&gt;&amp;lt;&amp;lt;Queque&amp;gt;&amp;gt;&lt;/div&gt;MQ Canal" style="shape=umlLifeline;perimeter=lifelinePerimeter;whiteSpace=wrap;html=1;container=1;dropTarget=0;collapsible=0;recursiveResize=0;outlineConnect=0;portConstraint=eastwest;newEdgeStyle={&quot;edgeStyle&quot;:&quot;elbowEdgeStyle&quot;,&quot;elbow&quot;:&quot;vertical&quot;,&quot;curved&quot;:0,&quot;rounded&quot;:0};align=center;movable=1;resizable=1;rotatable=1;deletable=1;editable=1;locked=0;connectable=1;fontStyle=1" parent="0QJzmTSBUrrNXlWIrxS7-1" vertex="1">
          <mxGeometry x="671" y="89.25" width="170" height="1900.75" as="geometry" />
        </mxCell>
        <mxCell id="0QJzmTSBUrrNXlWIrxS7-273" value="" style="html=1;points=[[0,0,0,0,5],[0,1,0,0,-5],[1,0,0,0,5],[1,1,0,0,-5]];perimeter=orthogonalPerimeter;outlineConnect=0;targetShapes=umlLifeline;portConstraint=eastwest;newEdgeStyle={&quot;curved&quot;:0,&quot;rounded&quot;:0};" parent="0QJzmTSBUrrNXlWIrxS7-272" vertex="1">
          <mxGeometry x="80" y="494" width="10" height="1186" as="geometry" />
        </mxCell>
        <mxCell id="0QJzmTSBUrrNXlWIrxS7-276" value="&lt;div&gt;&amp;lt;&amp;lt;Repositorio&amp;gt;&amp;gt;&lt;/div&gt;&lt;div&gt;Redis Streams&lt;/div&gt;&lt;div&gt;&lt;/div&gt;" style="shape=umlLifeline;perimeter=lifelinePerimeter;whiteSpace=wrap;html=1;container=1;dropTarget=0;collapsible=0;recursiveResize=0;outlineConnect=0;portConstraint=eastwest;newEdgeStyle={&quot;edgeStyle&quot;:&quot;elbowEdgeStyle&quot;,&quot;elbow&quot;:&quot;vertical&quot;,&quot;curved&quot;:0,&quot;rounded&quot;:0};align=center;movable=1;resizable=1;rotatable=1;deletable=1;editable=1;locked=0;connectable=1;fontStyle=1;" parent="0QJzmTSBUrrNXlWIrxS7-1" vertex="1">
          <mxGeometry x="1104" y="90.25" width="170" height="1899.75" as="geometry" />
        </mxCell>
        <mxCell id="0QJzmTSBUrrNXlWIrxS7-277" value="" style="html=1;points=[[0,0,0,0,5],[0,1,0,0,-5],[1,0,0,0,5],[1,1,0,0,-5]];perimeter=orthogonalPerimeter;outlineConnect=0;targetShapes=umlLifeline;portConstraint=eastwest;newEdgeStyle={&quot;curved&quot;:0,&quot;rounded&quot;:0};" parent="0QJzmTSBUrrNXlWIrxS7-276" vertex="1">
          <mxGeometry x="80" y="599" width="10" height="591" as="geometry" />
        </mxCell>
        <mxCell id="RO1CmDXr1QsEUB7Ie__f-3" value="Envia ejecución del depósito a la cuenta del Cliente con tarjeta débito&lt;br&gt;&lt;p style=&quot;margin-left: 20.6pt; text-indent: -0.25in; font-size: 10px;&quot; class=&quot;TableText&quot;&gt;&lt;i&gt;&lt;span style=&quot;&quot; lang=&quot;ES&quot;&gt;&lt;font style=&quot;font-size: 10px;&quot;&gt;&lt;/font&gt;&lt;/span&gt;&lt;/i&gt;&lt;/p&gt;" style="text;html=1;align=left;verticalAlign=top;whiteSpace=wrap;rounded=0;fontSize=9;" parent="0QJzmTSBUrrNXlWIrxS7-1" vertex="1">
          <mxGeometry x="576" y="510" width="152" height="36" as="geometry" />
        </mxCell>
        <mxCell id="RO1CmDXr1QsEUB7Ie__f-5" value="" style="html=1;verticalAlign=bottom;labelBackgroundColor=none;endArrow=block;endFill=1;endSize=6;align=left;rounded=0;" parent="0QJzmTSBUrrNXlWIrxS7-1" edge="1">
          <mxGeometry x="-1" relative="1" as="geometry">
            <mxPoint x="541" y="597" as="sourcePoint" />
            <mxPoint x="751" y="597" as="targetPoint" />
            <mxPoint as="offset" />
          </mxGeometry>
        </mxCell>
        <mxCell id="RO1CmDXr1QsEUB7Ie__f-4" value="Se recupera número de cuenta con transacción LMM8&lt;br&gt;&lt;p style=&quot;margin-left: 20.6pt; text-indent: -0.25in; font-size: 10px;&quot; class=&quot;TableText&quot;&gt;&lt;i&gt;&lt;span style=&quot;&quot; lang=&quot;ES&quot;&gt;&lt;font style=&quot;font-size: 10px;&quot;&gt;&lt;/font&gt;&lt;/span&gt;&lt;/i&gt;&lt;/p&gt;" style="text;html=1;align=left;verticalAlign=top;whiteSpace=wrap;rounded=0;fontSize=9;" parent="0QJzmTSBUrrNXlWIrxS7-1" vertex="1">
          <mxGeometry x="552" y="564" width="137" height="36" as="geometry" />
        </mxCell>
        <mxCell id="RO1CmDXr1QsEUB7Ie__f-8" value="Recibe mensaje para recuperar cuenta del cliente Trx LMM8&lt;br&gt;&lt;p style=&quot;margin-left: 20.6pt; text-indent: -0.25in; font-size: 10px;&quot; class=&quot;TableText&quot;&gt;&lt;i&gt;&lt;span style=&quot;&quot; lang=&quot;ES&quot;&gt;&lt;font style=&quot;font-size: 10px;&quot;&gt;&lt;/font&gt;&lt;/span&gt;&lt;/i&gt;&lt;/p&gt;" style="text;html=1;align=left;verticalAlign=top;whiteSpace=wrap;rounded=0;fontSize=9;" parent="0QJzmTSBUrrNXlWIrxS7-1" vertex="1">
          <mxGeometry x="768" y="575" width="152" height="36" as="geometry" />
        </mxCell>
        <mxCell id="RO1CmDXr1QsEUB7Ie__f-9" value="Lee el mensaje publicado&lt;br&gt;&lt;p style=&quot;margin-left: 20.6pt; text-indent: -0.25in; font-size: 10px;&quot; class=&quot;TableText&quot;&gt;&lt;i&gt;&lt;span style=&quot;&quot; lang=&quot;ES&quot;&gt;&lt;font style=&quot;font-size: 10px;&quot;&gt;&lt;/font&gt;&lt;/span&gt;&lt;/i&gt;&lt;/p&gt;" style="text;html=1;align=left;verticalAlign=top;whiteSpace=wrap;rounded=0;fontSize=9;" parent="0QJzmTSBUrrNXlWIrxS7-1" vertex="1">
          <mxGeometry x="1005" y="616" width="113" height="18" as="geometry" />
        </mxCell>
        <mxCell id="RO1CmDXr1QsEUB7Ie__f-11" value="Valida si es un dispositivo generado en PLARD&lt;br&gt;&lt;p style=&quot;margin-left: 20.6pt; text-indent: -0.25in; font-size: 10px;&quot; class=&quot;TableText&quot;&gt;&lt;i&gt;&lt;span style=&quot;&quot; lang=&quot;ES&quot;&gt;&lt;font style=&quot;font-size: 10px;&quot;&gt;&lt;/font&gt;&lt;/span&gt;&lt;/i&gt;&lt;/p&gt;" style="text;html=1;align=left;verticalAlign=top;whiteSpace=wrap;rounded=0;fontSize=9;" parent="0QJzmTSBUrrNXlWIrxS7-1" vertex="1">
          <mxGeometry x="993.88" y="681" width="145.5" height="36" as="geometry" />
        </mxCell>
        <mxCell id="RO1CmDXr1QsEUB7Ie__f-12" value="[BIN == PLARD]" style="text;html=1;align=left;verticalAlign=top;whiteSpace=wrap;rounded=0;fontSize=9;" parent="0QJzmTSBUrrNXlWIrxS7-1" vertex="1">
          <mxGeometry x="981.63" y="660" width="110" height="26.32" as="geometry" />
        </mxCell>
        <mxCell id="0QJzmTSBUrrNXlWIrxS7-280" value="&lt;div&gt;&amp;lt;&amp;lt;Plataforma SaaS&amp;gt;&amp;gt;&lt;/div&gt;PLARD&lt;div&gt;&lt;/div&gt;" style="shape=umlLifeline;perimeter=lifelinePerimeter;whiteSpace=wrap;html=1;container=1;dropTarget=0;collapsible=0;recursiveResize=0;outlineConnect=0;portConstraint=eastwest;newEdgeStyle={&quot;edgeStyle&quot;:&quot;elbowEdgeStyle&quot;,&quot;elbow&quot;:&quot;vertical&quot;,&quot;curved&quot;:0,&quot;rounded&quot;:0};align=center;movable=1;resizable=1;rotatable=1;deletable=1;editable=1;locked=0;connectable=1;fontStyle=1" parent="0QJzmTSBUrrNXlWIrxS7-1" vertex="1">
          <mxGeometry x="1549" y="89" width="170" height="1901" as="geometry" />
        </mxCell>
        <mxCell id="0QJzmTSBUrrNXlWIrxS7-281" value="" style="html=1;points=[[0,0,0,0,5],[0,1,0,0,-5],[1,0,0,0,5],[1,1,0,0,-5]];perimeter=orthogonalPerimeter;outlineConnect=0;targetShapes=umlLifeline;portConstraint=eastwest;newEdgeStyle={&quot;curved&quot;:0,&quot;rounded&quot;:0};" parent="0QJzmTSBUrrNXlWIrxS7-280" vertex="1">
          <mxGeometry x="80" y="796" width="10" height="80" as="geometry" />
        </mxCell>
        <mxCell id="RO1CmDXr1QsEUB7Ie__f-42" value="Entrega el mensaje de respuesta, con el número de cuenta del cliente para completar el depósito&lt;br&gt;&lt;p style=&quot;margin-left: 20.6pt; text-indent: -0.25in; font-size: 10px;&quot; class=&quot;TableText&quot;&gt;&lt;i&gt;&lt;span style=&quot;&quot; lang=&quot;ES&quot;&gt;&lt;font style=&quot;font-size: 10px;&quot;&gt;&lt;/font&gt;&lt;/span&gt;&lt;/i&gt;&lt;/p&gt;" style="text;html=1;align=left;verticalAlign=top;whiteSpace=wrap;rounded=0;fontSize=9;" parent="0QJzmTSBUrrNXlWIrxS7-1" vertex="1">
          <mxGeometry x="552" y="1070" width="179" height="36.82" as="geometry" />
        </mxCell>
        <mxCell id="RO1CmDXr1QsEUB7Ie__f-60" value="Mensaje de respuesta, con el número de cuenta del cliente para completar el depósito&lt;br&gt;&lt;p style=&quot;margin-left: 20.6pt; text-indent: -0.25in; font-size: 10px;&quot; class=&quot;TableText&quot;&gt;&lt;i&gt;&lt;span style=&quot;&quot; lang=&quot;ES&quot;&gt;&lt;font style=&quot;font-size: 10px;&quot;&gt;&lt;/font&gt;&lt;/span&gt;&lt;/i&gt;&lt;/p&gt;" style="text;html=1;align=left;verticalAlign=top;whiteSpace=wrap;rounded=0;fontSize=9;" parent="0QJzmTSBUrrNXlWIrxS7-1" vertex="1">
          <mxGeometry x="552" y="1232" width="185" height="36.82" as="geometry" />
        </mxCell>
        <mxCell id="RO1CmDXr1QsEUB7Ie__f-99" value="Se ejecutan transacciones de Captación BG para realizar el depósito a la cuenta&lt;br&gt;&lt;p style=&quot;margin-left: 20.6pt; text-indent: -0.25in; font-size: 10px;&quot; class=&quot;TableText&quot;&gt;&lt;i&gt;&lt;span style=&quot;&quot; lang=&quot;ES&quot;&gt;&lt;font style=&quot;font-size: 10px;&quot;&gt;&lt;/font&gt;&lt;/span&gt;&lt;/i&gt;&lt;/p&gt;" style="text;html=1;align=left;verticalAlign=top;whiteSpace=wrap;rounded=0;fontSize=9;" parent="0QJzmTSBUrrNXlWIrxS7-1" vertex="1">
          <mxGeometry x="768" y="1391" width="332" height="29" as="geometry" />
        </mxCell>
        <mxCell id="RO1CmDXr1QsEUB7Ie__f-124" value="Depósito en Caja (Efectivo)&lt;br&gt;&lt;p style=&quot;margin-left: 20.6pt; text-indent: -0.25in; font-size: 10px;&quot; class=&quot;TableText&quot;&gt;&lt;i&gt;&lt;span style=&quot;&quot; lang=&quot;ES&quot;&gt;&lt;font style=&quot;font-size: 10px;&quot;&gt;&lt;/font&gt;&lt;/span&gt;&lt;/i&gt;&lt;/p&gt;" style="text;html=1;align=left;verticalAlign=top;whiteSpace=wrap;rounded=0;fontSize=9;" parent="0QJzmTSBUrrNXlWIrxS7-1" vertex="1">
          <mxGeometry x="2342" y="1575" width="137" height="20" as="geometry" />
        </mxCell>
        <mxCell id="RO1CmDXr1QsEUB7Ie__f-125" value="Depósito en NO Caja (Documento/cheque)&lt;br&gt;&lt;p style=&quot;margin-left: 20.6pt; text-indent: -0.25in; font-size: 10px;&quot; class=&quot;TableText&quot;&gt;&lt;i&gt;&lt;span style=&quot;&quot; lang=&quot;ES&quot;&gt;&lt;font style=&quot;font-size: 10px;&quot;&gt;&lt;/font&gt;&lt;/span&gt;&lt;/i&gt;&lt;/p&gt;" style="text;html=1;align=left;verticalAlign=top;whiteSpace=wrap;rounded=0;fontSize=9;" parent="0QJzmTSBUrrNXlWIrxS7-1" vertex="1">
          <mxGeometry x="2330" y="1641" width="183" height="20" as="geometry" />
        </mxCell>
        <mxCell id="RO1CmDXr1QsEUB7Ie__f-134" value="Mensaje respuesta del Depósito en la cuenta del Cliente&lt;p style=&quot;margin-left: 20.6pt; text-indent: -0.25in; font-size: 10px;&quot; class=&quot;TableText&quot;&gt;&lt;i&gt;&lt;span style=&quot;&quot; lang=&quot;ES&quot;&gt;&lt;font style=&quot;font-size: 10px;&quot;&gt;&lt;/font&gt;&lt;/span&gt;&lt;/i&gt;&lt;/p&gt;" style="text;html=1;align=left;verticalAlign=top;whiteSpace=wrap;rounded=0;fontSize=9;" parent="0QJzmTSBUrrNXlWIrxS7-1" vertex="1">
          <mxGeometry x="561" y="1720" width="159" height="28" as="geometry" />
        </mxCell>
        <mxCell id="0QJzmTSBUrrNXlWIrxS7-156" value="" style="group" parent="1" vertex="1" connectable="0">
          <mxGeometry x="-1081" y="-773" width="2561" height="79" as="geometry" />
        </mxCell>
        <mxCell id="0QJzmTSBUrrNXlWIrxS7-157" value="&lt;span style=&quot;text-align: left;&quot;&gt;PLARD Sucursal - Terminal Financiero / Ventanilla &quot;&lt;/span&gt;&lt;span style=&quot;text-align: left;&quot;&gt;Depósitos&quot;&lt;/span&gt;&lt;span style=&quot;background-color: initial;&quot;&gt;&amp;nbsp;- MODELO FUNCIONAL DE SECUENCIA&lt;/span&gt;" style="rounded=0;whiteSpace=wrap;html=1;align=center;fontSize=16;fontStyle=1" parent="0QJzmTSBUrrNXlWIrxS7-156" vertex="1">
          <mxGeometry width="2561" height="79" as="geometry" />
        </mxCell>
        <mxCell id="0QJzmTSBUrrNXlWIrxS7-158" value="&lt;img alt=&quot;&quot; src=&quot;data:image/png;base64,iVBORw0KGgoAAAANSUhEUgAAAOgAAABXCAYAAAAONQnYAAAAAXNSR0IArs4c6QAAAARnQU1BAACxjwv8YQUAAAAJcEhZcwAAFxEAABcRAcom8z8AACX3SURBVHhe7Z0JmBTVtcdPL9N797BIFEWFqIiAskgU0IggGiMvbhF5aDQmrnFHBBVRjGwSQEUNboDGGBeeu2ERVBCVXYFhBGbt6a7uWnudGTZR6v1PTzEOAwPTQ4+A1P/7zlfLPXWreub++pxbdes2mTJlypQpU6ZMmTJlypQpU6ZMmTJlypQpU6ZMmTJlypQpU6ZMmTJlqokqpEKH1lrz89LYZcpU47WI+tkjdHlrJW9wd9l2zcCY/U9nB+nPLqPYVHayhNzasUGvcH4ooFwUDqhDQ375CSxfLW4h9jN8TJnat3Qia4L+51zZdtk/ZPvlMyT7Ve/K9qvXxB3XKJrjmk9C7r8ea7iaykLlPvG8cL48N+xXhEhAVYSAmhQCmi600PTyFsr1hpspU/tWMV0cSNove3tb3mA9lXeVnswboicdQ/Wtjj/riuPabyOuIccbrqayUIU3ckesRVrX8lO6lB/XRZiUn9RD+cqOsoB8reFmytS+FaberZL2yxdsB6BS3hW6DEhlxxA95fgTltesFNzXtjNcTWWhoC9yWzRf1dlC+RJM1iP5MT2cr243ATXVaIXo3JYp++VztgBME9DcyQTUVE5kAto8MgHNocJErXYSOY3NI0omoM0jE9DcyKIRdUoRvRIjegTrfmP/ESMT0ObRoQCoTrqlhOLHl5PYr5SUK8spenMpSSNLKPo7w+XQVoioZZzo/R/xWdJE25JEY3Uij1F8RMgEtHl0MAEtoIKjyylyaTlJU2ELg6SUV5CaCpG2TaSkXkryDMP10JZE5E0QPQE4t+wApAB0G6Lok9j/K8PlFy8T0OZRuU+4+ecGtJCiJ4QpdiPsgyDJ8Shg1GiLrlC1HqW0HiRNj1AyFSR1snHIoa8oIqaK9BaRdPP3NZDuBKQzKomOMlx+VhUSOYrJ1yZJ+R0k8nZVKb9nglr8VqWjB6l0zCUqHTdIoXa/i1GHs2TqeEaSOnYoo1/nG4dnreYENEzD3FHXAydIeaO7iPZxvWTn+Askx7hBomPCJYJj4qCoc8rvZPvU3pG8p7qLjmmdo64XT9BaT/JzamZU0WjxMWvpNa/qmdc24pjTUfDOPUN0L+gV8i4cKHgWDBI8n11SY58PCjm/uEjwL+8d8XzdI0iLWhhV7FeraXVekbvoONFX3DnqKekZ8hah7tJBFbAST/BiwS30rvCJncu8ZUeHvMI9kXxl588BaOa6SBoUInVeiGJbGEoVUCK1rS4lcR1sZhlFH0I0vXsjRa8JkdTFOPTwUJDIBSiHA84ER1JE1B8B7CyA29ZwaRYhnbag/9syRo7TFHJcmbQ67k9Y3FNiFu+HmiWwVrO0KNIsrUtVy1EhzXqMpFmPhbWTFGt7UbF2KFetp5Ro1o7fqrZOryfsXR9Sbd1/L1PXo43qG6VcA6rRCL9oH9VLcT5yu+p49J+i49Gvo67HiqOux8uirrGRqGucHHVNlKKuSbApYsT9ZDDqfrok6p5WFHE9u0JxPz9T9bw0OuT65/WC5/luwfxX9gqQTrNtQc/sYyT3e2eJrnevlz0fjZa9/50e8Xz8ueCdsyHsnVsc9s4vE3wLImHfAlnwfSYJvs9hi6Wwd0lU8H1VEfZ9XSx4ll1iVLlXLaJF9gpfYeewf+NfooHiyYK3aHHIt6m4wl9UGvKXRcL+MinsL5dC/qAY8oeCwfxQcUVA+CIciH4dzpd+EABmcwJaSOFWxRQZgzRWZihV2oxIqcbKSX4TgF5XSsIpG2nj4X9vZTaRDenuHTCNIynAQXpAb8NONVxyLpnoaHwZPFtNlpVxylMSFtePKYtHr7T49CpLPqwVrA22f6WnrW1h7WAnwDrATtIrrR1hnfSUrbMet3XdmbB1E+LW7h+K1h7DZGevXxun2adyBWgh3e6THCMGq46Rr2jOh9cprtFbY64xetw1Vk+4JmA5QY+5n4BNgk3WNfdTsGlYf06Pu6fDntfjnhd1wKnLnpd2iu6X0gnXa99G3bPGLaIx9pqz/KRyx79PVT3vvR7zfFQY9bxXKXk/2ql45+iad76u+T7NmOpbpCu+xYZ9CfsathS2XE/4v9GlwAo95P1qiFFlfVkirvV9BV/BP8RA8fKof1OVHCjRlUCFrgbCWIZ1OSDAIqhHzJgckHWlhZaxSAZK0bDmATREm48FmC/AdnDURFq7HWC+i0h5dZCSjc4MDhvxuFSF6IYYuqcM6WYY1ucB0k6GS07F9eKLIKSTVa8kh560uPQEAI0BUA2AapaWsKNgbXREUNhxsONh7XXV+mvYKbBT9ZjtNAZUT9u66VW2M/WE7cztMduZSzQ6+9LZNNhmnG6vygWgSt493SXH8JdVx4hYwjVKT7oe0VXXaF3GUnI9qouuv8Me10X3ONgE2BN6FJBG3VNhT8OmwZ7Ro57ndMnzPAMKUGfp27xv6RHPzBU6vbLHgP2g8/X+iuedZLV3nq54P9YBqC7Cot7/6oJvDmwu7BPYQsM+hy2GfQH7Upf9y/WIf1la8C/7vVFlrYL5a1qEvOvviXrXF0v+TboWKAOAxXoksEkXsAxnrARWBivXQ4C2xkIAUQCEEVi0WQEtoLKjS0l6LUxxtNGtgFOJlZH04Foq/eXfPwE41wCciu0/Qfq5RHS2UZwzcXRGxC7ZAkCR5gJMF8wDIGsATQDQJABNAdAUAE0hgqYQQZMANA5ANQNQFYCqti6wM2A99CQgrbadBVB7C6K9z/0SXeg1TrmHDhRQ1XHvoLhz+IqEc4SecD4IKB8AjA/CRsFGwx7Fvsd1xTUOEXMCbBJssq66n4Q9rSvuZ3UZtgvQqGc67AXYS3rS+5oueGZ8uTdAw67/9BM9/6do3g/1iPd92AcwXv9YjwBOEXBKiKIyomiNLYF9BfsatkxP+tegfEVJifez3fpjUdfqE6Legumif/1mLVCkR/0bAOF3MF6yFQHSEj0KMEUAKSGSioFoxqKwCIAUAGdzAlpMYhtEyplhiukyVeoVpFYA1r+MoTFWw+WXL6Sfl6MfuokhZcP6ylxDyoCi31u8D0B/SFhabUEUTSGCauiDyoig8bi1fWXM2mFHGilulfU0gNh5N0BVW09YL73K3ldP2PtUadbetxqn3EMHAqhsu/0C1XF3SbVzpK4679clmOgaWQuoAjgTSHFjgBOAfi+7xqdF13gNfVAl4vpHPOKamhRd06oB6fcNAzpzSUOASp535L0DOm+n6Jv/fcS3sFrwfpIMexdq3AcN+xYpgndxXPAtSWr+Vdtk36pPiml5wKiSYq2WB0TvupkKoGQL+wtg62sB5Qiq5iPFzQ9hvfyHiD9YhX5oHNFTrghUaGF/OB0NiNujADKa6Xs2D6BIZe8TKPFjDGktQA0D2KuMoiNLAGgAwFyxDYBuhSHarUQ0vdAoPmA1BGjK4gegATlOLR+LU+BWjVpfF6djBmvU9nKVjh2i0gk3Is0dGbecMiNpPXVFzNZpWyVSXK0eoIr9bEB6LlLgvmWa7ZzzjdPupqYCKuXd1EV03Lm8ElDKzmGA877dAI1l0ttHdqiux1ZKrr+/gCg6POIc+xfJPXFw2DHxCsk1+eqoa8q1Uee0myTns49HnM9qSgbOAwNU8c1D9Jy3TPTOuy/qWXBT2Dv/WtH36VUh9+eXBd2fXRnxfj6kwrvkT2Hfktsj/pXoAszOdAF00m0R37ePSIH1O2Q/gPSv3Q1QKRM1S7As3RDxl/8n5Ct5OOwruykcKP3foK/0ipAvNDjkD90Q8gv3IsV9IuSPruQbROEMqLkDtIQifUKklXNaGyK1EoDebBQdmQKQZ8FWMqBGJC0CWJcbxQekhgDdDEBjFv+3q6ntPgdNKNTGF6OTO2vWjiM1a+fSSgAaqweoau+jV9vP0zX7uXNidFZttNilpgBaSIMdkuNvL6UBpuK8F2Cy1QAqIcWNM5zOUQLS20fkvJGnR2nMfj7HP46JOp8p4ptEBwpoEv1NyffJ04Zbo1XhXD5A8K6Oa5zGZuD8CVAFfU7BvxH91aLnBX9x74L8gpbGYQ0qCFD5EUskh49ZFlHQVU7S63ynltPbMlKeX0pht1F85Aog9YJ9xZDyzSNE0nKF6IDTiv0BupaObrDvWFf8uEaiLv3j1q7LqwGnBlMMQBUAmkAUVey/3Spb+w01DqlVUwCV7bf0UR23y6kMmHfXART9UNfDgPahCsHx0FX7u0G1SzGaehwALc4VoEqWgBbSbJ/gW/1GHJFSQN+0LqAy0tpIYKOCFPfOKEUbPcqsOQYqlJE8EH3NJA88KCNpY5C0Zrl5eVgKfdIzAOaCaiOSptBGVKIbxxA1uWO+P0A3Uuusnl8p9u5949YewWqGsw6gqv0cpLrnY/38t9fWu2HUFEDVvNsmpQGm4rxrN0Djzgd1xfGAEHU8cIXh2ihFaMrxuQV0wTS4NHqwQ8S1ok/Ut1pRMxHz21pAo0h1xcCGbYJ/wzCkwFn9n3M91I/Pj+g5XaJKHg2kV5A82igytUsC0SlIcd+pxN+LBzRgPQZIb0IEa1SkqK9cA8rSrN1Gpm09d8Rtv6kFVAGglQA0bhsQVGlAT8M1o2wBFdw3tVMdt62qdt4DKO+sBVR2DtdjzgdQx4jHDddG62ADKnhXDdP86/SI/5vdANWQ2oZ8hfPX0JqsnynmGtBiEtqh77k6RTt4IELpJhLOMIpM1VWE6HiAOZMHMhjproJ0d0SYKOu+QHMAGqZux8WsPQsr6wGaAqAJe//qsO283aJbtoCGbTderDpu3RrLwPkToAnnSETUEd9F6L6OhmujdTAB5bRV9K1+Kx4oBJSrawEV/YUAtgDRc/11NZ7ZKdeABkk6H/1OrYp+1AWKvTGbZpszAzYkQNoacM0AXD8ag+yrAe3jPK7XcGmUmgNQlmrp+QwDqtp71wIas/cDoAN2Stb+Iwy3jLIFVLTfeGvSeTtgvH03QKucD+mxvBHTm/Is7mACKrq+PjHiXbFRy6S3PwGqcd/TX1BYcdSGJg33zDWg6HPeIVDihyildKS6Dxi7TTWkNCBFevscImgGUqS9WwDbTUZxo9RsgFp7DEkAUK0OoKr9PH2L/UI9aRvIjbdW2QDK03KKeTc9zYDKdQBVnMN0zXn/Tskx/G7DNSsdTEBD7hW95Ez/c109QIsA6PolhZ2bNodtjgG1lJP6bJK+18MUry6myB+M/ab2pSBRC0D6BCBL8DulVUQreZ9RvF81F6CyrccF3AetC6gCQLcD0CrbwBfhUtt4swE0RtcGFPvNc9IAsy6g8Uz/c3il6Bixz4HnDemgprjeZRcixU3KmX5nDaACYJX9G7AseFlv4uicXALKb6sIFH+9mvTM62JFJDbp73xEivueAG22DkDRL42gP3qSUbRfNVsEtff8rWbrtQegWwFoyjZwRt3HH9kAGqWhR2mOW1ZUAkzR+bd6gI6IKa77zjVcs9LBBFTyrPgf0beqUs48XqkBFKkt90F3Rn2FDxpuWSuXgM6lYqdAyTeqaCf6n4k0v1pmFJnan9D3vBpp7iaOoAC0CFG00YOVmwtQxX7mOTxQoT6g2wBo2nbhy3X7idkBegsAvXV1fUATzvsZUC3iuq+v4ZqVDiagEffSPzQEaMT/3W799WyU2wiq54mURgStAbTUjKCNk0w0FIBJ3Afl4YAA9El+I8Yo3q+aL4L26hfbC6Cc4qZtA18w3DLKNoIqjltXMaDSboAO5z5oLHoYRtBQA4BKmeF+BeMNt6yVS0DHkG4NkvZyJf2ghyhWZQK6H/G7o2miGwCXzI9aEDX5Je//ixEdZ7g0Ss3YB700vgeg/fQt9oF6wnbBU4ZbRtn2QeW8m+dxH1Sq1wfVnMNTUef9FxmuWelg90El3+pE/T6o6ucRROvf4zG6hmtWyvFNIiql8Ej0P3dGKPFDkMS/GbtN1RcipEMluhfRMvUDNgEYD1iYiX1Z345vthTX2v2hVL3HLHH7+XrMPuDHqLX/XYZbRtkAyn1X0XbzU/Xv4qrOYbDhP0Sdw5o0cPtgAiraV/QSfd8oamDPu7hRf+FKpU2hz3DNSrkGtJxCF4UplkxnnoPGZ+0a5G+qjlYTeRAlRwGqSoYTUXMHIJsWbeL8Rc0BaJBOdGnWHgurAGj9gQpJe/+0aBuw2wvK2QDKkvNuuSUBOOs+B5WN56Ba3sgn4dIoMOrqYAK60bmovehducdz0Jo3WtZrFd5vLjBcs1KuAS2m0ElBUr9L16S5a3jbKDLF2kjkTxBNBZSZGQARQXkGwPEKUZO+YVnNASjPS5Sw9Uwm6wFaae+vx239N4g0oLPhmlG2gIq2Gy9RHLdt1zJw1gDKAxVSmXG4968S3CN382+MDiagq2m1B33QN+P+3UcSRTjNrXkW+iLPS2S4N1q5BpQftQRJeo3nHQqR9mMFKXcaRaaKiQIMJ6DcyZETyy0cSbH/gGajzzWgGp3qT1i7v7+V+5+wXYDyYHkeiyvbzp+p05l5hntG2QIq0Z/bq47b1lbVG4vLL2yrzhE7ZPvIBl8Ob0gCTWt3sABlyd5v7+EUt/5YXMm/Efu+U4L+gqxvyuQaUFY5qUPKSd6mUJVeSuKKDVTRrJPaHRbiOXLRx5yOyPkj3xDCMgVYR6EvultDb4r2B2ghtWl0dA5Stxaq5fSJSVv3HQnbmXu8bqbaf1slU7893mPNFlB+cI8091kGVK4DKL/NkuQo6nxgXcg+qpfh3iiV0dNHA9CcvQ+aLaCCe3lvwbdKUfnl7DqA8utm/C5oJLDxCzGwMavPVO4Tbs01oDwRGACdy++DVpC6A5COaepNrF+EACYPjP83v2Jm3BBSkdLevogo65Rnb9oPoN8sQn/ScG1Q/LqbnNfxDM3WZWbMdsb2ZAMvbKvWc9/Z29xE2QLKEmw399ccd8aSGTB/AlTJvA86ShedDy2Luh46x3DfpxR6zhfJm3KD6HomrnqePyiAhmmpW/Cuejnh34CIufv7oAJSX54wTPBv+jbs/+6voq+4jXHYPlXhC98o5hhQVgmJF1eQFuMZFQCpAmAvNYqOLAHEkwFn5tUyI62NACh+s6HR//j9qSFAK2sADWrU4lqFWvaV6OgOFXRCW4VOPCYIi1G741Q6sYdmO+lyzdJpnGbttDZh66onbd0AZvcMoLsiaGXmDu45ZQnqc55x2t3UFEDDdJVbcdz+70rnMERRTnV3vbB9f2bSsLhrtB51jlofc4+5W8gbc0apd8yvIv4JrYtbjQmk8ie2zGw7JnQU3VP/KLqfmiW6pikSTxyWgzmJmgIoq9S9olfU921RDGltXUB5RgVEUETSMsC7KSUEit8PBzbdHvGWXrDJV9BpY+uNxwY9wWMKYRs8FW2D+cH2FfkVPUP+yDORfAVQKjkFlPui6H9OlSi9s2ZyanklImlW0f2wF9LaLgDyM57Rz0hrSwFTTqY5qauGAOVJw2KW/B/jlhZpzdI6mLIc9WXK0nZuynLsf1OW42HtP41Z2heq1lOSMWunnWlbZz22l0nD0va+gLPvZtXat8HHH00BlBXNu7mn7LxjA89JVBdQnpNIcj0ESB/VFdcj2yTnYwWqc+yHsnPs2xHX2JdF94T/qK7JH6iuKcsAaFIFmJr7n/rBBpQV8a0ZLPkKYjF/0W6A7po0jOclkgNBXQyUbo34y6IRf3Cl5BfmR32R/2bML80T8+Ul4fxoUTgQrWyuScPWkdAO0fNdmdK6mHm7Rf06SHIfo/iXLZ45AZFzMc+aYKS1xYimFxvFOdV+ANXTlpaZias3W36lb7a2hbWDnQDroFdZT9JT1o56fC/TbsYAKE+7GbOfvVmy9X68/iwKddVUQFmC9c4/qc57Y2mktvzCdv1Z/VRjVr8kT1oNU9w8efUkPemeqifcT2cmrpZhqvs5AMpwHlxA+W5t1LNulOhbn4770ffM9El/ApSN58UVA+UANaxrAVGPBSRdDcgwBabpKiBU8jWkts03qx+rhKQu5SR9JVNVZupNRNJvsW9IIem/3PdEAWYfALOUh+0Z05oUwJoFTta+AN3bxNUx63GwPSeuVgAo+qB6HCluGnCmbWcC3F4lqr3XPWHqvc8XyRsCNNkIQHnGdynv7r9ojvtK084HamZUQIobrTcvruT6O2wsYBwPECfWTlytuJ/S44ieEde0AtH17GdyBs6fAE1kCahwgICyJPrEK/jW3Br1rV8jId1VM7P58YTVSH0zkCK6AtK6E1eHA6Fa44mraywCYzijMInB1KX8ZGZZ4hevN053QEJqe2Y5KQv5HVFOdxFV5TKSJxVTpIfehN+3OaSFtHZADNkDP+NkOBNEyxE5mzT4u7HaF6BxAFplTFwdA6CxOoDGAKgGQGMANGXthGjZBVbTB41Zu0Xjlh4zFPsZjRoXC4Bbpe2Xf6rn/a+eBpyVeUP0Ssc1+veOG3TVce26iGvI8YZrg4ra7rpIzrtvjuIYsSXlejgzs7xWM+0mbAzs8QygknscoHwC0XOqnkLkBKA7oq6nPy9zPfnbhHv63du9/0LUnAGbBXtV3+57G+DNWhGmqXt8yVQ43xigeN5LbfZ+ose9c2HzAPQnOOZLPeZdMB0uB9RASzyreoZ8Bc8JvsIy9EF/UAGilh/MzIsrAkwhUAorhwXrABoGgDyrfEQX0fdU8hPwT+lKi6QuA04Z6wBUKffJlxmnOWCVU+TUMpL+BTi3xmkbz7aAaKqsKyPlsQqKnhOi0H5nIDzkhch5Cb+RwmAag94/BZzdjOJmU0OAxjI3iQKbK6llUZxab65GiluNFLcKKW4VUtwqpLjVSHHjADRh7SRXWzsXxq1dFiQsXSfJdPrAQurc6Mczq+nM/Crblc9/bx9cmLL/cW3aPmRt2jF07WbHdYUJx3VvBj2DjzFc96kKuretaL//b4ii7yddo79TXA8nE67HACunuONhE5HaTkIUnfgDAC2PuZ9cJLqmjq5wPtOBj4+7Xhiy1fNKQdwzY13cO2tt3Pvq2mrP69+p3tdeLaZpezxvDtvf+k3c88HitGfu+rh3Dvznro155q+r9i0qTPk+49fEDjiCLKWl7qB7de+Ib8OjEX/R+0qgdJ0aCJZF/aXbVERJDdFRhSmIkApSWAVQcoqLfqgeCchJOT9epAZSBZGAujySL78mBGKTwgF16AZ/pLVxipyoABAicg7jEUaC8VMQIVJ55oUQ+qZvV5AysoTE6zaScH6QIt2LKJbVmPGDJp3IDhivriIq48i5BYYoOlclynpenaaoIUCragAt1Ch/gEatb6ukNlMqLW1hx02utBwP6zC52nLyFIVOelykU69K0am9ItTl+KbMMMgD/7fSoF8n867omci7olsi7+qMRfOu7qk6ruuo0y1ZPe8V6a42mn1EL8k56gbV/ejkmHvslJh7PJbjJyfcT0yRXZNGRZz/GCg5n2qPP3ctRJX04lHVnle6K56Z3XaZ6pnVUwm8dvLe0jVORePeD7tEPB/0UDwfw39+xlTPRz1j7k9z3gCLqbiN4FnfTfCWDgh5N90XDZRPVQPRyXJAmCwFpFpTWqhTAOiEcL70V6Vl/JxofrJn0BftpLXWmvSzio2XbgGkZwDGcYim64Kk7IzRZl2D8SyAiKqbwxSrECldiIj7mHHQoa0wUas00UJ+2ZojJ6Lo+yLRiUZxs6shQI3noKsRCTMdflyfrQFrxn/4gYsH19fY7Izt7VfKDlfxAIG922xeNmkWhlyIr4F//5N/6h5p7vuwoECJSp7omgc48EvfKPsPPA/ptpMRDzhAejuokmgN4HwP0bRRP9mXK+0H0Ca/zWLKFGsDbWhdQlL/IGnXlJM4upQiz5aSPBOA3gCQD31Adwmg9AKgJxibP5tMQE39XGIggxR08TSjSNcPaAz5ESMTUFOmDmGZgJoydQjrlw5oGVE+PqP5JWPq8NQvHVB8vltjRDkZNWPK1M+uXYBuBaBxABoHoCkAuhOAahb/hsMd0DTR81VES/lxlrHLlKnDR4gup6WIBB2AbgWgmwFo3OLZvs3iD8coMEdq5O+DHqiWErn5uaqxecDi1JZn2OfoCUC34UuoUQ/GVxPlSUTtZaJf49g9fmy4KeLPdaAzX+xLXD9PXo7lQXv2aaqZxDMBJoimJMnyrxjlTYU9ESfPTUny9JTI2eFAfnu0seJhjoh0EwHV0cauAxbqvBifbRhPpgY451USpfhFBKN4r0J5X/i9gr9HEeAsxXFzkWH8wShukhhM1DEc19JsPxOPL6Br8Pcbh+vN+icKTR3iYgD525cjh7HrZxfDuZWoMISolauZIgDZdai3BKCdBbsQ69uw752GojQad3tkEt9iGYLfCzjmBWy/A2ivNlxqVUhINfZSD0ewufUiJafWgHMF6nvZ2LWbeJgjjtvr61nYb9/X/wXllleIXJuJZgDStQrRbmOWUb7XY/lvbHwGM+Ka2r8Az2NoYBoizasAYgYAGYPG1p3nYgIkd8J+Z7hmGhei3JVo8DeifI/0G3X0MqA8rboGtvkMCbanAr4Elvcgqu4xIATnvxD1bgdME3mbGy+uwccN2di24Xz9cfwkXCOyDZqO67oF1oq/4LB9Pep/BmX/xr6pWA7iY3myN1zTEpSvxvJ29uPUWyRqg/pvwPZLRn2Tca39+Fw4/kzYg9j3MspewfJh+NfOhIjrPAq+f0LZc1yOz7kJ/ku5zsz0M0QXYP9TON+/sBzOKTsfh3rawe6B78uwGfi7HxkvWJs6MKGxPILGshUNahka3hw0oiAa+3eAZSj2z8e+VfDJvLLE45TR6IpQ/iZgrX1HE/uOh/8E+PK0MF8yBPAZzzNSoI7rcDz3KSvhtwMN/GuU3Vg3fYfPKbAS7N+AOi4FXLVv43CkQt03oTyK4wtQz1z4lKPONPafh/UTcM4klhtw/MdYrkeZCt9bcB0u+H+K9QTsC9gM+P4Gfq/Bj30WwT6HbUH9szliYvkyrpFnbfwSPp/weeG/DNaevwywj38XNobyJXwszhWDfcGfGWWXwb8Cy69Q9gH8RKy/y31yrF+Jeitx/vVY/wjHX2h8RFOmGhai19gtABKN7zdoNBxxBnDDQkN7C43rLpQnsJ35VW6sD+VtRJ8/Zg6GdhK1RsN7A/t3vaq3A/XcVYH+NfavYcP2QDTYKAOLdJp/KiMNu3dXhGThXH/AvmU4rwpbDP+buZy/FFBHMY5dCCA7ckSG76Ow7YhWA3G+k3HNaWz/maMulv1wvWEGxIigi3H+N1F2DHxbYfsW+OyAzwiOevyL6dj/Kc49h/usONfbiIrrEPm6GmD9FX8fhnAIjr0Ufklc33j4tdlIdCyu6zXsW1qC68Bx78G+QpbQCT6tcd7RKNewfRF8BuOzC6jjcnQnWuKLZ4+X0E2Z2kNoOOPQANehcdbOnICGNR8NqwyN/HQ0tK/QoN9BI/Ogsb7J22hktY9/0HAvgm81TMdxOi/hV8qNFMddhvJK7P8Sx6SxP+PDkKJM4H6vUU1GnA7C/1bYUlxXFfzvA0T9GCgcN8xw45tr9+DatqDOCwDeySiLwyczux2Obcnng81nSODzBfz5N1Ezgt8klO3k6+Nt7rfiPB/hfB8zoDjmLUC2nH9Fnctx/Kn44uGofCeOy/wWLOqofeMJf7vMoySB6GwcuwLlxbi2WfCZhfWFqIsj/VAAfRV8y3G9TfqBKVNHqAxA1yIy7XqH0oKGtQQNshiNLB92FxpXBRrqSDS2jWh89xt+GaH8POxPMnRowPw7NTq2GcApqKcF6p/Pczvh+NpynogN6yVo1HudToUfs+Cc/IbRKqxfgWvZjLruM4r5C+Su+oCi/Eouw3FHYT/3O/nu8VFY8nrtTSL4TcD2ToCf6VdyWov6P6gD6JtYX8kRl8vh2xnXW4BruQP1jkWdSSxP5TIWPut0+C8D0D2wvgT18wRzj+G4MbjGv2N5L9Jf/uK5Bn/nIMrONw41ZWr/QuOaiIbDfcfzAVl7bljYx88ueV6fTFTDeiHKtqIBrkND2+03QdYSedF4J/MxPCMFw8mwonHGEDmGoEG/hXQu8wtwOE8GTiwFHHMt9y+5Dk5jAcYNiL6/wfFtcQ3cXwvjXF/gi6Mr1jkyrUOdfXHcCVh/Ff4M+UCc4xTs3wzfwVwXzvMr7FuJfZ/jM/l5Cd8C1Nsd/seh7EYc/z3sGVgH7OsNnzKcYz4Dinre5c8Jv8ys7Sjris9Viv138I0q1M8Tl7+J8o6wnjhuJWwVp7tYPsvlqPdm+JwI64b1KzilxTVcj7+LhGsawPWaMtUooUHdgwYowBYAno+xzTdr/s0NzHDhqPM4+pp8w+eFvT2bRcMOoCHzXdXFaNwR1FHJMKIx8k2SGAOLfQk04DLU9QZ8d/sBJwYNPmtwDV/D5mG9AL7fwDfT10X5H3FMMVLNpaj/Xez/EtdSBrDPg297lJXgXJlnpkhdOWrOwfZ7fK1Y3oFjKhDFF+P6pqFf2RH+0/BlUIpzzcG+D3GNm1D3DE53cZ0vYX3erufCOMdp2F6C67mRH8vg3BO5PuzjG2jvYv9ybH+0BtkCAO6C6+LrX4+/5Qewhdh+D4AyvFfgmFVmimsqK3Fqi8ZzHhrmQBg/7jiX70gaxZnnjmiIY2ApjiDG7r0KMByLBtkHAAyFPYntV9AgZ2J9LI6/FI27O/btMXwRkLTEec9BQ/8frA9BHb/nCGUUsyyo43SU882W/ljvCr+z+Di+2YI0uA+DyY6csuKc3dift420tTeguQjgnmXsCxjn+x2Xoc7TAU8nBhr7O2F/9103sLjvDZB7AuhjeRt/Lzfq7svXwteA405BeTdcR+a5J0de1NGP/5Z8TlxLd5RxvW04Q8DfIZ/9TJk6YKHhX4hG/T7AErB8kR9bGEX71a4H8my7UllTpkzlUIh2HK34ud+9u/pkpkyZOkSEyJcZCG5smjJlypQpU6ZMmTJlypQpU6ZMmTJlypQpU6ZMmTJlypQpU6ZMmTJlypQpU6ZMmTJlypQpU6ZM/VJF9P/4VLlQmJjGNAAAAABJRU5ErkJggg==&quot; style=&quot;font-size: 10px;&quot;&gt;" style="text;html=1;strokeColor=none;fillColor=none;align=center;verticalAlign=middle;whiteSpace=wrap;rounded=0;fontSize=10;" parent="0QJzmTSBUrrNXlWIrxS7-156" vertex="1">
          <mxGeometry x="112.98529411764702" y="41" width="11.076989619377162" height="10" as="geometry" />
        </mxCell>
        <mxCell id="0QJzmTSBUrrNXlWIrxS7-162" value="" style="group" parent="1" vertex="1" connectable="0">
          <mxGeometry x="-270" y="-2040" width="680" height="368" as="geometry" />
        </mxCell>
        <mxCell id="0QJzmTSBUrrNXlWIrxS7-163" value="Transacciones" style="rounded=0;whiteSpace=wrap;html=1;fillColor=#bac8d3;strokeColor=#23445d;fontSize=14;fontStyle=1;align=center;container=0;" parent="0QJzmTSBUrrNXlWIrxS7-162" vertex="1">
          <mxGeometry width="680" height="39.54" as="geometry" />
        </mxCell>
        <mxCell id="0QJzmTSBUrrNXlWIrxS7-164" value="&lt;div style=&quot;font-size: 13px;&quot;&gt;&lt;br&gt;&lt;/div&gt;" style="text;html=1;strokeColor=#000000;fillColor=none;align=left;verticalAlign=top;whiteSpace=wrap;rounded=0;fontSize=12;container=0;" parent="0QJzmTSBUrrNXlWIrxS7-162" vertex="1">
          <mxGeometry y="39.539999999999964" width="680" height="328.46" as="geometry" />
        </mxCell>
        <mxCell id="0QJzmTSBUrrNXlWIrxS7-165" value="" style="group" parent="0QJzmTSBUrrNXlWIrxS7-162" vertex="1" connectable="0">
          <mxGeometry x="35.63" y="70" width="564.37" height="230" as="geometry" />
        </mxCell>
        <mxCell id="0QJzmTSBUrrNXlWIrxS7-166" value="Transacción Altair 390: LMM8" style="rounded=0;whiteSpace=wrap;html=1;fillColor=#bac8d3;strokeColor=#23445d;fontSize=14;fontStyle=1;verticalAlign=top;container=0;" parent="0QJzmTSBUrrNXlWIrxS7-165" vertex="1">
          <mxGeometry y="2" width="550" height="40.72" as="geometry" />
        </mxCell>
        <mxCell id="0QJzmTSBUrrNXlWIrxS7-167" value="&lt;div style=&quot;&quot;&gt;&lt;b style=&quot;&quot;&gt;&lt;font style=&quot;font-size: 12px;&quot;&gt;Campo&lt;span style=&quot;white-space: pre;&quot;&gt;&#x9;&lt;/span&gt;&lt;span style=&quot;white-space: pre;&quot;&gt;&#x9;&lt;span style=&quot;white-space: pre;&quot;&gt;&lt;span style=&quot;white-space: pre;&quot;&gt; &lt;/span&gt; &lt;/span&gt;  Tipo&lt;span style=&quot;white-space: pre;&quot;&gt;&#x9;&lt;/span&gt;&lt;span style=&quot;white-space: pre;&quot;&gt;&#x9;&lt;/span&gt;&lt;/span&gt;Longitud&lt;span style=&quot;white-space: pre;&quot;&gt;&#x9;&lt;/span&gt;&lt;span style=&quot;white-space: pre;&quot;&gt;&#x9;&lt;span style=&quot;white-space: pre;&quot;&gt;&#x9;&lt;/span&gt;U&lt;/span&gt;SO&lt;span style=&quot;white-space: pre;&quot;&gt;&#x9;&lt;/span&gt;&lt;span style=&quot;white-space: pre;&quot;&gt;&#x9;&lt;/span&gt;Descripción&lt;/font&gt;&lt;/b&gt;&lt;/div&gt;&lt;div style=&quot;&quot;&gt;&lt;b style=&quot;&quot;&gt;&lt;font style=&quot;font-size: 12px;&quot;&gt;&lt;br&gt;&lt;/font&gt;&lt;/b&gt;&lt;/div&gt;&lt;div style=&quot;&quot;&gt;&lt;font style=&quot;&quot;&gt;&lt;span style=&quot;font-size: 12px; -webkit-tap-highlight-color: transparent; color: rgb(60, 64, 67); font-family: Roboto, RobotoDraft, Helvetica, Arial, sans-serif; background-color: rgb(245, 245, 245);&quot; class=&quot;jCAhz&quot;&gt;&lt;span style=&quot;-webkit-tap-highlight-color: transparent;&quot; class=&quot;ryNqvb&quot;&gt;&lt;b&gt;&lt;u&gt;Entrada&lt;/u&gt;&lt;/b&gt;&lt;br&gt;&lt;/span&gt;&lt;/span&gt;&lt;div style=&quot;&quot;&gt;&lt;div style=&quot;&quot;&gt;&lt;div&gt;&lt;div&gt;- PAN&lt;span style=&quot;white-space: pre;&quot;&gt;&#x9;&lt;/span&gt;&lt;span style=&quot;white-space: pre;&quot;&gt;&#x9;&lt;span style=&quot;white-space: pre;&quot;&gt;&lt;span style=&quot;white-space: pre;&quot;&gt;&#x9;&lt;/span&gt;&lt;/span&gt;&lt;/span&gt;R&lt;span style=&quot;white-space: pre;&quot;&gt;&#x9;&lt;/span&gt;&lt;span style=&quot;white-space: pre;&quot;&gt;&#x9;&lt;/span&gt;&lt;span style=&quot;white-space: pre;&quot;&gt;&lt;span style=&quot;white-space: pre;&quot;&gt;&lt;span style=&quot;white-space: pre;&quot;&gt;&#x9;&lt;/span&gt;&lt;/span&gt;&lt;/span&gt;22&lt;span style=&quot;white-space: pre;&quot;&gt;&#x9;&lt;/span&gt;&lt;span style=&quot;white-space: pre;&quot;&gt;&#x9;&lt;/span&gt;&lt;span style=&quot;white-space: pre;&quot;&gt;&#x9;Requerido&lt;span style=&quot;white-space: pre;&quot;&gt;&#x9;&lt;/span&gt;&lt;/span&gt;&lt;span style=&quot;background-color: initial;&quot;&gt;Número de Tarjeta&lt;/span&gt;&lt;/div&gt;&lt;/div&gt;&lt;div&gt;&lt;br&gt;&lt;/div&gt;&lt;div&gt;&lt;span style=&quot;-webkit-tap-highlight-color: transparent; color: rgb(60, 64, 67); font-family: Roboto, RobotoDraft, Helvetica, Arial, sans-serif; background-color: rgb(245, 245, 245);&quot; class=&quot;jCAhz&quot;&gt;&lt;span style=&quot;-webkit-tap-highlight-color: transparent;&quot; class=&quot;ryNqvb&quot;&gt;&lt;b&gt;&lt;u&gt;Salida&lt;/u&gt;&lt;/b&gt;&lt;br&gt;&lt;/span&gt;&lt;/span&gt;&lt;div&gt;&lt;div&gt;&lt;div&gt;- CLIENTE&lt;span style=&quot;white-space: pre;&quot;&gt;&#x9;&lt;span style=&quot;white-space: pre;&quot;&gt;&lt;span style=&quot;white-space: pre;&quot;&gt;&#x9;&lt;/span&gt;S&lt;/span&gt;&lt;/span&gt;&lt;span style=&quot;white-space: pre;&quot;&gt;&#x9;&lt;/span&gt;&lt;span style=&quot;white-space: pre;&quot;&gt;&#x9;&lt;/span&gt;&lt;span style=&quot;white-space: pre;&quot;&gt;&lt;span style=&quot;white-space: pre;&quot;&gt;&#x9;&lt;/span&gt;8&lt;/span&gt;&lt;span style=&quot;white-space: pre;&quot;&gt;&#x9;&lt;/span&gt;&lt;span style=&quot;white-space: pre;&quot;&gt;&#x9;&lt;/span&gt;&lt;span style=&quot;white-space: pre;&quot;&gt;&#x9;Salida&lt;span style=&quot;white-space: pre;&quot;&gt;&#x9;&lt;span style=&quot;white-space: pre;&quot;&gt;&#x9;&lt;/span&gt;&lt;/span&gt;&lt;/span&gt;&lt;span style=&quot;background-color: initial;&quot;&gt;Número de Cliente&lt;/span&gt;&lt;/div&gt;&lt;div&gt;-&amp;nbsp;CODPART&lt;span style=&quot;white-space: pre;&quot;&gt;&#x9;&lt;span style=&quot;white-space: pre;&quot;&gt;&#x9;&lt;/span&gt;&lt;span style=&quot;white-space: normal;&quot;&gt;S&lt;/span&gt;&lt;span style=&quot;white-space: pre;&quot;&gt;&#x9;&lt;/span&gt;&lt;span style=&quot;white-space: pre;&quot;&gt;&#x9;&lt;/span&gt;&lt;span style=&quot;white-space: pre;&quot;&gt;&lt;span style=&quot;white-space: pre;&quot;&gt;&#x9;&lt;/span&gt;&lt;/span&gt;&lt;/span&gt;2&lt;span style=&quot;white-space: pre;&quot;&gt;&#x9;&lt;/span&gt;&lt;span style=&quot;white-space: pre;&quot;&gt;&#x9;&lt;/span&gt;&lt;span style=&quot;white-space: pre;&quot;&gt;&#x9;Salida&lt;span style=&quot;white-space: pre;&quot;&gt;&#x9;&lt;/span&gt;&lt;span style=&quot;white-space: pre;&quot;&gt;&#x9;&lt;/span&gt;&lt;/span&gt;&lt;span style=&quot;background-color: initial;&quot;&gt;Código de Participación&lt;/span&gt;&lt;/div&gt;&lt;div&gt;- ORDPART&lt;span style=&quot;white-space: pre;&quot;&gt;&#x9;&lt;span style=&quot;white-space: pre;&quot;&gt;&#x9;&lt;/span&gt;&lt;span style=&quot;white-space: normal;&quot;&gt;S&lt;/span&gt;&lt;span style=&quot;white-space: pre;&quot;&gt;&#x9;&lt;/span&gt;&lt;span style=&quot;white-space: pre;&quot;&gt;&#x9;&lt;span style=&quot;white-space: pre;&quot;&gt;&#x9;&lt;/span&gt;&lt;/span&gt;&lt;/span&gt;3&lt;span style=&quot;white-space: pre;&quot;&gt;&#x9;&lt;/span&gt;&lt;span style=&quot;white-space: pre;&quot;&gt;&#x9;&lt;/span&gt;&lt;span style=&quot;white-space: pre;&quot;&gt;&#x9;Salida&lt;span style=&quot;white-space: pre;&quot;&gt;&#x9;&lt;/span&gt;&lt;span style=&quot;white-space: pre;&quot;&gt;&#x9;&lt;/span&gt;&lt;/span&gt;&lt;span style=&quot;background-color: initial;&quot;&gt;Orden de participación&lt;/span&gt;&lt;/div&gt;&lt;/div&gt;&lt;div&gt;&lt;span style=&quot;background-color: initial;&quot;&gt;-&amp;nbsp;&lt;/span&gt;&lt;span style=&quot;background-color: initial;&quot;&gt;CODENT&lt;span style=&quot;white-space: pre;&quot;&gt;&#x9;&lt;/span&gt;&lt;span style=&quot;white-space: pre;&quot;&gt;&#x9;&lt;/span&gt;S&lt;span style=&quot;white-space: pre;&quot;&gt;&#x9;&lt;/span&gt;&lt;span style=&quot;white-space: pre;&quot;&gt;&#x9;&lt;/span&gt;&lt;span style=&quot;white-space: pre;&quot;&gt;&#x9;&lt;/span&gt;4&lt;span style=&quot;white-space: pre;&quot;&gt;&#x9;&lt;/span&gt;&lt;span style=&quot;white-space: pre;&quot;&gt;&#x9;&lt;/span&gt;&lt;span style=&quot;white-space: pre;&quot;&gt;&#x9;&lt;/span&gt;Salida&lt;span style=&quot;white-space: pre;&quot;&gt;&#x9;&lt;/span&gt;&lt;span style=&quot;white-space: pre;&quot;&gt;&#x9;&lt;/span&gt;Código de entidad, siempre es 0014&lt;/span&gt;&lt;/div&gt;&lt;div&gt;-&amp;nbsp;CODOFI&lt;span style=&quot;white-space: pre;&quot;&gt;&#x9;&lt;/span&gt;&lt;span style=&quot;white-space: pre;&quot;&gt;&#x9;&lt;/span&gt;S&lt;span style=&quot;white-space: pre;&quot;&gt;&#x9;&lt;/span&gt;&lt;span style=&quot;white-space: pre;&quot;&gt;&#x9;&lt;/span&gt;&lt;span style=&quot;white-space: pre;&quot;&gt;&#x9;&lt;/span&gt;4&lt;span style=&quot;white-space: pre;&quot;&gt;&#x9;&lt;/span&gt;&lt;span style=&quot;white-space: pre;&quot;&gt;&#x9;&lt;/span&gt;&lt;span style=&quot;white-space: pre;&quot;&gt;&#x9;&lt;/span&gt;Salida&lt;span style=&quot;white-space: pre;&quot;&gt;&#x9;&lt;/span&gt;&lt;span style=&quot;white-space: pre;&quot;&gt;&#x9;&lt;/span&gt;Sucursal cuenta&lt;/div&gt;&lt;/div&gt;&lt;/div&gt;&lt;div&gt;-&amp;nbsp;CUENTA&lt;span style=&quot;white-space: pre;&quot;&gt;&#x9;&lt;/span&gt;&lt;span style=&quot;white-space: pre;&quot;&gt;&#x9;&lt;/span&gt;S&lt;span style=&quot;white-space: pre;&quot;&gt;&#x9;&lt;/span&gt;&lt;span style=&quot;white-space: pre;&quot;&gt;&#x9;&lt;/span&gt;&lt;span style=&quot;white-space: pre;&quot;&gt;&#x9;&lt;/span&gt;12&lt;span style=&quot;white-space: pre;&quot;&gt;&#x9;&lt;/span&gt;&lt;span style=&quot;white-space: pre;&quot;&gt;&#x9;&lt;/span&gt;&lt;span style=&quot;white-space: pre;&quot;&gt;&#x9;&lt;/span&gt;Salida&lt;span style=&quot;white-space: pre;&quot;&gt;&#x9;&lt;/span&gt;&lt;span style=&quot;white-space: pre;&quot;&gt;&#x9;&lt;/span&gt;Cuenta&lt;/div&gt;&lt;/div&gt;&lt;/div&gt;&lt;/font&gt;&lt;/div&gt;" style="text;html=1;strokeColor=#000000;fillColor=none;align=left;verticalAlign=top;whiteSpace=wrap;rounded=0;fontSize=12;container=0;" parent="0QJzmTSBUrrNXlWIrxS7-165" vertex="1">
          <mxGeometry y="40.72" width="550" height="189.28" as="geometry" />
        </mxCell>
        <mxCell id="0QJzmTSBUrrNXlWIrxS7-174" value="" style="group" parent="1" vertex="1" connectable="0">
          <mxGeometry x="-271" y="-1643" width="681" height="793" as="geometry" />
        </mxCell>
        <mxCell id="0QJzmTSBUrrNXlWIrxS7-175" value="&lt;div style=&quot;font-size: 13px;&quot;&gt;&lt;br&gt;&lt;/div&gt;" style="text;html=1;strokeColor=#000000;fillColor=none;align=left;verticalAlign=top;whiteSpace=wrap;rounded=0;fontSize=12;" parent="0QJzmTSBUrrNXlWIrxS7-174" vertex="1">
          <mxGeometry x="1.2314647377938517" y="44.36815827873298" width="679.7685352622061" height="748.631841721267" as="geometry" />
        </mxCell>
        <mxCell id="0QJzmTSBUrrNXlWIrxS7-263" value="API" style="rounded=0;whiteSpace=wrap;html=1;fillColor=#bac8d3;strokeColor=#23445d;fontSize=14;fontStyle=1;align=center;" parent="0QJzmTSBUrrNXlWIrxS7-174" vertex="1">
          <mxGeometry width="680.9999999999999" height="44.37258064516129" as="geometry" />
        </mxCell>
        <mxCell id="0QJzmTSBUrrNXlWIrxS7-274" value="&lt;div&gt;&amp;lt;&amp;lt;Componente&amp;gt;&amp;gt;&lt;/div&gt;Launcher Plard" style="shape=umlLifeline;perimeter=lifelinePerimeter;whiteSpace=wrap;html=1;container=1;dropTarget=0;collapsible=0;recursiveResize=0;outlineConnect=0;portConstraint=eastwest;newEdgeStyle={&quot;edgeStyle&quot;:&quot;elbowEdgeStyle&quot;,&quot;elbow&quot;:&quot;vertical&quot;,&quot;curved&quot;:0,&quot;rounded&quot;:0};align=center;movable=1;resizable=1;rotatable=1;deletable=1;editable=1;locked=0;connectable=1;fontStyle=1" parent="1" vertex="1">
          <mxGeometry x="-199" y="-583.75" width="170" height="1903.75" as="geometry" />
        </mxCell>
        <mxCell id="0QJzmTSBUrrNXlWIrxS7-275" value="" style="html=1;points=[[0,0,0,0,5],[0,1,0,0,-5],[1,0,0,0,5],[1,1,0,0,-5]];perimeter=orthogonalPerimeter;outlineConnect=0;targetShapes=umlLifeline;portConstraint=eastwest;newEdgeStyle={&quot;curved&quot;:0,&quot;rounded&quot;:0};" parent="0QJzmTSBUrrNXlWIrxS7-274" vertex="1">
          <mxGeometry x="80" y="509" width="10" height="591" as="geometry" />
        </mxCell>
        <mxCell id="0QJzmTSBUrrNXlWIrxS7-278" value="&lt;div&gt;&amp;lt;&amp;lt;CaaS Integration Layer&amp;gt;&amp;gt;&lt;/div&gt;&lt;div&gt;&lt;span data-teams=&quot;true&quot;&gt;card-cash-deposit&lt;/span&gt;&lt;br&gt;&lt;/div&gt;&lt;div&gt;&lt;/div&gt;" style="shape=umlLifeline;perimeter=lifelinePerimeter;whiteSpace=wrap;html=1;container=1;dropTarget=0;collapsible=0;recursiveResize=0;outlineConnect=0;portConstraint=eastwest;newEdgeStyle={&quot;edgeStyle&quot;:&quot;elbowEdgeStyle&quot;,&quot;elbow&quot;:&quot;vertical&quot;,&quot;curved&quot;:0,&quot;rounded&quot;:0};align=center;movable=1;resizable=1;rotatable=1;deletable=1;editable=1;locked=0;connectable=1;fontStyle=1;" parent="1" vertex="1">
          <mxGeometry x="235" y="-583.75" width="170" height="1903.75" as="geometry" />
        </mxCell>
        <mxCell id="0QJzmTSBUrrNXlWIrxS7-279" value="" style="html=1;points=[[0,0,0,0,5],[0,1,0,0,-5],[1,0,0,0,5],[1,1,0,0,-5]];perimeter=orthogonalPerimeter;outlineConnect=0;targetShapes=umlLifeline;portConstraint=eastwest;newEdgeStyle={&quot;curved&quot;:0,&quot;rounded&quot;:0};" parent="0QJzmTSBUrrNXlWIrxS7-278" vertex="1">
          <mxGeometry x="80" y="610" width="10" height="350" as="geometry" />
        </mxCell>
        <mxCell id="0QJzmTSBUrrNXlWIrxS7-284" value="&lt;div&gt;&lt;span style=&quot;background-color: initial;&quot;&gt;&amp;lt;&amp;lt;Queque&amp;gt;&amp;gt;&lt;/span&gt;&lt;br&gt;&lt;/div&gt;&lt;font color=&quot;#000000&quot;&gt;MQ 390&lt;/font&gt;&lt;div&gt;&lt;/div&gt;&lt;div&gt;&lt;/div&gt;&lt;div&gt;&lt;/div&gt;" style="shape=umlLifeline;perimeter=lifelinePerimeter;whiteSpace=wrap;html=1;container=1;dropTarget=0;collapsible=0;recursiveResize=0;outlineConnect=0;portConstraint=eastwest;newEdgeStyle={&quot;edgeStyle&quot;:&quot;elbowEdgeStyle&quot;,&quot;elbow&quot;:&quot;vertical&quot;,&quot;curved&quot;:0,&quot;rounded&quot;:0};align=center;movable=1;resizable=1;rotatable=1;deletable=1;editable=1;locked=0;connectable=1;fontStyle=1;" parent="1" vertex="1">
          <mxGeometry x="707" y="-583.75" width="170" height="1903.75" as="geometry" />
        </mxCell>
        <mxCell id="0QJzmTSBUrrNXlWIrxS7-285" value="" style="html=1;points=[[0,0,0,0,5],[0,1,0,0,-5],[1,0,0,0,5],[1,1,0,0,-5]];perimeter=orthogonalPerimeter;outlineConnect=0;targetShapes=umlLifeline;portConstraint=eastwest;newEdgeStyle={&quot;curved&quot;:0,&quot;rounded&quot;:0};" parent="0QJzmTSBUrrNXlWIrxS7-284" vertex="1">
          <mxGeometry x="80" y="1300" width="10" height="360" as="geometry" />
        </mxCell>
        <mxCell id="0QJzmTSBUrrNXlWIrxS7-295" value="" style="html=1;verticalAlign=bottom;labelBackgroundColor=none;endArrow=block;endFill=1;endSize=6;align=left;rounded=0;" parent="1" edge="1">
          <mxGeometry x="-1" relative="1" as="geometry">
            <mxPoint x="-966" y="-347" as="sourcePoint" />
            <mxPoint x="-767.5" y="-347" as="targetPoint" />
            <mxPoint as="offset" />
          </mxGeometry>
        </mxCell>
        <mxCell id="0QJzmTSBUrrNXlWIrxS7-297" value="Ejecutivo ingresa número tarjeta débito para realizar depósito a cuenta corriente/personal&lt;br&gt;&lt;p style=&quot;margin-left: 20.6pt; text-indent: -0.25in; font-size: 10px;&quot; class=&quot;TableText&quot;&gt;&lt;i&gt;&lt;span style=&quot;&quot; lang=&quot;ES&quot;&gt;&lt;font style=&quot;font-size: 10px;&quot;&gt;&lt;/font&gt;&lt;/span&gt;&lt;/i&gt;&lt;/p&gt;" style="text;html=1;align=left;verticalAlign=top;whiteSpace=wrap;rounded=0;fontSize=9;" parent="1" vertex="1">
          <mxGeometry x="-752" y="-337" width="202" height="36" as="geometry" />
        </mxCell>
        <mxCell id="0QJzmTSBUrrNXlWIrxS7-298" value="" style="html=1;verticalAlign=bottom;labelBackgroundColor=none;endArrow=block;endFill=1;endSize=6;align=left;rounded=0;" parent="1" edge="1">
          <mxGeometry x="-1" relative="1" as="geometry">
            <mxPoint x="-758" y="-304" as="sourcePoint" />
            <mxPoint x="-550" y="-304" as="targetPoint" />
            <mxPoint as="offset" />
          </mxGeometry>
        </mxCell>
        <mxCell id="0QJzmTSBUrrNXlWIrxS7-300" value="" style="html=1;verticalAlign=bottom;labelBackgroundColor=none;endArrow=none;endFill=0;endSize=6;align=left;rounded=0;startArrow=block;startFill=1;dashed=1;" parent="1" edge="1">
          <mxGeometry x="-1" relative="1" as="geometry">
            <mxPoint x="-965" y="-272" as="sourcePoint" />
            <mxPoint x="-769" y="-272" as="targetPoint" />
            <mxPoint as="offset" />
          </mxGeometry>
        </mxCell>
        <mxCell id="0QJzmTSBUrrNXlWIrxS7-301" value="Ejecutivo pregunta como realizará el Depósito" style="text;html=1;align=left;verticalAlign=top;whiteSpace=wrap;rounded=0;fontSize=9;" parent="1" vertex="1">
          <mxGeometry x="-924.75" y="-304" width="156" height="36" as="geometry" />
        </mxCell>
        <mxCell id="0QJzmTSBUrrNXlWIrxS7-303" value="" style="html=1;verticalAlign=bottom;labelBackgroundColor=none;endArrow=block;endFill=1;endSize=6;align=left;rounded=0;" parent="1" edge="1">
          <mxGeometry x="-1" relative="1" as="geometry">
            <mxPoint x="-966" y="-214" as="sourcePoint" />
            <mxPoint x="-767.5" y="-214" as="targetPoint" />
            <mxPoint as="offset" />
          </mxGeometry>
        </mxCell>
        <mxCell id="0QJzmTSBUrrNXlWIrxS7-306" value="Ejecutivo ingresa número tarjeta débito para realizar depósito a cuenta corriente/personal&lt;br&gt;&lt;p style=&quot;margin-left: 20.6pt; text-indent: -0.25in; font-size: 10px;&quot; class=&quot;TableText&quot;&gt;&lt;i&gt;&lt;span style=&quot;&quot; lang=&quot;ES&quot;&gt;&lt;font style=&quot;font-size: 10px;&quot;&gt;&lt;/font&gt;&lt;/span&gt;&lt;/i&gt;&lt;/p&gt;" style="text;html=1;align=left;verticalAlign=top;whiteSpace=wrap;rounded=0;fontSize=9;" parent="1" vertex="1">
          <mxGeometry x="-752" y="-217" width="202" height="36" as="geometry" />
        </mxCell>
        <mxCell id="0QJzmTSBUrrNXlWIrxS7-307" value="" style="html=1;verticalAlign=bottom;labelBackgroundColor=none;endArrow=block;endFill=1;endSize=6;align=left;rounded=0;" parent="1" edge="1">
          <mxGeometry x="-1" relative="1" as="geometry">
            <mxPoint x="-758" y="-184" as="sourcePoint" />
            <mxPoint x="-550" y="-184" as="targetPoint" />
            <mxPoint as="offset" />
          </mxGeometry>
        </mxCell>
        <mxCell id="RO1CmDXr1QsEUB7Ie__f-7" value="" style="html=1;verticalAlign=bottom;labelBackgroundColor=none;endArrow=block;endFill=1;endSize=6;align=left;rounded=0;" parent="1" edge="1">
          <mxGeometry x="-1" relative="1" as="geometry">
            <mxPoint x="-320" y="-66.75" as="sourcePoint" />
            <mxPoint x="-119" y="-66.75" as="targetPoint" />
            <mxPoint as="offset" />
          </mxGeometry>
        </mxCell>
        <mxCell id="RO1CmDXr1QsEUB7Ie__f-10" value="" style="html=1;align=left;spacingLeft=2;endArrow=block;rounded=0;edgeStyle=orthogonalEdgeStyle;curved=0;rounded=0;" parent="1" edge="1">
          <mxGeometry x="-0.2922" y="20" relative="1" as="geometry">
            <mxPoint x="-109" y="-59.97999999999956" as="sourcePoint" />
            <Array as="points">
              <mxPoint x="-79" y="-59.91999999999962" />
              <mxPoint x="-79" y="-29.919999999999618" />
            </Array>
            <mxPoint x="-109" y="-29.919999999999618" as="targetPoint" />
            <mxPoint as="offset" />
          </mxGeometry>
        </mxCell>
        <mxCell id="RO1CmDXr1QsEUB7Ie__f-13" value="alt" style="shape=umlFrame;whiteSpace=wrap;html=1;pointerEvents=0;width=57;height=19;" parent="1" vertex="1">
          <mxGeometry x="-160" y="-20" width="1340" height="660" as="geometry" />
        </mxCell>
        <mxCell id="RO1CmDXr1QsEUB7Ie__f-15" value="" style="html=1;verticalAlign=bottom;labelBackgroundColor=none;endArrow=block;endFill=1;endSize=6;align=left;rounded=0;" parent="1" edge="1">
          <mxGeometry x="-1" relative="1" as="geometry">
            <mxPoint x="113" y="65" as="sourcePoint" />
            <mxPoint x="315" y="65" as="targetPoint" />
            <mxPoint as="offset" />
          </mxGeometry>
        </mxCell>
        <mxCell id="RO1CmDXr1QsEUB7Ie__f-16" value="Publica mensaje para recuperar cuenta del cliente Trx LMM8&lt;br&gt;&lt;p style=&quot;margin-left: 20.6pt; text-indent: -0.25in; font-size: 10px;&quot; class=&quot;TableText&quot;&gt;&lt;i&gt;&lt;span style=&quot;&quot; lang=&quot;ES&quot;&gt;&lt;font style=&quot;font-size: 10px;&quot;&gt;&lt;/font&gt;&lt;/span&gt;&lt;/i&gt;&lt;/p&gt;" style="text;html=1;align=left;verticalAlign=top;whiteSpace=wrap;rounded=0;fontSize=9;" parent="1" vertex="1">
          <mxGeometry x="124" y="34" width="148.5" height="36.82" as="geometry" />
        </mxCell>
        <mxCell id="RO1CmDXr1QsEUB7Ie__f-18" value="" style="html=1;verticalAlign=bottom;labelBackgroundColor=none;endArrow=block;endFill=1;endSize=6;align=left;rounded=0;" parent="1" edge="1">
          <mxGeometry x="-1" relative="1" as="geometry">
            <mxPoint x="325.75" y="80.82000000000005" as="sourcePoint" />
            <mxPoint x="548" y="80.82000000000016" as="targetPoint" />
            <mxPoint as="offset" />
          </mxGeometry>
        </mxCell>
        <mxCell id="RO1CmDXr1QsEUB7Ie__f-19" value="Solicita el device-id&lt;br&gt;&lt;p style=&quot;margin-left: 20.6pt; text-indent: -0.25in; font-size: 10px;&quot; class=&quot;TableText&quot;&gt;&lt;i&gt;&lt;span style=&quot;&quot; lang=&quot;ES&quot;&gt;&lt;font style=&quot;font-size: 10px;&quot;&gt;&lt;/font&gt;&lt;/span&gt;&lt;/i&gt;&lt;/p&gt;" style="text;html=1;align=left;verticalAlign=top;whiteSpace=wrap;rounded=0;fontSize=9;" parent="1" vertex="1">
          <mxGeometry x="336.25" y="52" width="144" height="26.68" as="geometry" />
        </mxCell>
        <mxCell id="RO1CmDXr1QsEUB7Ie__f-20" value="Devuelve el valor del device-id&lt;br&gt;&lt;p style=&quot;margin-left: 20.6pt; text-indent: -0.25in; font-size: 10px;&quot; class=&quot;TableText&quot;&gt;&lt;i&gt;&lt;span style=&quot;&quot; lang=&quot;ES&quot;&gt;&lt;font style=&quot;font-size: 10px;&quot;&gt;&lt;/font&gt;&lt;/span&gt;&lt;/i&gt;&lt;/p&gt;" style="text;html=1;align=left;verticalAlign=top;whiteSpace=wrap;rounded=0;fontSize=9;" parent="1" vertex="1">
          <mxGeometry x="335.75" y="99" width="144" height="26.68" as="geometry" />
        </mxCell>
        <mxCell id="RO1CmDXr1QsEUB7Ie__f-21" value="" style="html=1;verticalAlign=bottom;labelBackgroundColor=none;endArrow=none;endFill=0;endSize=6;align=left;rounded=0;startArrow=block;startFill=1;dashed=1;" parent="1" edge="1">
          <mxGeometry x="-1" relative="1" as="geometry">
            <mxPoint x="324.75" y="123" as="sourcePoint" />
            <mxPoint x="548" y="123" as="targetPoint" />
            <mxPoint as="offset" />
          </mxGeometry>
        </mxCell>
        <mxCell id="RO1CmDXr1QsEUB7Ie__f-24" value="Valida si requiere datos de otros aplicativos Core Bancario&lt;br&gt;&lt;p style=&quot;margin-left: 20.6pt; text-indent: -0.25in; font-size: 10px;&quot; class=&quot;TableText&quot;&gt;&lt;i&gt;&lt;span style=&quot;&quot; lang=&quot;ES&quot;&gt;&lt;font style=&quot;font-size: 10px;&quot;&gt;&lt;/font&gt;&lt;/span&gt;&lt;/i&gt;&lt;/p&gt;" style="text;html=1;align=left;verticalAlign=top;whiteSpace=wrap;rounded=0;fontSize=9;" parent="1" vertex="1">
          <mxGeometry x="360" y="146" width="140" height="36.82" as="geometry" />
        </mxCell>
        <mxCell id="RO1CmDXr1QsEUB7Ie__f-25" value="" style="html=1;align=left;spacingLeft=2;endArrow=block;rounded=0;edgeStyle=orthogonalEdgeStyle;curved=0;rounded=0;" parent="1" edge="1">
          <mxGeometry x="-0.2922" y="20" relative="1" as="geometry">
            <mxPoint x="325" y="150.02000000000044" as="sourcePoint" />
            <Array as="points">
              <mxPoint x="355" y="150.08000000000038" />
              <mxPoint x="355" y="180.08000000000038" />
            </Array>
            <mxPoint x="325" y="180.08000000000038" as="targetPoint" />
            <mxPoint as="offset" />
          </mxGeometry>
        </mxCell>
        <mxCell id="RO1CmDXr1QsEUB7Ie__f-26" value="" style="html=1;verticalAlign=bottom;labelBackgroundColor=none;endArrow=block;endFill=1;endSize=6;align=left;rounded=0;" parent="1" target="0QJzmTSBUrrNXlWIrxS7-281" edge="1">
          <mxGeometry x="-1" relative="1" as="geometry">
            <mxPoint x="325" y="226" as="sourcePoint" />
            <mxPoint x="527" y="226" as="targetPoint" />
            <mxPoint as="offset" />
          </mxGeometry>
        </mxCell>
        <mxCell id="RO1CmDXr1QsEUB7Ie__f-27" value="Ejecuta recuperación de cuenta del cliente, mediante la tarjeta de débito&lt;br&gt;&lt;p style=&quot;margin-left: 20.6pt; text-indent: -0.25in; font-size: 10px;&quot; class=&quot;TableText&quot;&gt;&lt;i&gt;&lt;span style=&quot;&quot; lang=&quot;ES&quot;&gt;&lt;font style=&quot;font-size: 10px;&quot;&gt;&lt;/font&gt;&lt;/span&gt;&lt;/i&gt;&lt;/p&gt;" style="text;html=1;align=left;verticalAlign=top;whiteSpace=wrap;rounded=0;fontSize=9;" parent="1" vertex="1">
          <mxGeometry x="336.25" y="194" width="148.5" height="36.82" as="geometry" />
        </mxCell>
        <mxCell id="RO1CmDXr1QsEUB7Ie__f-29" value="" style="html=1;align=left;spacingLeft=2;endArrow=block;rounded=0;edgeStyle=orthogonalEdgeStyle;curved=0;rounded=0;" parent="1" edge="1">
          <mxGeometry x="-0.2922" y="20" relative="1" as="geometry">
            <mxPoint x="558" y="232.02000000000044" as="sourcePoint" />
            <Array as="points">
              <mxPoint x="588" y="232.08000000000038" />
              <mxPoint x="588" y="262.0800000000004" />
            </Array>
            <mxPoint x="558" y="262.0800000000004" as="targetPoint" />
            <mxPoint as="offset" />
          </mxGeometry>
        </mxCell>
        <mxCell id="RO1CmDXr1QsEUB7Ie__f-30" value="" style="html=1;verticalAlign=bottom;labelBackgroundColor=none;endArrow=none;endFill=0;endSize=6;align=left;rounded=0;startArrow=block;startFill=1;dashed=1;" parent="1" edge="1">
          <mxGeometry x="-1" relative="1" as="geometry">
            <mxPoint x="325" y="282" as="sourcePoint" />
            <mxPoint x="548" y="282" as="targetPoint" />
            <mxPoint as="offset" />
          </mxGeometry>
        </mxCell>
        <mxCell id="RO1CmDXr1QsEUB7Ie__f-31" value="Notifica el número de cuenta del cliente para completar el depósito&lt;br&gt;&lt;p style=&quot;margin-left: 20.6pt; text-indent: -0.25in; font-size: 10px;&quot; class=&quot;TableText&quot;&gt;&lt;i&gt;&lt;span style=&quot;&quot; lang=&quot;ES&quot;&gt;&lt;font style=&quot;font-size: 10px;&quot;&gt;&lt;/font&gt;&lt;/span&gt;&lt;/i&gt;&lt;/p&gt;" style="text;html=1;align=left;verticalAlign=top;whiteSpace=wrap;rounded=0;fontSize=9;" parent="1" vertex="1">
          <mxGeometry x="336.25" y="249" width="148.5" height="36.82" as="geometry" />
        </mxCell>
        <mxCell id="RO1CmDXr1QsEUB7Ie__f-32" value="" style="html=1;verticalAlign=bottom;labelBackgroundColor=none;endArrow=none;endFill=0;endSize=6;align=left;rounded=0;startArrow=block;startFill=1;dashed=1;" parent="1" edge="1">
          <mxGeometry x="-1" relative="1" as="geometry">
            <mxPoint x="113" y="355.75" as="sourcePoint" />
            <mxPoint x="315" y="355.75" as="targetPoint" />
            <mxPoint as="offset" />
          </mxGeometry>
        </mxCell>
        <mxCell id="RO1CmDXr1QsEUB7Ie__f-33" value="" style="html=1;verticalAlign=bottom;labelBackgroundColor=none;endArrow=none;endFill=0;endSize=6;align=left;rounded=0;startArrow=block;startFill=1;dashed=1;" parent="1" edge="1">
          <mxGeometry x="-1" relative="1" as="geometry">
            <mxPoint x="-108.99999999999977" y="389.75" as="sourcePoint" />
            <mxPoint x="103" y="389.75" as="targetPoint" />
            <mxPoint as="offset" />
          </mxGeometry>
        </mxCell>
        <mxCell id="RO1CmDXr1QsEUB7Ie__f-34" value="Se envia número de cuenta del cliente para completar el depósito&lt;br&gt;&lt;p style=&quot;margin-left: 20.6pt; text-indent: -0.25in; font-size: 10px;&quot; class=&quot;TableText&quot;&gt;&lt;i&gt;&lt;span style=&quot;&quot; lang=&quot;ES&quot;&gt;&lt;font style=&quot;font-size: 10px;&quot;&gt;&lt;/font&gt;&lt;/span&gt;&lt;/i&gt;&lt;/p&gt;" style="text;html=1;align=left;verticalAlign=top;whiteSpace=wrap;rounded=0;fontSize=9;" parent="1" vertex="1">
          <mxGeometry x="124" y="320" width="148.5" height="36.82" as="geometry" />
        </mxCell>
        <mxCell id="RO1CmDXr1QsEUB7Ie__f-35" value="" style="html=1;align=left;spacingLeft=2;endArrow=block;rounded=0;edgeStyle=orthogonalEdgeStyle;curved=0;rounded=0;dashed=1;" parent="1" edge="1">
          <mxGeometry x="-0.2922" y="20" relative="1" as="geometry">
            <mxPoint x="326" y="312.02000000000044" as="sourcePoint" />
            <Array as="points">
              <mxPoint x="356" y="312.0800000000004" />
              <mxPoint x="356" y="342.0800000000004" />
            </Array>
            <mxPoint x="326" y="342.0800000000004" as="targetPoint" />
            <mxPoint as="offset" />
          </mxGeometry>
        </mxCell>
        <mxCell id="RO1CmDXr1QsEUB7Ie__f-37" value="Generar respuesta&amp;nbsp;&lt;div&gt;[API PLARD -&amp;nbsp;&lt;span style=&quot;background-color: initial;&quot;&gt;card-cash-deposit&lt;/span&gt;&lt;span style=&quot;background-color: initial;&quot;&gt;]&lt;/span&gt;&lt;/div&gt;&lt;div&gt;&lt;span style=&quot;background-color: initial;&quot;&gt;&lt;font color=&quot;#cc0000&quot;&gt;(Post) TBD&lt;/font&gt;&lt;/span&gt;&lt;/div&gt;&lt;div&gt;&lt;p style=&quot;margin-left: 20.6pt; text-indent: -0.25in; font-size: 10px;&quot; class=&quot;TableText&quot;&gt;&lt;i&gt;&lt;span style=&quot;&quot; lang=&quot;ES&quot;&gt;&lt;font style=&quot;font-size: 10px;&quot;&gt;&lt;/font&gt;&lt;/span&gt;&lt;/i&gt;&lt;/p&gt;&lt;/div&gt;" style="text;html=1;align=left;verticalAlign=top;whiteSpace=wrap;rounded=0;fontSize=9;" parent="1" vertex="1">
          <mxGeometry x="363" y="308" width="147" height="37" as="geometry" />
        </mxCell>
        <mxCell id="RO1CmDXr1QsEUB7Ie__f-38" value="Lee el mensaje de respuesta, con el número de cuenta del cliente para completar el depósito&lt;br&gt;&lt;p style=&quot;margin-left: 20.6pt; text-indent: -0.25in; font-size: 10px;&quot; class=&quot;TableText&quot;&gt;&lt;i&gt;&lt;span style=&quot;&quot; lang=&quot;ES&quot;&gt;&lt;font style=&quot;font-size: 10px;&quot;&gt;&lt;/font&gt;&lt;/span&gt;&lt;/i&gt;&lt;/p&gt;" style="text;html=1;align=left;verticalAlign=top;whiteSpace=wrap;rounded=0;fontSize=9;" parent="1" vertex="1">
          <mxGeometry x="-93" y="354" width="208" height="36.82" as="geometry" />
        </mxCell>
        <mxCell id="RO1CmDXr1QsEUB7Ie__f-39" value="Publica el mensaje de respuesta, con el número de cuenta del cliente para completar el depósito&lt;br&gt;&lt;p style=&quot;margin-left: 20.6pt; text-indent: -0.25in; font-size: 10px;&quot; class=&quot;TableText&quot;&gt;&lt;i&gt;&lt;span style=&quot;&quot; lang=&quot;ES&quot;&gt;&lt;font style=&quot;font-size: 10px;&quot;&gt;&lt;/font&gt;&lt;/span&gt;&lt;/i&gt;&lt;/p&gt;" style="text;html=1;align=left;verticalAlign=top;whiteSpace=wrap;rounded=0;fontSize=9;" parent="1" vertex="1">
          <mxGeometry x="-318" y="374" width="158" height="36.82" as="geometry" />
        </mxCell>
        <mxCell id="RO1CmDXr1QsEUB7Ie__f-40" value="" style="html=1;verticalAlign=bottom;labelBackgroundColor=none;endArrow=none;endFill=0;endSize=6;align=left;rounded=0;startArrow=block;startFill=1;dashed=1;" parent="1" edge="1">
          <mxGeometry x="-1" relative="1" as="geometry">
            <mxPoint x="-320" y="420" as="sourcePoint" />
            <mxPoint x="-119" y="420" as="targetPoint" />
            <mxPoint as="offset" />
          </mxGeometry>
        </mxCell>
        <mxCell id="RO1CmDXr1QsEUB7Ie__f-41" value="" style="html=1;verticalAlign=bottom;labelBackgroundColor=none;endArrow=none;endFill=0;endSize=6;align=left;rounded=0;startArrow=block;startFill=1;dashed=1;" parent="1" source="0QJzmTSBUrrNXlWIrxS7-267" edge="1">
          <mxGeometry x="-1" relative="1" as="geometry">
            <mxPoint x="-532" y="440" as="sourcePoint" />
            <mxPoint x="-331" y="440" as="targetPoint" />
            <mxPoint as="offset" />
          </mxGeometry>
        </mxCell>
        <mxCell id="RO1CmDXr1QsEUB7Ie__f-43" value="[ELSE]" style="text;html=1;align=left;verticalAlign=top;whiteSpace=wrap;rounded=0;fontSize=9;" parent="1" vertex="1">
          <mxGeometry x="-99.37" y="441" width="39.37" height="26.32" as="geometry" />
        </mxCell>
        <mxCell id="RO1CmDXr1QsEUB7Ie__f-44" value="Valida que NO es un dispositivo generado en PLARD&lt;br&gt;&lt;p style=&quot;margin-left: 20.6pt; text-indent: -0.25in; font-size: 10px;&quot; class=&quot;TableText&quot;&gt;&lt;i&gt;&lt;span style=&quot;&quot; lang=&quot;ES&quot;&gt;&lt;font style=&quot;font-size: 10px;&quot;&gt;&lt;/font&gt;&lt;/span&gt;&lt;/i&gt;&lt;/p&gt;" style="text;html=1;align=left;verticalAlign=top;whiteSpace=wrap;rounded=0;fontSize=9;" parent="1" vertex="1">
          <mxGeometry x="-87.12" y="467.32" width="170" height="36" as="geometry" />
        </mxCell>
        <mxCell id="RO1CmDXr1QsEUB7Ie__f-46" value="" style="html=1;verticalAlign=bottom;labelBackgroundColor=none;endArrow=block;endFill=1;endSize=6;align=left;rounded=0;" parent="1" target="0QJzmTSBUrrNXlWIrxS7-277" edge="1">
          <mxGeometry x="-1" relative="1" as="geometry">
            <mxPoint x="-109" y="39" as="sourcePoint" />
            <mxPoint x="93" y="39" as="targetPoint" />
            <mxPoint as="offset" />
          </mxGeometry>
        </mxCell>
        <mxCell id="RO1CmDXr1QsEUB7Ie__f-47" value="" style="html=1;verticalAlign=bottom;labelBackgroundColor=none;endArrow=block;endFill=1;endSize=6;align=left;rounded=0;" parent="1" edge="1">
          <mxGeometry x="-1" relative="1" as="geometry">
            <mxPoint x="-109" y="499" as="sourcePoint" />
            <mxPoint x="103" y="499" as="targetPoint" />
            <mxPoint as="offset" />
          </mxGeometry>
        </mxCell>
        <mxCell id="RO1CmDXr1QsEUB7Ie__f-48" value="" style="html=1;verticalAlign=bottom;labelBackgroundColor=none;endArrow=block;endFill=1;endSize=6;align=left;rounded=0;" parent="1" target="RO1CmDXr1QsEUB7Ie__f-101" edge="1">
          <mxGeometry x="-1" relative="1" as="geometry">
            <mxPoint x="113" y="514" as="sourcePoint" />
            <mxPoint x="990" y="515" as="targetPoint" />
            <mxPoint as="offset" />
          </mxGeometry>
        </mxCell>
        <mxCell id="RO1CmDXr1QsEUB7Ie__f-49" value="Publica mensaje para recuperar cuenta del cliente Trx LMM8&lt;br&gt;&lt;p style=&quot;margin-left: 20.6pt; text-indent: -0.25in; font-size: 10px;&quot; class=&quot;TableText&quot;&gt;&lt;i&gt;&lt;span style=&quot;&quot; lang=&quot;ES&quot;&gt;&lt;font style=&quot;font-size: 10px;&quot;&gt;&lt;/font&gt;&lt;/span&gt;&lt;/i&gt;&lt;/p&gt;" style="text;html=1;align=left;verticalAlign=top;whiteSpace=wrap;rounded=0;fontSize=9;" parent="1" vertex="1">
          <mxGeometry x="125" y="482" width="169" height="36.82" as="geometry" />
        </mxCell>
        <mxCell id="RO1CmDXr1QsEUB7Ie__f-51" value="" style="html=1;align=left;spacingLeft=2;endArrow=block;rounded=0;edgeStyle=orthogonalEdgeStyle;curved=0;rounded=0;" parent="1" edge="1">
          <mxGeometry x="-0.2922" y="20" relative="1" as="geometry">
            <mxPoint x="1010" y="527.0200000000004" as="sourcePoint" />
            <Array as="points">
              <mxPoint x="1040" y="527.0800000000004" />
              <mxPoint x="1040" y="557.0800000000004" />
            </Array>
            <mxPoint x="1010" y="557.0800000000004" as="targetPoint" />
            <mxPoint as="offset" />
          </mxGeometry>
        </mxCell>
        <mxCell id="RO1CmDXr1QsEUB7Ie__f-53" value="" style="html=1;verticalAlign=bottom;labelBackgroundColor=none;endArrow=none;endFill=0;endSize=6;align=left;rounded=0;startArrow=block;startFill=1;dashed=1;" parent="1" target="RO1CmDXr1QsEUB7Ie__f-100" edge="1">
          <mxGeometry x="-1" relative="1" as="geometry">
            <mxPoint x="113" y="579" as="sourcePoint" />
            <mxPoint x="780" y="580" as="targetPoint" />
            <mxPoint as="offset" />
          </mxGeometry>
        </mxCell>
        <mxCell id="RO1CmDXr1QsEUB7Ie__f-54" value="Mensaje de respuesta, con el número de cuenta del cliente para completar el depósito&lt;br&gt;&lt;p style=&quot;margin-left: 20.6pt; text-indent: -0.25in; font-size: 10px;&quot; class=&quot;TableText&quot;&gt;&lt;i&gt;&lt;span style=&quot;&quot; lang=&quot;ES&quot;&gt;&lt;font style=&quot;font-size: 10px;&quot;&gt;&lt;/font&gt;&lt;/span&gt;&lt;/i&gt;&lt;/p&gt;" style="text;html=1;align=left;verticalAlign=top;whiteSpace=wrap;rounded=0;fontSize=9;" parent="1" vertex="1">
          <mxGeometry x="125" y="547" width="185" height="36.82" as="geometry" />
        </mxCell>
        <mxCell id="RO1CmDXr1QsEUB7Ie__f-59" value="" style="html=1;verticalAlign=bottom;labelBackgroundColor=none;endArrow=none;endFill=0;endSize=6;align=left;rounded=0;startArrow=block;startFill=1;dashed=1;" parent="1" edge="1">
          <mxGeometry x="-1" relative="1" as="geometry">
            <mxPoint x="-540" y="592" as="sourcePoint" />
            <mxPoint x="103" y="592" as="targetPoint" />
            <mxPoint as="offset" />
          </mxGeometry>
        </mxCell>
        <mxCell id="RO1CmDXr1QsEUB7Ie__f-61" value="" style="html=1;verticalAlign=bottom;labelBackgroundColor=none;endArrow=block;endFill=1;endSize=6;align=left;rounded=0;" parent="1" edge="1">
          <mxGeometry x="-1" relative="1" as="geometry">
            <mxPoint x="-540" y="719" as="sourcePoint" />
            <mxPoint x="-330" y="719" as="targetPoint" />
            <mxPoint as="offset" />
          </mxGeometry>
        </mxCell>
        <mxCell id="RO1CmDXr1QsEUB7Ie__f-62" value="&lt;span style=&quot;text-align: center;&quot;&gt;&lt;font style=&quot;font-size: 9px;&quot;&gt;Sistema inicia el proceso de depósito a cuenta del Cliente&lt;/font&gt;&lt;/span&gt;&lt;br&gt;&lt;p style=&quot;margin-left: 20.6pt; text-indent: -0.25in; font-size: 10px;&quot; class=&quot;TableText&quot;&gt;&lt;i&gt;&lt;span style=&quot;&quot; lang=&quot;ES&quot;&gt;&lt;font style=&quot;font-size: 10px;&quot;&gt;&lt;/font&gt;&lt;/span&gt;&lt;/i&gt;&lt;/p&gt;" style="text;html=1;align=left;verticalAlign=top;whiteSpace=wrap;rounded=0;fontSize=9;" parent="1" vertex="1">
          <mxGeometry x="-529" y="688" width="169" height="27" as="geometry" />
        </mxCell>
        <mxCell id="RO1CmDXr1QsEUB7Ie__f-63" value="" style="html=1;verticalAlign=bottom;labelBackgroundColor=none;endArrow=block;endFill=1;endSize=6;align=left;rounded=0;" parent="1" target="0QJzmTSBUrrNXlWIrxS7-285" edge="1">
          <mxGeometry x="-1" relative="1" as="geometry">
            <mxPoint x="-320" y="740" as="sourcePoint" />
            <mxPoint x="990" y="740" as="targetPoint" />
            <mxPoint as="offset" />
          </mxGeometry>
        </mxCell>
        <mxCell id="RO1CmDXr1QsEUB7Ie__f-100" value="&lt;div&gt;&amp;lt;&amp;lt;Altair 390&amp;gt;&amp;gt;&lt;/div&gt;PAMPA&lt;div&gt;&lt;/div&gt;&lt;div&gt;&lt;/div&gt;" style="shape=umlLifeline;perimeter=lifelinePerimeter;whiteSpace=wrap;html=1;container=1;dropTarget=0;collapsible=0;recursiveResize=0;outlineConnect=0;portConstraint=eastwest;newEdgeStyle={&quot;edgeStyle&quot;:&quot;elbowEdgeStyle&quot;,&quot;elbow&quot;:&quot;vertical&quot;,&quot;curved&quot;:0,&quot;rounded&quot;:0};align=center;movable=1;resizable=1;rotatable=1;deletable=1;editable=1;locked=0;connectable=1;fontStyle=1" parent="1" vertex="1">
          <mxGeometry x="920" y="-583.75" width="170" height="1903.75" as="geometry" />
        </mxCell>
        <mxCell id="RO1CmDXr1QsEUB7Ie__f-101" value="" style="html=1;points=[[0,0,0,0,5],[0,1,0,0,-5],[1,0,0,0,5],[1,1,0,0,-5]];perimeter=orthogonalPerimeter;outlineConnect=0;targetShapes=umlLifeline;portConstraint=eastwest;newEdgeStyle={&quot;curved&quot;:0,&quot;rounded&quot;:0};" parent="RO1CmDXr1QsEUB7Ie__f-100" vertex="1">
          <mxGeometry x="80" y="1082" width="10" height="93" as="geometry" />
        </mxCell>
        <mxCell id="RO1CmDXr1QsEUB7Ie__f-106" value="&lt;div&gt;&amp;lt;&amp;lt;Altair 390&amp;gt;&amp;gt;&lt;/div&gt;Captación&lt;div&gt;&lt;/div&gt;&lt;div&gt;&lt;/div&gt;" style="shape=umlLifeline;perimeter=lifelinePerimeter;whiteSpace=wrap;html=1;container=1;dropTarget=0;collapsible=0;recursiveResize=0;outlineConnect=0;portConstraint=eastwest;newEdgeStyle={&quot;edgeStyle&quot;:&quot;elbowEdgeStyle&quot;,&quot;elbow&quot;:&quot;vertical&quot;,&quot;curved&quot;:0,&quot;rounded&quot;:0};align=center;movable=1;resizable=1;rotatable=1;deletable=1;editable=1;locked=0;connectable=1;fontStyle=1;" parent="1" vertex="1">
          <mxGeometry x="1130" y="-583.75" width="170" height="1903.75" as="geometry" />
        </mxCell>
        <mxCell id="RO1CmDXr1QsEUB7Ie__f-107" value="" style="html=1;points=[[0,0,0,0,5],[0,1,0,0,-5],[1,0,0,0,5],[1,1,0,0,-5]];perimeter=orthogonalPerimeter;outlineConnect=0;targetShapes=umlLifeline;portConstraint=eastwest;newEdgeStyle={&quot;curved&quot;:0,&quot;rounded&quot;:0};" parent="RO1CmDXr1QsEUB7Ie__f-106" vertex="1">
          <mxGeometry x="80" y="1330" width="10" height="300" as="geometry" />
        </mxCell>
        <mxCell id="RO1CmDXr1QsEUB7Ie__f-108" value="" style="html=1;verticalAlign=bottom;labelBackgroundColor=none;endArrow=block;endFill=1;endSize=6;align=left;rounded=0;" parent="1" edge="1">
          <mxGeometry x="-1" relative="1" as="geometry">
            <mxPoint x="797" y="758" as="sourcePoint" />
            <mxPoint x="1210" y="758" as="targetPoint" />
            <mxPoint as="offset" />
          </mxGeometry>
        </mxCell>
        <mxCell id="RO1CmDXr1QsEUB7Ie__f-109" value="Ejecución B412 Cabecera Estandar de una cuenta&lt;br&gt;&lt;p style=&quot;margin-left: 20.6pt; text-indent: -0.25in; font-size: 10px;&quot; class=&quot;TableText&quot;&gt;&lt;i&gt;&lt;span style=&quot;&quot; lang=&quot;ES&quot;&gt;&lt;font style=&quot;font-size: 10px;&quot;&gt;&lt;/font&gt;&lt;/span&gt;&lt;/i&gt;&lt;/p&gt;" style="text;html=1;align=left;verticalAlign=top;whiteSpace=wrap;rounded=0;fontSize=9;" parent="1" vertex="1">
          <mxGeometry x="803" y="737" width="217" height="28" as="geometry" />
        </mxCell>
        <mxCell id="RO1CmDXr1QsEUB7Ie__f-110" value="" style="html=1;verticalAlign=bottom;labelBackgroundColor=none;endArrow=block;endFill=1;endSize=6;align=left;rounded=0;" parent="1" edge="1">
          <mxGeometry x="-1" relative="1" as="geometry">
            <mxPoint x="797" y="793" as="sourcePoint" />
            <mxPoint x="1210" y="793" as="targetPoint" />
            <mxPoint as="offset" />
          </mxGeometry>
        </mxCell>
        <mxCell id="RO1CmDXr1QsEUB7Ie__f-111" value="Ejecución LZM2 Consulta servicios con moratorios&lt;br&gt;&lt;p style=&quot;margin-left: 20.6pt; text-indent: -0.25in; font-size: 10px;&quot; class=&quot;TableText&quot;&gt;&lt;i&gt;&lt;span style=&quot;&quot; lang=&quot;ES&quot;&gt;&lt;font style=&quot;font-size: 10px;&quot;&gt;&lt;/font&gt;&lt;/span&gt;&lt;/i&gt;&lt;/p&gt;" style="text;html=1;align=left;verticalAlign=top;whiteSpace=wrap;rounded=0;fontSize=9;" parent="1" vertex="1">
          <mxGeometry x="803" y="772" width="217" height="28" as="geometry" />
        </mxCell>
        <mxCell id="RO1CmDXr1QsEUB7Ie__f-112" value="" style="html=1;verticalAlign=bottom;labelBackgroundColor=none;endArrow=block;endFill=1;endSize=6;align=left;rounded=0;" parent="1" edge="1">
          <mxGeometry x="-1" relative="1" as="geometry">
            <mxPoint x="797" y="827" as="sourcePoint" />
            <mxPoint x="1210" y="827" as="targetPoint" />
            <mxPoint as="offset" />
          </mxGeometry>
        </mxCell>
        <mxCell id="RO1CmDXr1QsEUB7Ie__f-113" value="Ejecución LZQH Cabecera Estandar de una cuenta&lt;br&gt;&lt;p style=&quot;margin-left: 20.6pt; text-indent: -0.25in; font-size: 10px;&quot; class=&quot;TableText&quot;&gt;&lt;i&gt;&lt;span style=&quot;&quot; lang=&quot;ES&quot;&gt;&lt;font style=&quot;font-size: 10px;&quot;&gt;&lt;/font&gt;&lt;/span&gt;&lt;/i&gt;&lt;/p&gt;" style="text;html=1;align=left;verticalAlign=top;whiteSpace=wrap;rounded=0;fontSize=9;" parent="1" vertex="1">
          <mxGeometry x="803" y="806" width="217" height="28" as="geometry" />
        </mxCell>
        <mxCell id="RO1CmDXr1QsEUB7Ie__f-114" value="" style="html=1;verticalAlign=bottom;labelBackgroundColor=none;endArrow=block;endFill=1;endSize=6;align=left;rounded=0;" parent="1" edge="1">
          <mxGeometry x="-1" relative="1" as="geometry">
            <mxPoint x="797" y="862" as="sourcePoint" />
            <mxPoint x="1210" y="862" as="targetPoint" />
            <mxPoint as="offset" />
          </mxGeometry>
        </mxCell>
        <mxCell id="RO1CmDXr1QsEUB7Ie__f-115" value="Ejecución LZFT Consulta de cuentas aut.para DEP SBC&lt;br&gt;&lt;p style=&quot;margin-left: 20.6pt; text-indent: -0.25in; font-size: 10px;&quot; class=&quot;TableText&quot;&gt;&lt;i&gt;&lt;span style=&quot;&quot; lang=&quot;ES&quot;&gt;&lt;font style=&quot;font-size: 10px;&quot;&gt;&lt;/font&gt;&lt;/span&gt;&lt;/i&gt;&lt;/p&gt;" style="text;html=1;align=left;verticalAlign=top;whiteSpace=wrap;rounded=0;fontSize=9;" parent="1" vertex="1">
          <mxGeometry x="803" y="841" width="257" height="28" as="geometry" />
        </mxCell>
        <mxCell id="RO1CmDXr1QsEUB7Ie__f-116" value="" style="html=1;verticalAlign=bottom;labelBackgroundColor=none;endArrow=block;endFill=1;endSize=6;align=left;rounded=0;" parent="1" edge="1">
          <mxGeometry x="-1" relative="1" as="geometry">
            <mxPoint x="797" y="894" as="sourcePoint" />
            <mxPoint x="1210" y="894" as="targetPoint" />
            <mxPoint as="offset" />
          </mxGeometry>
        </mxCell>
        <mxCell id="RO1CmDXr1QsEUB7Ie__f-117" value="Ejecuta transacción de depósito a cuenta&lt;p style=&quot;margin-left: 20.6pt; text-indent: -0.25in; font-size: 10px;&quot; class=&quot;TableText&quot;&gt;&lt;i&gt;&lt;span style=&quot;&quot; lang=&quot;ES&quot;&gt;&lt;font style=&quot;font-size: 10px;&quot;&gt;&lt;/font&gt;&lt;/span&gt;&lt;/i&gt;&lt;/p&gt;" style="text;html=1;align=left;verticalAlign=top;whiteSpace=wrap;rounded=0;fontSize=9;" parent="1" vertex="1">
          <mxGeometry x="803" y="873" width="257" height="28" as="geometry" />
        </mxCell>
        <mxCell id="RO1CmDXr1QsEUB7Ie__f-118" value="alt" style="shape=umlFrame;whiteSpace=wrap;html=1;pointerEvents=0;width=50;height=15;" parent="1" vertex="1">
          <mxGeometry x="1190" y="901" width="240" height="149" as="geometry" />
        </mxCell>
        <mxCell id="RO1CmDXr1QsEUB7Ie__f-119" value="Ejecución B601 para Depósito en Caja (Efectivo)&lt;br&gt;&lt;p style=&quot;margin-left: 20.6pt; text-indent: -0.25in; font-size: 10px;&quot; class=&quot;TableText&quot;&gt;&lt;i&gt;&lt;span style=&quot;&quot; lang=&quot;ES&quot;&gt;&lt;font style=&quot;font-size: 10px;&quot;&gt;&lt;/font&gt;&lt;/span&gt;&lt;/i&gt;&lt;/p&gt;" style="text;html=1;align=left;verticalAlign=top;whiteSpace=wrap;rounded=0;fontSize=9;" parent="1" vertex="1">
          <mxGeometry x="1253" y="923.8199999999999" width="137" height="32" as="geometry" />
        </mxCell>
        <mxCell id="RO1CmDXr1QsEUB7Ie__f-120" value="" style="html=1;align=left;spacingLeft=2;endArrow=block;rounded=0;edgeStyle=orthogonalEdgeStyle;curved=0;rounded=0;" parent="1" edge="1">
          <mxGeometry x="-0.2922" y="20" relative="1" as="geometry">
            <mxPoint x="1220" y="927.0200000000004" as="sourcePoint" />
            <Array as="points">
              <mxPoint x="1250" y="927.0800000000004" />
              <mxPoint x="1250" y="957.0800000000004" />
            </Array>
            <mxPoint x="1220" y="957.0800000000004" as="targetPoint" />
            <mxPoint as="offset" />
          </mxGeometry>
        </mxCell>
        <mxCell id="RO1CmDXr1QsEUB7Ie__f-122" value="" style="html=1;align=left;spacingLeft=2;endArrow=block;rounded=0;edgeStyle=orthogonalEdgeStyle;curved=0;rounded=0;" parent="1" edge="1">
          <mxGeometry x="-0.2922" y="20" relative="1" as="geometry">
            <mxPoint x="1220" y="993.0200000000004" as="sourcePoint" />
            <Array as="points">
              <mxPoint x="1250" y="993.0800000000004" />
              <mxPoint x="1250" y="1023.0800000000004" />
            </Array>
            <mxPoint x="1220" y="1023.0800000000004" as="targetPoint" />
            <mxPoint as="offset" />
          </mxGeometry>
        </mxCell>
        <mxCell id="RO1CmDXr1QsEUB7Ie__f-123" value="Ejecución B603 para Depósito NO en Caja (Documento / Cheque)&lt;br&gt;&lt;p style=&quot;margin-left: 20.6pt; text-indent: -0.25in; font-size: 10px;&quot; class=&quot;TableText&quot;&gt;&lt;i&gt;&lt;span style=&quot;&quot; lang=&quot;ES&quot;&gt;&lt;font style=&quot;font-size: 10px;&quot;&gt;&lt;/font&gt;&lt;/span&gt;&lt;/i&gt;&lt;/p&gt;" style="text;html=1;align=left;verticalAlign=top;whiteSpace=wrap;rounded=0;fontSize=9;" parent="1" vertex="1">
          <mxGeometry x="1253" y="989.82" width="147" height="32" as="geometry" />
        </mxCell>
        <mxCell id="RO1CmDXr1QsEUB7Ie__f-126" value="" style="html=1;verticalAlign=bottom;labelBackgroundColor=none;endArrow=none;endFill=0;endSize=6;align=left;rounded=0;startArrow=block;startFill=1;dashed=1;" parent="1" source="0QJzmTSBUrrNXlWIrxS7-285" edge="1">
          <mxGeometry x="-1" relative="1" as="geometry">
            <mxPoint x="800" y="1039" as="sourcePoint" />
            <mxPoint x="1209" y="1038.75" as="targetPoint" />
            <mxPoint as="offset" />
          </mxGeometry>
        </mxCell>
        <mxCell id="RO1CmDXr1QsEUB7Ie__f-127" value="Mensaje respuesta Captación, sobre la ejecución del Depósito en la cuenta del Cliente&lt;p style=&quot;margin-left: 20.6pt; text-indent: -0.25in; font-size: 10px;&quot; class=&quot;TableText&quot;&gt;&lt;i&gt;&lt;span style=&quot;&quot; lang=&quot;ES&quot;&gt;&lt;font style=&quot;font-size: 10px;&quot;&gt;&lt;/font&gt;&lt;/span&gt;&lt;/i&gt;&lt;/p&gt;" style="text;html=1;align=left;verticalAlign=top;whiteSpace=wrap;rounded=0;fontSize=9;" parent="1" vertex="1">
          <mxGeometry x="832" y="1017" width="367" height="28" as="geometry" />
        </mxCell>
        <mxCell id="RO1CmDXr1QsEUB7Ie__f-128" value="" style="html=1;verticalAlign=bottom;labelBackgroundColor=none;endArrow=none;endFill=0;endSize=6;align=left;rounded=0;startArrow=block;startFill=1;dashed=1;" parent="1" target="0QJzmTSBUrrNXlWIrxS7-285" edge="1">
          <mxGeometry x="-1" relative="1" as="geometry">
            <mxPoint x="-320" y="1062" as="sourcePoint" />
            <mxPoint x="996" y="1061.75" as="targetPoint" />
            <mxPoint as="offset" />
          </mxGeometry>
        </mxCell>
        <mxCell id="RO1CmDXr1QsEUB7Ie__f-129" value="Mensaje respuesta del Depósito en la cuenta del Cliente&lt;p style=&quot;margin-left: 20.6pt; text-indent: -0.25in; font-size: 10px;&quot; class=&quot;TableText&quot;&gt;&lt;i&gt;&lt;span style=&quot;&quot; lang=&quot;ES&quot;&gt;&lt;font style=&quot;font-size: 10px;&quot;&gt;&lt;/font&gt;&lt;/span&gt;&lt;/i&gt;&lt;/p&gt;" style="text;html=1;align=left;verticalAlign=top;whiteSpace=wrap;rounded=0;fontSize=9;" parent="1" vertex="1">
          <mxGeometry x="-309" y="1038" width="367" height="28" as="geometry" />
        </mxCell>
        <mxCell id="RO1CmDXr1QsEUB7Ie__f-131" value="" style="html=1;verticalAlign=bottom;labelBackgroundColor=none;endArrow=none;endFill=0;endSize=6;align=left;rounded=0;startArrow=block;startFill=1;dashed=1;" parent="1" edge="1">
          <mxGeometry x="-1" relative="1" as="geometry">
            <mxPoint x="-540" y="1080" as="sourcePoint" />
            <mxPoint x="-331" y="1080" as="targetPoint" />
            <mxPoint as="offset" />
          </mxGeometry>
        </mxCell>
        <mxCell id="RO1CmDXr1QsEUB7Ie__f-132" value="Ejecutivo imprime comprobante&lt;br&gt;&lt;p style=&quot;margin-left: 20.6pt; text-indent: -0.25in; font-size: 10px;&quot; class=&quot;TableText&quot;&gt;&lt;i&gt;&lt;span style=&quot;&quot; lang=&quot;ES&quot;&gt;&lt;font style=&quot;font-size: 10px;&quot;&gt;&lt;/font&gt;&lt;/span&gt;&lt;/i&gt;&lt;/p&gt;" style="text;html=1;align=left;verticalAlign=top;whiteSpace=wrap;rounded=0;fontSize=9;" parent="1" vertex="1">
          <mxGeometry x="-749" y="1077" width="139" height="23" as="geometry" />
        </mxCell>
        <mxCell id="RO1CmDXr1QsEUB7Ie__f-133" value="" style="html=1;verticalAlign=bottom;labelBackgroundColor=none;endArrow=none;endFill=0;endSize=6;align=left;rounded=0;startArrow=block;startFill=1;dashed=1;" parent="1" source="0QJzmTSBUrrNXlWIrxS7-269" edge="1">
          <mxGeometry x="-1" relative="1" as="geometry">
            <mxPoint x="-750" y="1100" as="sourcePoint" />
            <mxPoint x="-551" y="1100" as="targetPoint" />
            <mxPoint as="offset" />
          </mxGeometry>
        </mxCell>
        <mxCell id="RO1CmDXr1QsEUB7Ie__f-135" value="Ejecutivo entrega comprobante al Cliente&lt;br&gt;&lt;p style=&quot;margin-left: 20.6pt; text-indent: -0.25in; font-size: 10px;&quot; class=&quot;TableText&quot;&gt;&lt;i&gt;&lt;span style=&quot;&quot; lang=&quot;ES&quot;&gt;&lt;font style=&quot;font-size: 10px;&quot;&gt;&lt;/font&gt;&lt;/span&gt;&lt;/i&gt;&lt;/p&gt;" style="text;html=1;align=left;verticalAlign=top;whiteSpace=wrap;rounded=0;fontSize=9;" parent="1" vertex="1">
          <mxGeometry x="-954" y="1092" width="174" height="23" as="geometry" />
        </mxCell>
        <mxCell id="RO1CmDXr1QsEUB7Ie__f-136" value="" style="html=1;verticalAlign=bottom;labelBackgroundColor=none;endArrow=none;endFill=0;endSize=6;align=left;rounded=0;startArrow=block;startFill=1;dashed=1;" parent="1" edge="1">
          <mxGeometry x="-1" relative="1" as="geometry">
            <mxPoint x="-966" y="1113" as="sourcePoint" />
            <mxPoint x="-768" y="1113" as="targetPoint" />
            <mxPoint as="offset" />
          </mxGeometry>
        </mxCell>
        <mxCell id="ieorsJeVfhHJbkCb_-GS-2" value="Realiza la recuperación del número de cuenta del Cliente&lt;div style=&quot;&quot;&gt;&lt;div&gt;[API PLARD -&amp;nbsp;&lt;font style=&quot;font-size: 9px;&quot;&gt;&lt;span style=&quot;&quot; data-teams=&quot;true&quot;&gt;card-cash-deposit&lt;/span&gt;&lt;span style=&quot;background-color: initial;&quot;&gt;]&lt;/span&gt;&lt;/font&gt;&lt;/div&gt;&lt;div&gt;&lt;font style=&quot;font-size: 9px;&quot;&gt;&lt;font color=&quot;#cc0000&quot;&gt;(Post) TBD&lt;/font&gt;&lt;span style=&quot;background-color: initial;&quot;&gt;&lt;br&gt;&lt;/span&gt;&lt;/font&gt;&lt;/div&gt;&lt;/div&gt;&lt;p style=&quot;margin-left: 20.6pt; text-indent: -0.25in; font-size: 10px;&quot; class=&quot;TableText&quot;&gt;&lt;i&gt;&lt;span style=&quot;&quot; lang=&quot;ES&quot;&gt;&lt;font style=&quot;font-size: 10px;&quot;&gt;&lt;/font&gt;&lt;/span&gt;&lt;/i&gt;&lt;/p&gt;" style="text;html=1;align=left;verticalAlign=top;whiteSpace=wrap;rounded=0;fontSize=9;" parent="1" vertex="1">
          <mxGeometry x="594.25" y="224" width="147" height="50" as="geometry" />
        </mxCell>
        <mxCell id="ieorsJeVfhHJbkCb_-GS-3" value="Realiza la recuperación del número de cuenta del Cliente&lt;div&gt;&lt;div&gt;&lt;font color=&quot;#cc0000&quot;&gt;Trx: LMM8&lt;/font&gt;&lt;/div&gt;&lt;/div&gt;&lt;p style=&quot;margin-left: 20.6pt; text-indent: -0.25in; font-size: 10px;&quot; class=&quot;TableText&quot;&gt;&lt;i&gt;&lt;span style=&quot;&quot; lang=&quot;ES&quot;&gt;&lt;font style=&quot;font-size: 10px;&quot;&gt;&lt;/font&gt;&lt;/span&gt;&lt;/i&gt;&lt;/p&gt;" style="text;html=1;align=left;verticalAlign=top;whiteSpace=wrap;rounded=0;fontSize=9;" parent="1" vertex="1">
          <mxGeometry x="1044" y="519.82" width="127" height="50" as="geometry" />
        </mxCell>
        <mxCell id="yCXe4cahvPCOG3NL1GP8-1" value="Obtiene el device-id&lt;div&gt;&lt;div&gt;[API PLARD - CardData&lt;span style=&quot;background-color: initial;&quot;&gt;]&lt;/span&gt;&lt;/div&gt;&lt;div&gt;&lt;b style=&quot;&quot;&gt;(Post)&amp;nbsp;&lt;/b&gt;&lt;span style=&quot;font-size: 10px; font-weight: 700; text-align: center; background-color: initial;&quot;&gt;/v1/device-id&lt;/span&gt;&lt;/div&gt;&lt;/div&gt;&lt;div&gt;&lt;b&gt;(Post)&amp;nbsp;&lt;/b&gt;&lt;span style=&quot;background-color: initial; font-size: 10px; font-weight: 700; text-align: center;&quot;&gt;/v1/jwks&lt;/span&gt;&lt;span style=&quot;font-size: 10px; font-weight: 700; text-align: center; background-color: initial;&quot;&gt;&lt;br&gt;&lt;/span&gt;&lt;/div&gt;&lt;div&gt;&lt;span style=&quot;font-size: 10px; font-weight: 700; text-align: center; background-color: initial;&quot;&gt;&lt;br&gt;&lt;/span&gt;&lt;/div&gt;&lt;p style=&quot;margin-left: 20.6pt; text-indent: -0.25in; font-size: 10px;&quot; class=&quot;TableText&quot;&gt;&lt;i&gt;&lt;span style=&quot;&quot; lang=&quot;ES&quot;&gt;&lt;font style=&quot;font-size: 10px;&quot;&gt;&lt;/font&gt;&lt;/span&gt;&lt;/i&gt;&lt;/p&gt;" style="text;html=1;align=left;verticalAlign=top;whiteSpace=wrap;rounded=0;fontSize=9;" parent="1" vertex="1">
          <mxGeometry x="565.25" y="71" width="147" height="60" as="geometry" />
        </mxCell>
        <mxCell id="yCXe4cahvPCOG3NL1GP8-2" value="" style="html=1;points=[[0,0,0,0,5],[0,1,0,0,-5],[1,0,0,0,5],[1,1,0,0,-5]];perimeter=orthogonalPerimeter;outlineConnect=0;targetShapes=umlLifeline;portConstraint=eastwest;newEdgeStyle={&quot;curved&quot;:0,&quot;rounded&quot;:0};" parent="1" vertex="1">
          <mxGeometry x="548" y="66" width="10" height="71" as="geometry" />
        </mxCell>
        <mxCell id="yCXe4cahvPCOG3NL1GP8-103" value="Request: API CardData&#xa;(/v1/device-id)" style="shape=table;startSize=30;container=1;collapsible=0;childLayout=tableLayout;fillColor=#bac8d3;strokeColor=#23445d;fontStyle=1" parent="1" vertex="1">
          <mxGeometry x="-230" y="-1578" width="589" height="214.00000000000023" as="geometry" />
        </mxCell>
        <mxCell id="yCXe4cahvPCOG3NL1GP8-104" value="" style="shape=tableRow;horizontal=0;startSize=0;swimlaneHead=0;swimlaneBody=0;strokeColor=inherit;top=0;left=0;bottom=0;right=0;collapsible=0;dropTarget=0;fillColor=none;points=[[0,0.5],[1,0.5]];portConstraint=eastwest;" parent="yCXe4cahvPCOG3NL1GP8-103" vertex="1">
          <mxGeometry y="30" width="589" height="39" as="geometry" />
        </mxCell>
        <mxCell id="yCXe4cahvPCOG3NL1GP8-105" value="&lt;span style=&quot;color: rgb(36, 36, 36); text-align: left; white-space-collapse: preserve; background-color: rgb(238, 238, 238);&quot;&gt;&lt;font style=&quot;font-size: 11px;&quot;&gt;&lt;b style=&quot;&quot;&gt;Nombre del Campo&lt;/b&gt;&lt;/font&gt;&lt;/span&gt;" style="shape=partialRectangle;html=1;whiteSpace=wrap;connectable=0;strokeColor=#000000;overflow=hidden;fillColor=#eeeeee;top=0;left=0;bottom=0;right=0;pointerEvents=1;fontFamily=Helvetica;" parent="yCXe4cahvPCOG3NL1GP8-104" vertex="1">
          <mxGeometry width="162" height="39" as="geometry">
            <mxRectangle width="162" height="39" as="alternateBounds" />
          </mxGeometry>
        </mxCell>
        <mxCell id="yCXe4cahvPCOG3NL1GP8-106" value="&lt;span style=&quot;color: rgb(36, 36, 36); text-align: left; white-space-collapse: preserve; background-color: rgb(238, 238, 238);&quot;&gt;&lt;font style=&quot;font-size: 11px;&quot;&gt;&lt;b style=&quot;&quot;&gt;Describe la funcionalidad del campo&lt;/b&gt;&lt;/font&gt;&lt;/span&gt;" style="shape=partialRectangle;html=1;whiteSpace=wrap;connectable=0;strokeColor=#000000;overflow=hidden;fillColor=#eeeeee;top=0;left=0;bottom=0;right=0;pointerEvents=1;fontFamily=Helvetica;" parent="yCXe4cahvPCOG3NL1GP8-104" vertex="1">
          <mxGeometry x="162" width="230" height="39" as="geometry">
            <mxRectangle width="230" height="39" as="alternateBounds" />
          </mxGeometry>
        </mxCell>
        <mxCell id="yCXe4cahvPCOG3NL1GP8-107" value="&lt;span style=&quot;color: rgb(36, 36, 36); text-align: left; white-space-collapse: preserve; background-color: rgb(238, 238, 238);&quot;&gt;&lt;font style=&quot;font-size: 11px;&quot;&gt;&lt;b style=&quot;&quot;&gt;Obligatoriedad&lt;/b&gt;&lt;/font&gt;&lt;/span&gt;" style="shape=partialRectangle;html=1;whiteSpace=wrap;connectable=0;strokeColor=#000000;overflow=hidden;fillColor=#eeeeee;top=0;left=0;bottom=0;right=0;pointerEvents=1;fontFamily=Helvetica;" parent="yCXe4cahvPCOG3NL1GP8-104" vertex="1">
          <mxGeometry x="392" width="111" height="39" as="geometry">
            <mxRectangle width="111" height="39" as="alternateBounds" />
          </mxGeometry>
        </mxCell>
        <mxCell id="yCXe4cahvPCOG3NL1GP8-108" value="&lt;span style=&quot;color: rgb(36, 36, 36); text-align: left; white-space-collapse: preserve; background-color: rgb(238, 238, 238);&quot;&gt;&lt;font style=&quot;font-size: 11px;&quot;&gt;&lt;b style=&quot;&quot;&gt;Longitud/ Formato&lt;/b&gt;&lt;/font&gt;&lt;/span&gt;" style="shape=partialRectangle;html=1;whiteSpace=wrap;connectable=0;strokeColor=#000000;overflow=hidden;fillColor=#eeeeee;top=0;left=0;bottom=0;right=0;pointerEvents=1;fontFamily=Helvetica;" parent="yCXe4cahvPCOG3NL1GP8-104" vertex="1">
          <mxGeometry x="503" width="86" height="39" as="geometry">
            <mxRectangle width="86" height="39" as="alternateBounds" />
          </mxGeometry>
        </mxCell>
        <mxCell id="yCXe4cahvPCOG3NL1GP8-109" value="" style="shape=tableRow;horizontal=0;startSize=0;swimlaneHead=0;swimlaneBody=0;strokeColor=inherit;top=0;left=0;bottom=0;right=0;collapsible=0;dropTarget=0;fillColor=none;points=[[0,0.5],[1,0.5]];portConstraint=eastwest;" parent="yCXe4cahvPCOG3NL1GP8-103" vertex="1">
          <mxGeometry y="69" width="589" height="29" as="geometry" />
        </mxCell>
        <mxCell id="yCXe4cahvPCOG3NL1GP8-110" value="kid" style="shape=partialRectangle;html=1;whiteSpace=wrap;connectable=0;strokeColor=inherit;overflow=hidden;fillColor=none;top=0;left=0;bottom=0;right=0;pointerEvents=1;fontSize=11;fontFamily=Helvetica;" parent="yCXe4cahvPCOG3NL1GP8-109" vertex="1">
          <mxGeometry width="162" height="29" as="geometry">
            <mxRectangle width="162" height="29" as="alternateBounds" />
          </mxGeometry>
        </mxCell>
        <mxCell id="yCXe4cahvPCOG3NL1GP8-111" value="Id de la llave pública utilizada en la criptografía" style="shape=partialRectangle;html=1;whiteSpace=wrap;connectable=0;strokeColor=inherit;overflow=hidden;fillColor=none;top=0;left=0;bottom=0;right=0;pointerEvents=1;fontSize=11;fontFamily=Helvetica;align=center;" parent="yCXe4cahvPCOG3NL1GP8-109" vertex="1">
          <mxGeometry x="162" width="230" height="29" as="geometry">
            <mxRectangle width="230" height="29" as="alternateBounds" />
          </mxGeometry>
        </mxCell>
        <mxCell id="yCXe4cahvPCOG3NL1GP8-112" value="Si" style="shape=partialRectangle;html=1;whiteSpace=wrap;connectable=0;strokeColor=inherit;overflow=hidden;fillColor=none;top=0;left=0;bottom=0;right=0;pointerEvents=1;fontSize=11;fontFamily=Helvetica;" parent="yCXe4cahvPCOG3NL1GP8-109" vertex="1">
          <mxGeometry x="392" width="111" height="29" as="geometry">
            <mxRectangle width="111" height="29" as="alternateBounds" />
          </mxGeometry>
        </mxCell>
        <mxCell id="yCXe4cahvPCOG3NL1GP8-113" value="" style="shape=partialRectangle;html=1;whiteSpace=wrap;connectable=0;strokeColor=inherit;overflow=hidden;fillColor=none;top=0;left=0;bottom=0;right=0;pointerEvents=1;fontSize=11;fontFamily=Helvetica;" parent="yCXe4cahvPCOG3NL1GP8-109" vertex="1">
          <mxGeometry x="503" width="86" height="29" as="geometry">
            <mxRectangle width="86" height="29" as="alternateBounds" />
          </mxGeometry>
        </mxCell>
        <mxCell id="yCXe4cahvPCOG3NL1GP8-114" style="shape=tableRow;horizontal=0;startSize=0;swimlaneHead=0;swimlaneBody=0;strokeColor=inherit;top=0;left=0;bottom=0;right=0;collapsible=0;dropTarget=0;fillColor=none;points=[[0,0.5],[1,0.5]];portConstraint=eastwest;" parent="yCXe4cahvPCOG3NL1GP8-103" vertex="1">
          <mxGeometry y="98" width="589" height="23" as="geometry" />
        </mxCell>
        <mxCell id="yCXe4cahvPCOG3NL1GP8-115" value="correlationId" style="shape=partialRectangle;html=1;whiteSpace=wrap;connectable=0;strokeColor=inherit;overflow=hidden;fillColor=none;top=0;left=0;bottom=0;right=0;pointerEvents=1;fontSize=11;fontFamily=Helvetica;" parent="yCXe4cahvPCOG3NL1GP8-114" vertex="1">
          <mxGeometry width="162" height="23" as="geometry">
            <mxRectangle width="162" height="23" as="alternateBounds" />
          </mxGeometry>
        </mxCell>
        <mxCell id="yCXe4cahvPCOG3NL1GP8-116" value="" style="shape=partialRectangle;html=1;whiteSpace=wrap;connectable=0;strokeColor=inherit;overflow=hidden;fillColor=none;top=0;left=0;bottom=0;right=0;pointerEvents=1;fontSize=11;fontFamily=Helvetica;align=center;" parent="yCXe4cahvPCOG3NL1GP8-114" vertex="1">
          <mxGeometry x="162" width="230" height="23" as="geometry">
            <mxRectangle width="230" height="23" as="alternateBounds" />
          </mxGeometry>
        </mxCell>
        <mxCell id="yCXe4cahvPCOG3NL1GP8-117" value="No" style="shape=partialRectangle;html=1;whiteSpace=wrap;connectable=0;strokeColor=inherit;overflow=hidden;fillColor=none;top=0;left=0;bottom=0;right=0;pointerEvents=1;fontSize=11;fontFamily=Helvetica;" parent="yCXe4cahvPCOG3NL1GP8-114" vertex="1">
          <mxGeometry x="392" width="111" height="23" as="geometry">
            <mxRectangle width="111" height="23" as="alternateBounds" />
          </mxGeometry>
        </mxCell>
        <mxCell id="yCXe4cahvPCOG3NL1GP8-118" value="" style="shape=partialRectangle;html=1;whiteSpace=wrap;connectable=0;strokeColor=inherit;overflow=hidden;fillColor=none;top=0;left=0;bottom=0;right=0;pointerEvents=1;fontSize=11;fontFamily=Helvetica;" parent="yCXe4cahvPCOG3NL1GP8-114" vertex="1">
          <mxGeometry x="503" width="86" height="23" as="geometry">
            <mxRectangle width="86" height="23" as="alternateBounds" />
          </mxGeometry>
        </mxCell>
        <mxCell id="yCXe4cahvPCOG3NL1GP8-119" style="shape=tableRow;horizontal=0;startSize=0;swimlaneHead=0;swimlaneBody=0;strokeColor=inherit;top=0;left=0;bottom=0;right=0;collapsible=0;dropTarget=0;fillColor=none;points=[[0,0.5],[1,0.5]];portConstraint=eastwest;" parent="yCXe4cahvPCOG3NL1GP8-103" vertex="1">
          <mxGeometry y="121" width="589" height="20" as="geometry" />
        </mxCell>
        <mxCell id="yCXe4cahvPCOG3NL1GP8-120" value="pan" style="shape=partialRectangle;html=1;whiteSpace=wrap;connectable=0;strokeColor=inherit;overflow=hidden;fillColor=none;top=0;left=0;bottom=0;right=0;pointerEvents=1;fontSize=11;fontFamily=Helvetica;" parent="yCXe4cahvPCOG3NL1GP8-119" vertex="1">
          <mxGeometry width="162" height="20" as="geometry">
            <mxRectangle width="162" height="20" as="alternateBounds" />
          </mxGeometry>
        </mxCell>
        <mxCell id="yCXe4cahvPCOG3NL1GP8-121" value="" style="shape=partialRectangle;html=1;whiteSpace=wrap;connectable=0;strokeColor=inherit;overflow=hidden;fillColor=none;top=0;left=0;bottom=0;right=0;pointerEvents=1;fontSize=11;fontFamily=Helvetica;align=center;" parent="yCXe4cahvPCOG3NL1GP8-119" vertex="1">
          <mxGeometry x="162" width="230" height="20" as="geometry">
            <mxRectangle width="230" height="20" as="alternateBounds" />
          </mxGeometry>
        </mxCell>
        <mxCell id="yCXe4cahvPCOG3NL1GP8-122" value="Si" style="shape=partialRectangle;html=1;whiteSpace=wrap;connectable=0;strokeColor=inherit;overflow=hidden;fillColor=none;top=0;left=0;bottom=0;right=0;pointerEvents=1;fontSize=11;fontFamily=Helvetica;" parent="yCXe4cahvPCOG3NL1GP8-119" vertex="1">
          <mxGeometry x="392" width="111" height="20" as="geometry">
            <mxRectangle width="111" height="20" as="alternateBounds" />
          </mxGeometry>
        </mxCell>
        <mxCell id="yCXe4cahvPCOG3NL1GP8-123" value="" style="shape=partialRectangle;html=1;whiteSpace=wrap;connectable=0;strokeColor=inherit;overflow=hidden;fillColor=none;top=0;left=0;bottom=0;right=0;pointerEvents=1;fontSize=11;fontFamily=Helvetica;" parent="yCXe4cahvPCOG3NL1GP8-119" vertex="1">
          <mxGeometry x="503" width="86" height="20" as="geometry">
            <mxRectangle width="86" height="20" as="alternateBounds" />
          </mxGeometry>
        </mxCell>
        <mxCell id="yCXe4cahvPCOG3NL1GP8-124" style="shape=tableRow;horizontal=0;startSize=0;swimlaneHead=0;swimlaneBody=0;strokeColor=inherit;top=0;left=0;bottom=0;right=0;collapsible=0;dropTarget=0;fillColor=none;points=[[0,0.5],[1,0.5]];portConstraint=eastwest;" parent="yCXe4cahvPCOG3NL1GP8-103" vertex="1">
          <mxGeometry y="141" width="589" height="35" as="geometry" />
        </mxCell>
        <mxCell id="yCXe4cahvPCOG3NL1GP8-125" value="replyPublicKey" style="shape=partialRectangle;html=1;whiteSpace=wrap;connectable=0;strokeColor=inherit;overflow=hidden;fillColor=none;top=0;left=0;bottom=0;right=0;pointerEvents=1;fontSize=11;fontFamily=Helvetica;" parent="yCXe4cahvPCOG3NL1GP8-124" vertex="1">
          <mxGeometry width="162" height="35" as="geometry">
            <mxRectangle width="162" height="35" as="alternateBounds" />
          </mxGeometry>
        </mxCell>
        <mxCell id="yCXe4cahvPCOG3NL1GP8-126" value="Llave pública que deberá ser utilizada para la criptografía de la respuesta" style="shape=partialRectangle;html=1;whiteSpace=wrap;connectable=0;strokeColor=inherit;overflow=hidden;fillColor=none;top=0;left=0;bottom=0;right=0;pointerEvents=1;fontSize=11;fontFamily=Helvetica;align=center;autosize=1;" parent="yCXe4cahvPCOG3NL1GP8-124" vertex="1">
          <mxGeometry x="162" width="230" height="35" as="geometry">
            <mxRectangle width="230" height="35" as="alternateBounds" />
          </mxGeometry>
        </mxCell>
        <mxCell id="yCXe4cahvPCOG3NL1GP8-127" value="Si" style="shape=partialRectangle;html=1;whiteSpace=wrap;connectable=0;strokeColor=inherit;overflow=hidden;fillColor=none;top=0;left=0;bottom=0;right=0;pointerEvents=1;fontSize=11;fontFamily=Helvetica;" parent="yCXe4cahvPCOG3NL1GP8-124" vertex="1">
          <mxGeometry x="392" width="111" height="35" as="geometry">
            <mxRectangle width="111" height="35" as="alternateBounds" />
          </mxGeometry>
        </mxCell>
        <mxCell id="yCXe4cahvPCOG3NL1GP8-128" value="" style="shape=partialRectangle;html=1;whiteSpace=wrap;connectable=0;strokeColor=inherit;overflow=hidden;fillColor=none;top=0;left=0;bottom=0;right=0;pointerEvents=1;fontSize=11;fontFamily=Helvetica;" parent="yCXe4cahvPCOG3NL1GP8-124" vertex="1">
          <mxGeometry x="503" width="86" height="35" as="geometry">
            <mxRectangle width="86" height="35" as="alternateBounds" />
          </mxGeometry>
        </mxCell>
        <mxCell id="yCXe4cahvPCOG3NL1GP8-129" style="shape=tableRow;horizontal=0;startSize=0;swimlaneHead=0;swimlaneBody=0;strokeColor=inherit;top=0;left=0;bottom=0;right=0;collapsible=0;dropTarget=0;fillColor=none;points=[[0,0.5],[1,0.5]];portConstraint=eastwest;" parent="yCXe4cahvPCOG3NL1GP8-103" vertex="1">
          <mxGeometry y="176" width="589" height="19" as="geometry" />
        </mxCell>
        <mxCell id="yCXe4cahvPCOG3NL1GP8-130" value="replyKid" style="shape=partialRectangle;html=1;whiteSpace=wrap;connectable=0;strokeColor=inherit;overflow=hidden;fillColor=none;top=0;left=0;bottom=0;right=0;pointerEvents=1;fontSize=11;fontFamily=Helvetica;" parent="yCXe4cahvPCOG3NL1GP8-129" vertex="1">
          <mxGeometry width="162" height="19" as="geometry">
            <mxRectangle width="162" height="19" as="alternateBounds" />
          </mxGeometry>
        </mxCell>
        <mxCell id="yCXe4cahvPCOG3NL1GP8-131" value="Id de la llave que fue utilizada para la criptografía de la respuesta" style="shape=partialRectangle;html=1;whiteSpace=wrap;connectable=0;strokeColor=inherit;overflow=hidden;fillColor=none;top=0;left=0;bottom=0;right=0;pointerEvents=1;fontSize=11;fontFamily=Helvetica;align=center;" parent="yCXe4cahvPCOG3NL1GP8-129" vertex="1">
          <mxGeometry x="162" width="230" height="19" as="geometry">
            <mxRectangle width="230" height="19" as="alternateBounds" />
          </mxGeometry>
        </mxCell>
        <mxCell id="yCXe4cahvPCOG3NL1GP8-132" value="" style="shape=partialRectangle;html=1;whiteSpace=wrap;connectable=0;strokeColor=inherit;overflow=hidden;fillColor=none;top=0;left=0;bottom=0;right=0;pointerEvents=1;fontSize=11;fontFamily=Helvetica;" parent="yCXe4cahvPCOG3NL1GP8-129" vertex="1">
          <mxGeometry x="392" width="111" height="19" as="geometry">
            <mxRectangle width="111" height="19" as="alternateBounds" />
          </mxGeometry>
        </mxCell>
        <mxCell id="yCXe4cahvPCOG3NL1GP8-133" value="" style="shape=partialRectangle;html=1;whiteSpace=wrap;connectable=0;strokeColor=inherit;overflow=hidden;fillColor=none;top=0;left=0;bottom=0;right=0;pointerEvents=1;fontSize=11;fontFamily=Helvetica;" parent="yCXe4cahvPCOG3NL1GP8-129" vertex="1">
          <mxGeometry x="503" width="86" height="19" as="geometry">
            <mxRectangle width="86" height="19" as="alternateBounds" />
          </mxGeometry>
        </mxCell>
        <mxCell id="yCXe4cahvPCOG3NL1GP8-134" style="shape=tableRow;horizontal=0;startSize=0;swimlaneHead=0;swimlaneBody=0;strokeColor=inherit;top=0;left=0;bottom=0;right=0;collapsible=0;dropTarget=0;fillColor=none;points=[[0,0.5],[1,0.5]];portConstraint=eastwest;" parent="yCXe4cahvPCOG3NL1GP8-103" vertex="1">
          <mxGeometry y="195" width="589" height="19" as="geometry" />
        </mxCell>
        <mxCell id="yCXe4cahvPCOG3NL1GP8-135" value="auditInfo" style="shape=partialRectangle;html=1;whiteSpace=wrap;connectable=0;strokeColor=inherit;overflow=hidden;fillColor=none;top=0;left=0;bottom=0;right=0;pointerEvents=1;fontSize=11;fontFamily=Helvetica;" parent="yCXe4cahvPCOG3NL1GP8-134" vertex="1">
          <mxGeometry width="162" height="19" as="geometry">
            <mxRectangle width="162" height="19" as="alternateBounds" />
          </mxGeometry>
        </mxCell>
        <mxCell id="yCXe4cahvPCOG3NL1GP8-136" style="shape=partialRectangle;html=1;whiteSpace=wrap;connectable=0;strokeColor=inherit;overflow=hidden;fillColor=none;top=0;left=0;bottom=0;right=0;pointerEvents=1;fontSize=11;fontFamily=Helvetica;align=center;" parent="yCXe4cahvPCOG3NL1GP8-134" vertex="1">
          <mxGeometry x="162" width="230" height="19" as="geometry">
            <mxRectangle width="230" height="19" as="alternateBounds" />
          </mxGeometry>
        </mxCell>
        <mxCell id="yCXe4cahvPCOG3NL1GP8-137" value="Si" style="shape=partialRectangle;html=1;whiteSpace=wrap;connectable=0;strokeColor=inherit;overflow=hidden;fillColor=none;top=0;left=0;bottom=0;right=0;pointerEvents=1;fontSize=11;fontFamily=Helvetica;" parent="yCXe4cahvPCOG3NL1GP8-134" vertex="1">
          <mxGeometry x="392" width="111" height="19" as="geometry">
            <mxRectangle width="111" height="19" as="alternateBounds" />
          </mxGeometry>
        </mxCell>
        <mxCell id="yCXe4cahvPCOG3NL1GP8-138" style="shape=partialRectangle;html=1;whiteSpace=wrap;connectable=0;strokeColor=inherit;overflow=hidden;fillColor=none;top=0;left=0;bottom=0;right=0;pointerEvents=1;fontSize=11;fontFamily=Helvetica;" parent="yCXe4cahvPCOG3NL1GP8-134" vertex="1">
          <mxGeometry x="503" width="86" height="19" as="geometry">
            <mxRectangle width="86" height="19" as="alternateBounds" />
          </mxGeometry>
        </mxCell>
        <mxCell id="yCXe4cahvPCOG3NL1GP8-139" value="Response: API CardData&#xa;(/v1/device-id)" style="shape=table;startSize=30;container=1;collapsible=0;childLayout=tableLayout;fillColor=#bac8d3;strokeColor=#23445d;fontStyle=1" parent="1" vertex="1">
          <mxGeometry x="-230" y="-1349" width="590" height="132" as="geometry" />
        </mxCell>
        <mxCell id="yCXe4cahvPCOG3NL1GP8-140" value="" style="shape=tableRow;horizontal=0;startSize=0;swimlaneHead=0;swimlaneBody=0;strokeColor=inherit;top=0;left=0;bottom=0;right=0;collapsible=0;dropTarget=0;fillColor=none;points=[[0,0.5],[1,0.5]];portConstraint=eastwest;" parent="yCXe4cahvPCOG3NL1GP8-139" vertex="1">
          <mxGeometry y="30" width="590" height="40" as="geometry" />
        </mxCell>
        <mxCell id="yCXe4cahvPCOG3NL1GP8-141" value="&lt;span style=&quot;color: rgb(36, 36, 36); text-align: left; white-space-collapse: preserve; background-color: rgb(238, 238, 238);&quot;&gt;&lt;font style=&quot;font-size: 11px;&quot;&gt;&lt;b style=&quot;&quot;&gt;Nombre del Campo&lt;/b&gt;&lt;/font&gt;&lt;/span&gt;" style="shape=partialRectangle;html=1;whiteSpace=wrap;connectable=0;strokeColor=#36393d;overflow=hidden;fillColor=#eeeeee;top=0;left=0;bottom=0;right=0;pointerEvents=1;fontFamily=Helvetica;" parent="yCXe4cahvPCOG3NL1GP8-140" vertex="1">
          <mxGeometry width="148" height="40" as="geometry">
            <mxRectangle width="148" height="40" as="alternateBounds" />
          </mxGeometry>
        </mxCell>
        <mxCell id="yCXe4cahvPCOG3NL1GP8-142" value="&lt;span style=&quot;color: rgb(36, 36, 36); text-align: left; white-space-collapse: preserve; background-color: rgb(238, 238, 238);&quot;&gt;&lt;font style=&quot;font-size: 11px;&quot;&gt;&lt;b style=&quot;&quot;&gt;Describe la funcionalidad del campo&lt;/b&gt;&lt;/font&gt;&lt;/span&gt;" style="shape=partialRectangle;html=1;whiteSpace=wrap;connectable=0;strokeColor=#36393d;overflow=hidden;fillColor=#eeeeee;top=0;left=0;bottom=0;right=0;pointerEvents=1;fontFamily=Helvetica;" parent="yCXe4cahvPCOG3NL1GP8-140" vertex="1">
          <mxGeometry x="148" width="242" height="40" as="geometry">
            <mxRectangle width="242" height="40" as="alternateBounds" />
          </mxGeometry>
        </mxCell>
        <mxCell id="yCXe4cahvPCOG3NL1GP8-143" value="&lt;span style=&quot;color: rgb(36, 36, 36); text-align: left; white-space-collapse: preserve; background-color: rgb(238, 238, 238);&quot;&gt;&lt;font style=&quot;font-size: 11px;&quot;&gt;&lt;b style=&quot;&quot;&gt;Obligatoriedad&lt;/b&gt;&lt;/font&gt;&lt;/span&gt;" style="shape=partialRectangle;html=1;whiteSpace=wrap;connectable=0;strokeColor=#36393d;overflow=hidden;fillColor=#eeeeee;top=0;left=0;bottom=0;right=0;pointerEvents=1;fontFamily=Helvetica;" parent="yCXe4cahvPCOG3NL1GP8-140" vertex="1">
          <mxGeometry x="390" width="115" height="40" as="geometry">
            <mxRectangle width="115" height="40" as="alternateBounds" />
          </mxGeometry>
        </mxCell>
        <mxCell id="yCXe4cahvPCOG3NL1GP8-144" value="&lt;span style=&quot;color: rgb(36, 36, 36); text-align: left; white-space-collapse: preserve; background-color: rgb(238, 238, 238);&quot;&gt;&lt;font style=&quot;font-size: 11px;&quot;&gt;&lt;b style=&quot;&quot;&gt;Longitud/ Formato&lt;/b&gt;&lt;/font&gt;&lt;/span&gt;" style="shape=partialRectangle;html=1;whiteSpace=wrap;connectable=0;strokeColor=#36393d;overflow=hidden;fillColor=#eeeeee;top=0;left=0;bottom=0;right=0;pointerEvents=1;fontFamily=Helvetica;" parent="yCXe4cahvPCOG3NL1GP8-140" vertex="1">
          <mxGeometry x="505" width="85" height="40" as="geometry">
            <mxRectangle width="85" height="40" as="alternateBounds" />
          </mxGeometry>
        </mxCell>
        <mxCell id="yCXe4cahvPCOG3NL1GP8-145" value="" style="shape=tableRow;horizontal=0;startSize=0;swimlaneHead=0;swimlaneBody=0;strokeColor=inherit;top=0;left=0;bottom=0;right=0;collapsible=0;dropTarget=0;fillColor=none;points=[[0,0.5],[1,0.5]];portConstraint=eastwest;" parent="yCXe4cahvPCOG3NL1GP8-139" vertex="1">
          <mxGeometry y="70" width="590" height="32" as="geometry" />
        </mxCell>
        <mxCell id="yCXe4cahvPCOG3NL1GP8-146" value="correlationId" style="shape=partialRectangle;html=1;whiteSpace=wrap;connectable=0;strokeColor=inherit;overflow=hidden;fillColor=none;top=0;left=0;bottom=0;right=0;pointerEvents=1;fontFamily=Helvetica;fontSize=11;" parent="yCXe4cahvPCOG3NL1GP8-145" vertex="1">
          <mxGeometry width="148" height="32" as="geometry">
            <mxRectangle width="148" height="32" as="alternateBounds" />
          </mxGeometry>
        </mxCell>
        <mxCell id="yCXe4cahvPCOG3NL1GP8-147" value="El mismo correlationId que fue enviado en el request" style="shape=partialRectangle;html=1;whiteSpace=wrap;connectable=0;strokeColor=inherit;overflow=hidden;fillColor=none;top=0;left=0;bottom=0;right=0;pointerEvents=1;fontFamily=Helvetica;fontSize=11;" parent="yCXe4cahvPCOG3NL1GP8-145" vertex="1">
          <mxGeometry x="148" width="242" height="32" as="geometry">
            <mxRectangle width="242" height="32" as="alternateBounds" />
          </mxGeometry>
        </mxCell>
        <mxCell id="yCXe4cahvPCOG3NL1GP8-148" value="" style="shape=partialRectangle;html=1;whiteSpace=wrap;connectable=0;strokeColor=inherit;overflow=hidden;fillColor=none;top=0;left=0;bottom=0;right=0;pointerEvents=1;fontFamily=Helvetica;fontSize=11;" parent="yCXe4cahvPCOG3NL1GP8-145" vertex="1">
          <mxGeometry x="390" width="115" height="32" as="geometry">
            <mxRectangle width="115" height="32" as="alternateBounds" />
          </mxGeometry>
        </mxCell>
        <mxCell id="yCXe4cahvPCOG3NL1GP8-149" value="" style="shape=partialRectangle;html=1;whiteSpace=wrap;connectable=0;strokeColor=inherit;overflow=hidden;fillColor=none;top=0;left=0;bottom=0;right=0;pointerEvents=1;fontFamily=Helvetica;fontSize=11;" parent="yCXe4cahvPCOG3NL1GP8-145" vertex="1">
          <mxGeometry x="505" width="85" height="32" as="geometry">
            <mxRectangle width="85" height="32" as="alternateBounds" />
          </mxGeometry>
        </mxCell>
        <mxCell id="yCXe4cahvPCOG3NL1GP8-150" style="shape=tableRow;horizontal=0;startSize=0;swimlaneHead=0;swimlaneBody=0;strokeColor=inherit;top=0;left=0;bottom=0;right=0;collapsible=0;dropTarget=0;fillColor=none;points=[[0,0.5],[1,0.5]];portConstraint=eastwest;" parent="yCXe4cahvPCOG3NL1GP8-139" vertex="1">
          <mxGeometry y="102" width="590" height="30" as="geometry" />
        </mxCell>
        <mxCell id="yCXe4cahvPCOG3NL1GP8-151" value="deviceId" style="shape=partialRectangle;html=1;whiteSpace=wrap;connectable=0;strokeColor=inherit;overflow=hidden;fillColor=none;top=0;left=0;bottom=0;right=0;pointerEvents=1;fontFamily=Helvetica;fontSize=11;" parent="yCXe4cahvPCOG3NL1GP8-150" vertex="1">
          <mxGeometry width="148" height="30" as="geometry">
            <mxRectangle width="148" height="30" as="alternateBounds" />
          </mxGeometry>
        </mxCell>
        <mxCell id="yCXe4cahvPCOG3NL1GP8-152" value="Id del dispositivo" style="shape=partialRectangle;html=1;whiteSpace=wrap;connectable=0;strokeColor=inherit;overflow=hidden;fillColor=none;top=0;left=0;bottom=0;right=0;pointerEvents=1;fontFamily=Helvetica;fontSize=11;" parent="yCXe4cahvPCOG3NL1GP8-150" vertex="1">
          <mxGeometry x="148" width="242" height="30" as="geometry">
            <mxRectangle width="242" height="30" as="alternateBounds" />
          </mxGeometry>
        </mxCell>
        <mxCell id="yCXe4cahvPCOG3NL1GP8-153" value="" style="shape=partialRectangle;html=1;whiteSpace=wrap;connectable=0;strokeColor=inherit;overflow=hidden;fillColor=none;top=0;left=0;bottom=0;right=0;pointerEvents=1;fontFamily=Helvetica;fontSize=11;" parent="yCXe4cahvPCOG3NL1GP8-150" vertex="1">
          <mxGeometry x="390" width="115" height="30" as="geometry">
            <mxRectangle width="115" height="30" as="alternateBounds" />
          </mxGeometry>
        </mxCell>
        <mxCell id="yCXe4cahvPCOG3NL1GP8-154" value="" style="shape=partialRectangle;html=1;whiteSpace=wrap;connectable=0;strokeColor=inherit;overflow=hidden;fillColor=none;top=0;left=0;bottom=0;right=0;pointerEvents=1;fontFamily=Helvetica;fontSize=11;" parent="yCXe4cahvPCOG3NL1GP8-150" vertex="1">
          <mxGeometry x="505" width="85" height="30" as="geometry">
            <mxRectangle width="85" height="30" as="alternateBounds" />
          </mxGeometry>
        </mxCell>
        <mxCell id="yCXe4cahvPCOG3NL1GP8-155" value="Request: API CardData&#xa;(/v1/jwks)" style="shape=table;startSize=30;container=1;collapsible=0;childLayout=tableLayout;fillColor=#bac8d3;strokeColor=#23445d;fontStyle=1" parent="1" vertex="1">
          <mxGeometry x="-231" y="-1179" width="589" height="91.00000000000023" as="geometry" />
        </mxCell>
        <mxCell id="yCXe4cahvPCOG3NL1GP8-156" value="" style="shape=tableRow;horizontal=0;startSize=0;swimlaneHead=0;swimlaneBody=0;strokeColor=inherit;top=0;left=0;bottom=0;right=0;collapsible=0;dropTarget=0;fillColor=none;points=[[0,0.5],[1,0.5]];portConstraint=eastwest;" parent="yCXe4cahvPCOG3NL1GP8-155" vertex="1">
          <mxGeometry y="30" width="589" height="39" as="geometry" />
        </mxCell>
        <mxCell id="yCXe4cahvPCOG3NL1GP8-157" value="&lt;span style=&quot;color: rgb(36, 36, 36); text-align: left; white-space-collapse: preserve; background-color: rgb(238, 238, 238);&quot;&gt;&lt;font style=&quot;font-size: 11px;&quot;&gt;&lt;b style=&quot;&quot;&gt;Nombre del Campo&lt;/b&gt;&lt;/font&gt;&lt;/span&gt;" style="shape=partialRectangle;html=1;whiteSpace=wrap;connectable=0;strokeColor=#000000;overflow=hidden;fillColor=#eeeeee;top=0;left=0;bottom=0;right=0;pointerEvents=1;fontFamily=Helvetica;" parent="yCXe4cahvPCOG3NL1GP8-156" vertex="1">
          <mxGeometry width="162" height="39" as="geometry">
            <mxRectangle width="162" height="39" as="alternateBounds" />
          </mxGeometry>
        </mxCell>
        <mxCell id="yCXe4cahvPCOG3NL1GP8-158" value="&lt;span style=&quot;color: rgb(36, 36, 36); text-align: left; white-space-collapse: preserve; background-color: rgb(238, 238, 238);&quot;&gt;&lt;font style=&quot;font-size: 11px;&quot;&gt;&lt;b style=&quot;&quot;&gt;Describe la funcionalidad del campo&lt;/b&gt;&lt;/font&gt;&lt;/span&gt;" style="shape=partialRectangle;html=1;whiteSpace=wrap;connectable=0;strokeColor=#000000;overflow=hidden;fillColor=#eeeeee;top=0;left=0;bottom=0;right=0;pointerEvents=1;fontFamily=Helvetica;" parent="yCXe4cahvPCOG3NL1GP8-156" vertex="1">
          <mxGeometry x="162" width="230" height="39" as="geometry">
            <mxRectangle width="230" height="39" as="alternateBounds" />
          </mxGeometry>
        </mxCell>
        <mxCell id="yCXe4cahvPCOG3NL1GP8-159" value="&lt;span style=&quot;color: rgb(36, 36, 36); text-align: left; white-space-collapse: preserve; background-color: rgb(238, 238, 238);&quot;&gt;&lt;font style=&quot;font-size: 11px;&quot;&gt;&lt;b style=&quot;&quot;&gt;Obligatoriedad&lt;/b&gt;&lt;/font&gt;&lt;/span&gt;" style="shape=partialRectangle;html=1;whiteSpace=wrap;connectable=0;strokeColor=#000000;overflow=hidden;fillColor=#eeeeee;top=0;left=0;bottom=0;right=0;pointerEvents=1;fontFamily=Helvetica;" parent="yCXe4cahvPCOG3NL1GP8-156" vertex="1">
          <mxGeometry x="392" width="111" height="39" as="geometry">
            <mxRectangle width="111" height="39" as="alternateBounds" />
          </mxGeometry>
        </mxCell>
        <mxCell id="yCXe4cahvPCOG3NL1GP8-160" value="&lt;span style=&quot;color: rgb(36, 36, 36); text-align: left; white-space-collapse: preserve; background-color: rgb(238, 238, 238);&quot;&gt;&lt;font style=&quot;font-size: 11px;&quot;&gt;&lt;b style=&quot;&quot;&gt;Longitud/ Formato&lt;/b&gt;&lt;/font&gt;&lt;/span&gt;" style="shape=partialRectangle;html=1;whiteSpace=wrap;connectable=0;strokeColor=#000000;overflow=hidden;fillColor=#eeeeee;top=0;left=0;bottom=0;right=0;pointerEvents=1;fontFamily=Helvetica;" parent="yCXe4cahvPCOG3NL1GP8-156" vertex="1">
          <mxGeometry x="503" width="86" height="39" as="geometry">
            <mxRectangle width="86" height="39" as="alternateBounds" />
          </mxGeometry>
        </mxCell>
        <mxCell id="yCXe4cahvPCOG3NL1GP8-161" value="" style="shape=tableRow;horizontal=0;startSize=0;swimlaneHead=0;swimlaneBody=0;strokeColor=inherit;top=0;left=0;bottom=0;right=0;collapsible=0;dropTarget=0;fillColor=none;points=[[0,0.5],[1,0.5]];portConstraint=eastwest;" parent="yCXe4cahvPCOG3NL1GP8-155" vertex="1">
          <mxGeometry y="69" width="589" height="22" as="geometry" />
        </mxCell>
        <mxCell id="yCXe4cahvPCOG3NL1GP8-162" value="No tiene campos de entrada" style="shape=partialRectangle;html=1;whiteSpace=wrap;connectable=0;strokeColor=inherit;overflow=hidden;fillColor=none;top=0;left=0;bottom=0;right=0;pointerEvents=1;fontSize=11;fontFamily=Helvetica;" parent="yCXe4cahvPCOG3NL1GP8-161" vertex="1">
          <mxGeometry width="162" height="22" as="geometry">
            <mxRectangle width="162" height="22" as="alternateBounds" />
          </mxGeometry>
        </mxCell>
        <mxCell id="yCXe4cahvPCOG3NL1GP8-163" value="" style="shape=partialRectangle;html=1;whiteSpace=wrap;connectable=0;strokeColor=inherit;overflow=hidden;fillColor=none;top=0;left=0;bottom=0;right=0;pointerEvents=1;fontSize=11;fontFamily=Helvetica;align=center;" parent="yCXe4cahvPCOG3NL1GP8-161" vertex="1">
          <mxGeometry x="162" width="230" height="22" as="geometry">
            <mxRectangle width="230" height="22" as="alternateBounds" />
          </mxGeometry>
        </mxCell>
        <mxCell id="yCXe4cahvPCOG3NL1GP8-164" value="" style="shape=partialRectangle;html=1;whiteSpace=wrap;connectable=0;strokeColor=inherit;overflow=hidden;fillColor=none;top=0;left=0;bottom=0;right=0;pointerEvents=1;fontSize=11;fontFamily=Helvetica;" parent="yCXe4cahvPCOG3NL1GP8-161" vertex="1">
          <mxGeometry x="392" width="111" height="22" as="geometry">
            <mxRectangle width="111" height="22" as="alternateBounds" />
          </mxGeometry>
        </mxCell>
        <mxCell id="yCXe4cahvPCOG3NL1GP8-165" value="" style="shape=partialRectangle;html=1;whiteSpace=wrap;connectable=0;strokeColor=inherit;overflow=hidden;fillColor=none;top=0;left=0;bottom=0;right=0;pointerEvents=1;fontSize=11;fontFamily=Helvetica;" parent="yCXe4cahvPCOG3NL1GP8-161" vertex="1">
          <mxGeometry x="503" width="86" height="22" as="geometry">
            <mxRectangle width="86" height="22" as="alternateBounds" />
          </mxGeometry>
        </mxCell>
        <mxCell id="yCXe4cahvPCOG3NL1GP8-166" value="Response: API CardData&#xa;(/v1/jwks)" style="shape=table;startSize=30;container=1;collapsible=0;childLayout=tableLayout;fillColor=#bac8d3;strokeColor=#23445d;fontStyle=1" parent="1" vertex="1">
          <mxGeometry x="-231" y="-1072" width="590" height="192" as="geometry" />
        </mxCell>
        <mxCell id="yCXe4cahvPCOG3NL1GP8-167" value="" style="shape=tableRow;horizontal=0;startSize=0;swimlaneHead=0;swimlaneBody=0;strokeColor=inherit;top=0;left=0;bottom=0;right=0;collapsible=0;dropTarget=0;fillColor=none;points=[[0,0.5],[1,0.5]];portConstraint=eastwest;" parent="yCXe4cahvPCOG3NL1GP8-166" vertex="1">
          <mxGeometry y="30" width="590" height="40" as="geometry" />
        </mxCell>
        <mxCell id="yCXe4cahvPCOG3NL1GP8-168" value="&lt;span style=&quot;color: rgb(36, 36, 36); text-align: left; white-space-collapse: preserve; background-color: rgb(238, 238, 238);&quot;&gt;&lt;font style=&quot;font-size: 11px;&quot;&gt;&lt;b style=&quot;&quot;&gt;Nombre del Campo&lt;/b&gt;&lt;/font&gt;&lt;/span&gt;" style="shape=partialRectangle;html=1;whiteSpace=wrap;connectable=0;strokeColor=#36393d;overflow=hidden;fillColor=#eeeeee;top=0;left=0;bottom=0;right=0;pointerEvents=1;fontFamily=Helvetica;" parent="yCXe4cahvPCOG3NL1GP8-167" vertex="1">
          <mxGeometry width="148" height="40" as="geometry">
            <mxRectangle width="148" height="40" as="alternateBounds" />
          </mxGeometry>
        </mxCell>
        <mxCell id="yCXe4cahvPCOG3NL1GP8-169" value="&lt;span style=&quot;color: rgb(36, 36, 36); text-align: left; white-space-collapse: preserve; background-color: rgb(238, 238, 238);&quot;&gt;&lt;font style=&quot;font-size: 11px;&quot;&gt;&lt;b style=&quot;&quot;&gt;Describe la funcionalidad del campo&lt;/b&gt;&lt;/font&gt;&lt;/span&gt;" style="shape=partialRectangle;html=1;whiteSpace=wrap;connectable=0;strokeColor=#36393d;overflow=hidden;fillColor=#eeeeee;top=0;left=0;bottom=0;right=0;pointerEvents=1;fontFamily=Helvetica;" parent="yCXe4cahvPCOG3NL1GP8-167" vertex="1">
          <mxGeometry x="148" width="242" height="40" as="geometry">
            <mxRectangle width="242" height="40" as="alternateBounds" />
          </mxGeometry>
        </mxCell>
        <mxCell id="yCXe4cahvPCOG3NL1GP8-170" value="&lt;span style=&quot;color: rgb(36, 36, 36); text-align: left; white-space-collapse: preserve; background-color: rgb(238, 238, 238);&quot;&gt;&lt;font style=&quot;font-size: 11px;&quot;&gt;&lt;b style=&quot;&quot;&gt;Obligatoriedad&lt;/b&gt;&lt;/font&gt;&lt;/span&gt;" style="shape=partialRectangle;html=1;whiteSpace=wrap;connectable=0;strokeColor=#36393d;overflow=hidden;fillColor=#eeeeee;top=0;left=0;bottom=0;right=0;pointerEvents=1;fontFamily=Helvetica;" parent="yCXe4cahvPCOG3NL1GP8-167" vertex="1">
          <mxGeometry x="390" width="115" height="40" as="geometry">
            <mxRectangle width="115" height="40" as="alternateBounds" />
          </mxGeometry>
        </mxCell>
        <mxCell id="yCXe4cahvPCOG3NL1GP8-171" value="&lt;span style=&quot;color: rgb(36, 36, 36); text-align: left; white-space-collapse: preserve; background-color: rgb(238, 238, 238);&quot;&gt;&lt;font style=&quot;font-size: 11px;&quot;&gt;&lt;b style=&quot;&quot;&gt;Longitud/ Formato&lt;/b&gt;&lt;/font&gt;&lt;/span&gt;" style="shape=partialRectangle;html=1;whiteSpace=wrap;connectable=0;strokeColor=#36393d;overflow=hidden;fillColor=#eeeeee;top=0;left=0;bottom=0;right=0;pointerEvents=1;fontFamily=Helvetica;" parent="yCXe4cahvPCOG3NL1GP8-167" vertex="1">
          <mxGeometry x="505" width="85" height="40" as="geometry">
            <mxRectangle width="85" height="40" as="alternateBounds" />
          </mxGeometry>
        </mxCell>
        <mxCell id="yCXe4cahvPCOG3NL1GP8-172" value="" style="shape=tableRow;horizontal=0;startSize=0;swimlaneHead=0;swimlaneBody=0;strokeColor=inherit;top=0;left=0;bottom=0;right=0;collapsible=0;dropTarget=0;fillColor=none;points=[[0,0.5],[1,0.5]];portConstraint=eastwest;" parent="yCXe4cahvPCOG3NL1GP8-166" vertex="1">
          <mxGeometry y="70" width="590" height="22" as="geometry" />
        </mxCell>
        <UserObject label="keys.kid" link="keys.kid" id="yCXe4cahvPCOG3NL1GP8-173">
          <mxCell style="shape=partialRectangle;html=1;whiteSpace=wrap;connectable=0;strokeColor=inherit;overflow=hidden;fillColor=none;top=0;left=0;bottom=0;right=0;pointerEvents=1;fontFamily=Helvetica;fontSize=11;" parent="yCXe4cahvPCOG3NL1GP8-172" vertex="1">
            <mxGeometry width="148" height="22" as="geometry">
              <mxRectangle width="148" height="22" as="alternateBounds" />
            </mxGeometry>
          </mxCell>
        </UserObject>
        <mxCell id="yCXe4cahvPCOG3NL1GP8-174" value="Key ID" style="shape=partialRectangle;html=1;whiteSpace=wrap;connectable=0;strokeColor=inherit;overflow=hidden;fillColor=none;top=0;left=0;bottom=0;right=0;pointerEvents=1;fontFamily=Helvetica;fontSize=11;" parent="yCXe4cahvPCOG3NL1GP8-172" vertex="1">
          <mxGeometry x="148" width="242" height="22" as="geometry">
            <mxRectangle width="242" height="22" as="alternateBounds" />
          </mxGeometry>
        </mxCell>
        <mxCell id="yCXe4cahvPCOG3NL1GP8-175" value="" style="shape=partialRectangle;html=1;whiteSpace=wrap;connectable=0;strokeColor=inherit;overflow=hidden;fillColor=none;top=0;left=0;bottom=0;right=0;pointerEvents=1;fontFamily=Helvetica;fontSize=11;" parent="yCXe4cahvPCOG3NL1GP8-172" vertex="1">
          <mxGeometry x="390" width="115" height="22" as="geometry">
            <mxRectangle width="115" height="22" as="alternateBounds" />
          </mxGeometry>
        </mxCell>
        <mxCell id="yCXe4cahvPCOG3NL1GP8-176" value="" style="shape=partialRectangle;html=1;whiteSpace=wrap;connectable=0;strokeColor=inherit;overflow=hidden;fillColor=none;top=0;left=0;bottom=0;right=0;pointerEvents=1;fontFamily=Helvetica;fontSize=11;" parent="yCXe4cahvPCOG3NL1GP8-172" vertex="1">
          <mxGeometry x="505" width="85" height="22" as="geometry">
            <mxRectangle width="85" height="22" as="alternateBounds" />
          </mxGeometry>
        </mxCell>
        <mxCell id="yCXe4cahvPCOG3NL1GP8-177" style="shape=tableRow;horizontal=0;startSize=0;swimlaneHead=0;swimlaneBody=0;strokeColor=inherit;top=0;left=0;bottom=0;right=0;collapsible=0;dropTarget=0;fillColor=none;points=[[0,0.5],[1,0.5]];portConstraint=eastwest;" parent="yCXe4cahvPCOG3NL1GP8-166" vertex="1">
          <mxGeometry y="92" width="590" height="20" as="geometry" />
        </mxCell>
        <UserObject label="keys.kty" link="keys.kty" id="yCXe4cahvPCOG3NL1GP8-178">
          <mxCell style="shape=partialRectangle;html=1;whiteSpace=wrap;connectable=0;strokeColor=inherit;overflow=hidden;fillColor=none;top=0;left=0;bottom=0;right=0;pointerEvents=1;fontFamily=Helvetica;fontSize=11;" parent="yCXe4cahvPCOG3NL1GP8-177" vertex="1">
            <mxGeometry width="148" height="20" as="geometry">
              <mxRectangle width="148" height="20" as="alternateBounds" />
            </mxGeometry>
          </mxCell>
        </UserObject>
        <mxCell id="yCXe4cahvPCOG3NL1GP8-179" value="Key type" style="shape=partialRectangle;html=1;whiteSpace=wrap;connectable=0;strokeColor=inherit;overflow=hidden;fillColor=none;top=0;left=0;bottom=0;right=0;pointerEvents=1;fontFamily=Helvetica;fontSize=11;" parent="yCXe4cahvPCOG3NL1GP8-177" vertex="1">
          <mxGeometry x="148" width="242" height="20" as="geometry">
            <mxRectangle width="242" height="20" as="alternateBounds" />
          </mxGeometry>
        </mxCell>
        <mxCell id="yCXe4cahvPCOG3NL1GP8-180" value="" style="shape=partialRectangle;html=1;whiteSpace=wrap;connectable=0;strokeColor=inherit;overflow=hidden;fillColor=none;top=0;left=0;bottom=0;right=0;pointerEvents=1;fontFamily=Helvetica;fontSize=11;" parent="yCXe4cahvPCOG3NL1GP8-177" vertex="1">
          <mxGeometry x="390" width="115" height="20" as="geometry">
            <mxRectangle width="115" height="20" as="alternateBounds" />
          </mxGeometry>
        </mxCell>
        <mxCell id="yCXe4cahvPCOG3NL1GP8-181" value="" style="shape=partialRectangle;html=1;whiteSpace=wrap;connectable=0;strokeColor=inherit;overflow=hidden;fillColor=none;top=0;left=0;bottom=0;right=0;pointerEvents=1;fontFamily=Helvetica;fontSize=11;" parent="yCXe4cahvPCOG3NL1GP8-177" vertex="1">
          <mxGeometry x="505" width="85" height="20" as="geometry">
            <mxRectangle width="85" height="20" as="alternateBounds" />
          </mxGeometry>
        </mxCell>
        <mxCell id="yCXe4cahvPCOG3NL1GP8-182" style="shape=tableRow;horizontal=0;startSize=0;swimlaneHead=0;swimlaneBody=0;strokeColor=inherit;top=0;left=0;bottom=0;right=0;collapsible=0;dropTarget=0;fillColor=none;points=[[0,0.5],[1,0.5]];portConstraint=eastwest;" parent="yCXe4cahvPCOG3NL1GP8-166" vertex="1">
          <mxGeometry y="112" width="590" height="20" as="geometry" />
        </mxCell>
        <mxCell id="yCXe4cahvPCOG3NL1GP8-183" value="keys.e" style="shape=partialRectangle;html=1;whiteSpace=wrap;connectable=0;strokeColor=inherit;overflow=hidden;fillColor=none;top=0;left=0;bottom=0;right=0;pointerEvents=1;fontFamily=Helvetica;fontSize=11;" parent="yCXe4cahvPCOG3NL1GP8-182" vertex="1">
          <mxGeometry width="148" height="20" as="geometry">
            <mxRectangle width="148" height="20" as="alternateBounds" />
          </mxGeometry>
        </mxCell>
        <mxCell id="yCXe4cahvPCOG3NL1GP8-184" style="shape=partialRectangle;html=1;whiteSpace=wrap;connectable=0;strokeColor=inherit;overflow=hidden;fillColor=none;top=0;left=0;bottom=0;right=0;pointerEvents=1;fontFamily=Helvetica;fontSize=11;" parent="yCXe4cahvPCOG3NL1GP8-182" vertex="1">
          <mxGeometry x="148" width="242" height="20" as="geometry">
            <mxRectangle width="242" height="20" as="alternateBounds" />
          </mxGeometry>
        </mxCell>
        <mxCell id="yCXe4cahvPCOG3NL1GP8-185" style="shape=partialRectangle;html=1;whiteSpace=wrap;connectable=0;strokeColor=inherit;overflow=hidden;fillColor=none;top=0;left=0;bottom=0;right=0;pointerEvents=1;fontFamily=Helvetica;fontSize=11;" parent="yCXe4cahvPCOG3NL1GP8-182" vertex="1">
          <mxGeometry x="390" width="115" height="20" as="geometry">
            <mxRectangle width="115" height="20" as="alternateBounds" />
          </mxGeometry>
        </mxCell>
        <mxCell id="yCXe4cahvPCOG3NL1GP8-186" style="shape=partialRectangle;html=1;whiteSpace=wrap;connectable=0;strokeColor=inherit;overflow=hidden;fillColor=none;top=0;left=0;bottom=0;right=0;pointerEvents=1;fontFamily=Helvetica;fontSize=11;" parent="yCXe4cahvPCOG3NL1GP8-182" vertex="1">
          <mxGeometry x="505" width="85" height="20" as="geometry">
            <mxRectangle width="85" height="20" as="alternateBounds" />
          </mxGeometry>
        </mxCell>
        <mxCell id="yCXe4cahvPCOG3NL1GP8-187" style="shape=tableRow;horizontal=0;startSize=0;swimlaneHead=0;swimlaneBody=0;strokeColor=inherit;top=0;left=0;bottom=0;right=0;collapsible=0;dropTarget=0;fillColor=none;points=[[0,0.5],[1,0.5]];portConstraint=eastwest;" parent="yCXe4cahvPCOG3NL1GP8-166" vertex="1">
          <mxGeometry y="132" width="590" height="20" as="geometry" />
        </mxCell>
        <UserObject label="keys.use" link="keys.use" id="yCXe4cahvPCOG3NL1GP8-188">
          <mxCell style="shape=partialRectangle;html=1;whiteSpace=wrap;connectable=0;strokeColor=inherit;overflow=hidden;fillColor=none;top=0;left=0;bottom=0;right=0;pointerEvents=1;fontFamily=Helvetica;fontSize=11;" parent="yCXe4cahvPCOG3NL1GP8-187" vertex="1">
            <mxGeometry width="148" height="20" as="geometry">
              <mxRectangle width="148" height="20" as="alternateBounds" />
            </mxGeometry>
          </mxCell>
        </UserObject>
        <mxCell id="yCXe4cahvPCOG3NL1GP8-189" value="Public key use" style="shape=partialRectangle;html=1;whiteSpace=wrap;connectable=0;strokeColor=inherit;overflow=hidden;fillColor=none;top=0;left=0;bottom=0;right=0;pointerEvents=1;fontFamily=Helvetica;fontSize=11;" parent="yCXe4cahvPCOG3NL1GP8-187" vertex="1">
          <mxGeometry x="148" width="242" height="20" as="geometry">
            <mxRectangle width="242" height="20" as="alternateBounds" />
          </mxGeometry>
        </mxCell>
        <mxCell id="yCXe4cahvPCOG3NL1GP8-190" style="shape=partialRectangle;html=1;whiteSpace=wrap;connectable=0;strokeColor=inherit;overflow=hidden;fillColor=none;top=0;left=0;bottom=0;right=0;pointerEvents=1;fontFamily=Helvetica;fontSize=11;" parent="yCXe4cahvPCOG3NL1GP8-187" vertex="1">
          <mxGeometry x="390" width="115" height="20" as="geometry">
            <mxRectangle width="115" height="20" as="alternateBounds" />
          </mxGeometry>
        </mxCell>
        <mxCell id="yCXe4cahvPCOG3NL1GP8-191" style="shape=partialRectangle;html=1;whiteSpace=wrap;connectable=0;strokeColor=inherit;overflow=hidden;fillColor=none;top=0;left=0;bottom=0;right=0;pointerEvents=1;fontFamily=Helvetica;fontSize=11;" parent="yCXe4cahvPCOG3NL1GP8-187" vertex="1">
          <mxGeometry x="505" width="85" height="20" as="geometry">
            <mxRectangle width="85" height="20" as="alternateBounds" />
          </mxGeometry>
        </mxCell>
        <mxCell id="yCXe4cahvPCOG3NL1GP8-192" style="shape=tableRow;horizontal=0;startSize=0;swimlaneHead=0;swimlaneBody=0;strokeColor=inherit;top=0;left=0;bottom=0;right=0;collapsible=0;dropTarget=0;fillColor=none;points=[[0,0.5],[1,0.5]];portConstraint=eastwest;" parent="yCXe4cahvPCOG3NL1GP8-166" vertex="1">
          <mxGeometry y="152" width="590" height="20" as="geometry" />
        </mxCell>
        <mxCell id="yCXe4cahvPCOG3NL1GP8-193" value="keys.n" style="shape=partialRectangle;html=1;whiteSpace=wrap;connectable=0;strokeColor=inherit;overflow=hidden;fillColor=none;top=0;left=0;bottom=0;right=0;pointerEvents=1;fontFamily=Helvetica;fontSize=11;" parent="yCXe4cahvPCOG3NL1GP8-192" vertex="1">
          <mxGeometry width="148" height="20" as="geometry">
            <mxRectangle width="148" height="20" as="alternateBounds" />
          </mxGeometry>
        </mxCell>
        <mxCell id="yCXe4cahvPCOG3NL1GP8-194" value="Public key" style="shape=partialRectangle;html=1;whiteSpace=wrap;connectable=0;strokeColor=inherit;overflow=hidden;fillColor=none;top=0;left=0;bottom=0;right=0;pointerEvents=1;fontFamily=Helvetica;fontSize=11;" parent="yCXe4cahvPCOG3NL1GP8-192" vertex="1">
          <mxGeometry x="148" width="242" height="20" as="geometry">
            <mxRectangle width="242" height="20" as="alternateBounds" />
          </mxGeometry>
        </mxCell>
        <mxCell id="yCXe4cahvPCOG3NL1GP8-195" style="shape=partialRectangle;html=1;whiteSpace=wrap;connectable=0;strokeColor=inherit;overflow=hidden;fillColor=none;top=0;left=0;bottom=0;right=0;pointerEvents=1;fontFamily=Helvetica;fontSize=11;" parent="yCXe4cahvPCOG3NL1GP8-192" vertex="1">
          <mxGeometry x="390" width="115" height="20" as="geometry">
            <mxRectangle width="115" height="20" as="alternateBounds" />
          </mxGeometry>
        </mxCell>
        <mxCell id="yCXe4cahvPCOG3NL1GP8-196" style="shape=partialRectangle;html=1;whiteSpace=wrap;connectable=0;strokeColor=inherit;overflow=hidden;fillColor=none;top=0;left=0;bottom=0;right=0;pointerEvents=1;fontFamily=Helvetica;fontSize=11;" parent="yCXe4cahvPCOG3NL1GP8-192" vertex="1">
          <mxGeometry x="505" width="85" height="20" as="geometry">
            <mxRectangle width="85" height="20" as="alternateBounds" />
          </mxGeometry>
        </mxCell>
        <mxCell id="yCXe4cahvPCOG3NL1GP8-197" style="shape=tableRow;horizontal=0;startSize=0;swimlaneHead=0;swimlaneBody=0;strokeColor=inherit;top=0;left=0;bottom=0;right=0;collapsible=0;dropTarget=0;fillColor=none;points=[[0,0.5],[1,0.5]];portConstraint=eastwest;" parent="yCXe4cahvPCOG3NL1GP8-166" vertex="1">
          <mxGeometry y="172" width="590" height="20" as="geometry" />
        </mxCell>
        <UserObject label="keys.alg" link="keys.alg" id="yCXe4cahvPCOG3NL1GP8-198">
          <mxCell style="shape=partialRectangle;html=1;whiteSpace=wrap;connectable=0;strokeColor=inherit;overflow=hidden;fillColor=none;top=0;left=0;bottom=0;right=0;pointerEvents=1;fontFamily=Helvetica;fontSize=11;" parent="yCXe4cahvPCOG3NL1GP8-197" vertex="1">
            <mxGeometry width="148" height="20" as="geometry">
              <mxRectangle width="148" height="20" as="alternateBounds" />
            </mxGeometry>
          </mxCell>
        </UserObject>
        <mxCell id="yCXe4cahvPCOG3NL1GP8-199" value="Algorithm" style="shape=partialRectangle;html=1;whiteSpace=wrap;connectable=0;strokeColor=inherit;overflow=hidden;fillColor=none;top=0;left=0;bottom=0;right=0;pointerEvents=1;fontFamily=Helvetica;fontSize=11;" parent="yCXe4cahvPCOG3NL1GP8-197" vertex="1">
          <mxGeometry x="148" width="242" height="20" as="geometry">
            <mxRectangle width="242" height="20" as="alternateBounds" />
          </mxGeometry>
        </mxCell>
        <mxCell id="yCXe4cahvPCOG3NL1GP8-200" style="shape=partialRectangle;html=1;whiteSpace=wrap;connectable=0;strokeColor=inherit;overflow=hidden;fillColor=none;top=0;left=0;bottom=0;right=0;pointerEvents=1;fontFamily=Helvetica;fontSize=11;" parent="yCXe4cahvPCOG3NL1GP8-197" vertex="1">
          <mxGeometry x="390" width="115" height="20" as="geometry">
            <mxRectangle width="115" height="20" as="alternateBounds" />
          </mxGeometry>
        </mxCell>
        <mxCell id="yCXe4cahvPCOG3NL1GP8-201" style="shape=partialRectangle;html=1;whiteSpace=wrap;connectable=0;strokeColor=inherit;overflow=hidden;fillColor=none;top=0;left=0;bottom=0;right=0;pointerEvents=1;fontFamily=Helvetica;fontSize=11;" parent="yCXe4cahvPCOG3NL1GP8-197" vertex="1">
          <mxGeometry x="505" width="85" height="20" as="geometry">
            <mxRectangle width="85" height="20" as="alternateBounds" />
          </mxGeometry>
        </mxCell>
        <mxCell id="yCXe4cahvPCOG3NL1GP8-202" value="" style="group" parent="1" vertex="1" connectable="0">
          <mxGeometry x="-1079" y="-2040.0204081632653" width="740" height="520.0204081632653" as="geometry" />
        </mxCell>
        <mxCell id="0QJzmTSBUrrNXlWIrxS7-74" value="&lt;div style=&quot;font-size: 12px;&quot;&gt;&lt;div&gt;&lt;b&gt;Funcionalidad&lt;/b&gt;: Como Ejecutivo de Sucursal, requiero realizar un depósito a la cuenta del cliente y obtener un comprobante por la operación efectuada&lt;/div&gt;&lt;/div&gt;&lt;div style=&quot;font-size: 12px;&quot;&gt;&lt;br&gt;&lt;/div&gt;&lt;div style=&quot;&quot;&gt;&lt;b style=&quot;font-size: 12px;&quot;&gt;Alcance&lt;/b&gt;: MPV-Full Debit&amp;nbsp;&lt;span style=&quot;text-align: center; background-color: initial;&quot;&gt;&lt;font style=&quot;font-size: 12px;&quot;&gt;Depósito, a partir de una tarjeta de débito se recupera el número de cuenta del cliente para generar depósito&lt;/font&gt;&lt;/span&gt;&lt;/div&gt;&lt;div style=&quot;&quot;&gt;&lt;span style=&quot;text-align: center; background-color: initial;&quot;&gt;&lt;font style=&quot;font-size: 12px;&quot;&gt;&lt;br&gt;&lt;/font&gt;&lt;/span&gt;&lt;/div&gt;&lt;div style=&quot;&quot;&gt;&lt;span style=&quot;text-align: center; background-color: initial;&quot;&gt;&lt;font style=&quot;font-size: 12px;&quot;&gt;PLARD - Va a realizar la recuperación de la cuenta del cliente&lt;/font&gt;&lt;/span&gt;&lt;/div&gt;&lt;div style=&quot;&quot;&gt;&lt;span style=&quot;text-align: center; background-color: initial;&quot;&gt;&lt;font style=&quot;font-size: 12px;&quot;&gt;Captación Altair - Responsable de realizar el proceso del depósito&lt;/font&gt;&lt;/span&gt;&lt;/div&gt;&lt;div style=&quot;&quot;&gt;&lt;br&gt;&lt;/div&gt;&lt;div style=&quot;font-size: 12px;&quot;&gt;&lt;b&gt;Reglas de Negocio:&lt;/b&gt;&amp;nbsp;&lt;/div&gt;&lt;div style=&quot;&quot;&gt;&lt;div style=&quot;&quot;&gt;&lt;ul&gt;&lt;li&gt;Solo aplica para tarjetas de débito&lt;/li&gt;&lt;li&gt;Existen 2 tipos de depósitos: Depósito en Caja (efectivo) y Depósito no en caja (documento/cheque)&lt;/li&gt;&lt;li&gt;En sucursal no existe un límite de depósito&lt;/li&gt;&lt;/ul&gt;&lt;/div&gt;&lt;div style=&quot;&quot;&gt;&lt;b&gt;Precondiciones&lt;/b&gt;&lt;/div&gt;&lt;div style=&quot;&quot;&gt;&lt;ul&gt;&lt;li&gt;Ejecutivo accede al aplicativo Terminal Financiero (TF) por Ventanilla&amp;nbsp;&lt;/li&gt;&lt;li&gt;Selecciona el Módulo de &quot;Operaciones depósitos&quot;&lt;/li&gt;&lt;li&gt;Tener una cuenta o tarjeta de débito&lt;/li&gt;&lt;li&gt;Cuenta y Tarjeta activa, sin ningún tipo de bloqueo&lt;/li&gt;&lt;/ul&gt;&lt;/div&gt;&lt;div style=&quot;&quot;&gt;&lt;b&gt;Post-Condiciones&lt;/b&gt;&lt;/div&gt;&lt;div style=&quot;&quot;&gt;&lt;ul&gt;&lt;li&gt;Depósito efectuado en la cuenta&lt;/li&gt;&lt;li&gt;Comprobante de depósito&lt;/li&gt;&lt;/ul&gt;&lt;/div&gt;&lt;div style=&quot;&quot;&gt;&lt;b&gt;Premisas:&lt;/b&gt;&lt;/div&gt;&lt;div style=&quot;&quot;&gt;&lt;ul&gt;&lt;li&gt;El ejecutivo de sucursal-ventanilla tenga acceso al módulo de terminal financiero para poder operar un depósito a cuenta o tarjeta débito&lt;/li&gt;&lt;li&gt;Exista una cuenta activa del Cliente Santander al que se le quiere depositar.&lt;/li&gt;&lt;/ul&gt;&lt;/div&gt;&lt;/div&gt;" style="text;html=1;strokeColor=#000000;fillColor=none;align=left;verticalAlign=top;whiteSpace=wrap;rounded=0;fontSize=12;" parent="yCXe4cahvPCOG3NL1GP8-202" vertex="1">
          <mxGeometry y="45.11040816326522" width="740" height="474.91" as="geometry" />
        </mxCell>
        <mxCell id="0QJzmTSBUrrNXlWIrxS7-75" value="Funcionalidad" style="rounded=0;whiteSpace=wrap;html=1;fillColor=#BAC8D3;strokeColor=#23445d;fontSize=14;fontStyle=1" parent="yCXe4cahvPCOG3NL1GP8-202" vertex="1">
          <mxGeometry width="740" height="44.97959183673469" as="geometry" />
        </mxCell>
        <mxCell id="yCXe4cahvPCOG3NL1GP8-203" value="" style="group" parent="1" vertex="1" connectable="0">
          <mxGeometry x="-1077.76" y="-1487.44" width="740" height="587.44" as="geometry" />
        </mxCell>
        <mxCell id="0QJzmTSBUrrNXlWIrxS7-77" value="Escenarios" style="rounded=0;whiteSpace=wrap;html=1;fillColor=#bac8d3;strokeColor=#23445d;fontSize=14;fontStyle=1;align=center;" parent="yCXe4cahvPCOG3NL1GP8-203" vertex="1">
          <mxGeometry width="740" height="39.54" as="geometry" />
        </mxCell>
        <mxCell id="0QJzmTSBUrrNXlWIrxS7-78" value="&lt;div style=&quot;font-size: 13px;&quot;&gt;&lt;b&gt;Escenario 1: Depósito en Caja (Efectivo)&lt;/b&gt;&lt;br&gt;&lt;/div&gt;&lt;div style=&quot;border-color: var(--border-color); font-size: 13px;&quot;&gt;&lt;br&gt;&lt;/div&gt;&lt;div style=&quot;border-color: var(--border-color);&quot;&gt;Escenario 1. El cliente se dirige con un ejecutivo en ventanilla de una sucursal, le informa que quiere hacer un depósito con efectivo, indicando número de cuenta o número tarjeta del destinatario Santander y monto a depositar, como resultado se espera que el dinero pase en firme y se refleje en la cuenta del cliente, el ejecutivo debe brindar un comprobante del depósito efectuado.&lt;/div&gt;&lt;div style=&quot;border-color: var(--border-color);&quot;&gt;&lt;br&gt;&lt;/div&gt;&lt;div style=&quot;border-color: var(--border-color);&quot;&gt;&lt;span style=&quot;background-color: initial;&quot;&gt;Se realizan las siguientes validaciones:&lt;/span&gt;&lt;br&gt;&lt;/div&gt;&lt;div style=&quot;border-color: var(--border-color);&quot;&gt;&lt;ul&gt;&lt;li&gt;&lt;span style=&quot;background-color: initial;&quot;&gt;Se genera una validación de BIN para determinar quién realizará la recuperación de la cuenta del cliente, si PLARD o PAMPA.&lt;/span&gt;&lt;br&gt;&lt;/li&gt;&lt;li&gt;Si hay alguna inconsistencia, el flujo termina y devuelve el mensaje de error.&lt;/li&gt;&lt;/ul&gt;&lt;/div&gt;" style="text;html=1;strokeColor=#000000;fillColor=none;align=left;verticalAlign=top;whiteSpace=wrap;rounded=0;fontSize=12;" parent="yCXe4cahvPCOG3NL1GP8-203" vertex="1">
          <mxGeometry x="0.25" y="39.539999999999964" width="739.75" height="172.9" as="geometry" />
        </mxCell>
        <mxCell id="0QJzmTSBUrrNXlWIrxS7-79" value="&lt;div style=&quot;font-size: 13px;&quot;&gt;&lt;b&gt;Escenario 2: Depósito NO en Caja (Documento / Cheque)&lt;br&gt;&lt;/b&gt;&lt;/div&gt;&lt;div style=&quot;border-color: var(--border-color); font-size: 13px;&quot;&gt;&lt;br&gt;&lt;/div&gt;&lt;div style=&quot;border-color: var(--border-color);&quot;&gt;Escenario 2.&amp;nbsp;&lt;span style=&quot;background-color: initial;&quot;&gt;El cliente se dirige con un ejecutivo en ventanilla de una sucursal, le informa que quiere hacer un depósito con documento (cheque), puedes ser 2 escenarios:&lt;/span&gt;&lt;/div&gt;&lt;div style=&quot;border-color: var(--border-color);&quot;&gt;&lt;span style=&quot;background-color: initial;&quot;&gt;&lt;br&gt;&lt;/span&gt;&lt;/div&gt;&lt;div style=&quot;border-color: var(--border-color);&quot;&gt;&lt;span style=&quot;background-color: initial;&quot;&gt;1. Cheque de otro banco a cuenta Santander&lt;/span&gt;&lt;/div&gt;&lt;div style=&quot;border-color: var(--border-color);&quot;&gt;&lt;span style=&quot;background-color: initial;&quot;&gt;&lt;br&gt;&lt;/span&gt;&lt;/div&gt;&lt;div style=&quot;border-color: var(--border-color);&quot;&gt;&lt;span style=&quot;background-color: initial;&quot;&gt;Cuando se ingresa el cheque al sistema, en captación se sube el saldo a la cuenta, este depósito no pasa en firme, es salvo buen cobro, es decir, aquí, se pasa por un proceso batch con la cámara de compensación con CECOBAN.&amp;nbsp;&lt;/span&gt;&lt;/div&gt;&lt;div style=&quot;border-color: var(--border-color);&quot;&gt;&lt;span style=&quot;background-color: initial;&quot;&gt;El dinero se ve reflejado en la cuenta, pero no está disponible, hasta que concluya el proceso con CECOBAN, como respuesta se brinda que el cheque se puede cobrar y se libera el cobro para que aparezca en firme el dinero en la cuenta del Cliente.&lt;/span&gt;&lt;/div&gt;&lt;div style=&quot;border-color: var(--border-color);&quot;&gt;&lt;span style=&quot;background-color: initial;&quot;&gt;&lt;br&gt;&lt;/span&gt;&lt;/div&gt;&lt;div style=&quot;border-color: var(--border-color);&quot;&gt;&lt;span style=&quot;background-color: initial;&quot;&gt;&lt;br&gt;&lt;/span&gt;&lt;/div&gt;&lt;div style=&quot;border-color: var(--border-color);&quot;&gt;&lt;span style=&quot;background-color: initial;&quot;&gt;2. Cheque de Santander a cuenta Santander&lt;/span&gt;&lt;/div&gt;&lt;div style=&quot;border-color: var(--border-color);&quot;&gt;&lt;br&gt;&lt;/div&gt;&lt;div style=&quot;border-color: var(--border-color);&quot;&gt;&lt;span style=&quot;background-color: initial;&quot;&gt;Cuando el cheque proviene de Santander, se puede verificar en el momento si la cuenta tiene saldo para cubrir el cheque.&lt;/span&gt;&lt;/div&gt;&lt;div style=&quot;border-color: var(--border-color);&quot;&gt;&lt;span style=&quot;background-color: initial;&quot;&gt;Se puede validar que el cheque exista&lt;/span&gt;&lt;span style=&quot;background-color: initial;&quot;&gt;, el cheque tenga una cuenta, la cuenta tenga saldo. Si el cheque no tiene saldo, se indicará saldo insuficiente y si logró todas las validaciones se indica que si hay saldo para el cobro el cheque.&lt;/span&gt;&lt;/div&gt;&lt;div style=&quot;border-color: var(--border-color);&quot;&gt;&lt;br&gt;&lt;/div&gt;&lt;div style=&quot;border-color: var(--border-color);&quot;&gt;&lt;span style=&quot;background-color: initial;&quot;&gt;Se realizan las siguientes validaciones:&lt;/span&gt;&lt;br&gt;&lt;/div&gt;&lt;div style=&quot;border-color: var(--border-color);&quot;&gt;&lt;ul&gt;&lt;li&gt;&lt;span style=&quot;background-color: initial;&quot;&gt;Se genera una validación de BIN para determinar quién realizará la recuperación de la cuenta del cliente, si PLARD o PAMPA.&lt;/span&gt;&lt;/li&gt;&lt;li&gt;Si hay alguna inconsistencia, el flujo termina y devuelve el mensaje de error.&lt;/li&gt;&lt;/ul&gt;&lt;/div&gt;" style="text;html=1;strokeColor=#000000;fillColor=none;align=left;verticalAlign=top;whiteSpace=wrap;rounded=0;fontSize=12;" parent="yCXe4cahvPCOG3NL1GP8-203" vertex="1">
          <mxGeometry x="1" y="213.51" width="739" height="373.93" as="geometry" />
        </mxCell>
      </root>
    </mxGraphModel>
  </diagram>
</mxfile>
